<svg width="3381" height="2397" viewBox="0 0 3381 2397" fill="none" xmlns="http://www.w3.org/2000/svg">
<path d="M478.378 2147.03C1115.9 2480.06 2149.45 2480.06 2786.9 2147.03C3424.35 1814 3424.43 1274.02 2786.9 940.993C2149.38 607.965 1115.83 607.965 478.378 940.993C-159.07 1274.02 -159.146 1814 478.378 2147.03Z" fill="#FAFAFA"/>
<path d="M2008.54 1696.15C1858.58 1782.65 1858.58 1923.03 2008.54 2009.62C2158.51 2096.21 2401.53 2096.21 2551.49 2009.62C2701.46 1923.03 2701.38 1782.65 2551.49 1696.15C2401.6 1609.64 2158.43 1609.56 2008.54 1696.15Z" fill="#EBEBEB"/>
<path d="M429.607 455.183L831.341 330.25L522.28 544.356L429.607 455.183Z" fill="#DFBDB9"/>
<path d="M831.342 330.25L398.641 401.619L305.969 312.37L831.342 330.25Z" fill="#DFBDB9"/>
<path d="M398.641 401.619V508.672L429.608 455.183L831.342 330.25L398.641 401.619Z" fill="#455A64"/>
<path d="M398.641 508.672L460.499 484.933L429.608 455.184L398.641 508.672Z" fill="#DFBDB9"/>
<path d="M429.607 455.184L460.498 484.933L450.607 488.661L429.607 455.184Z" fill="#455A64"/>
<path d="M332.065 492.542C330.786 492.566 329.536 492.159 328.515 491.387C327.495 490.615 326.764 489.523 326.439 488.285C326.114 487.048 326.215 485.737 326.724 484.563C327.234 483.39 328.124 482.421 329.25 481.814C336.098 478.01 343.021 474.205 349.869 471.238C350.548 470.871 351.295 470.645 352.064 470.575C352.832 470.504 353.607 470.59 354.342 470.828C355.076 471.066 355.755 471.45 356.337 471.958C356.918 472.466 357.391 473.086 357.726 473.782C358.061 474.477 358.251 475.234 358.285 476.005C358.319 476.776 358.197 477.546 357.924 478.269C357.652 478.991 357.236 479.651 356.702 480.208C356.167 480.765 355.525 481.208 354.815 481.51C348.195 484.705 341.424 488.129 334.804 491.857C333.957 492.297 333.019 492.532 332.065 492.542Z" fill="#E0E0E0"/>
<path d="M261.838 1107.01C260.672 1107.02 259.53 1106.68 258.566 1106.02C246.192 1097.3 234.469 1087.69 223.491 1077.26C222.795 1076.81 222.206 1076.21 221.765 1075.51C221.324 1074.81 221.041 1074.02 220.937 1073.19C220.832 1072.37 220.908 1071.54 221.16 1070.75C221.411 1069.96 221.832 1069.23 222.393 1068.62C222.953 1068.01 223.641 1067.53 224.407 1067.21C225.172 1066.89 225.999 1066.74 226.827 1066.77C227.656 1066.81 228.468 1067.02 229.206 1067.4C229.943 1067.78 230.59 1068.31 231.099 1068.97C241.689 1079.02 253.006 1088.28 264.958 1096.66C265.943 1097.37 266.678 1098.37 267.057 1099.52C267.436 1100.67 267.44 1101.91 267.067 1103.06C266.694 1104.21 265.965 1105.22 264.983 1105.93C264.002 1106.64 262.821 1107.02 261.61 1107.01H261.838ZM202.187 1051.62C201.344 1051.63 200.51 1051.45 199.747 1051.1C198.983 1050.74 198.309 1050.22 197.774 1049.57C188.186 1037.87 179.464 1025.48 171.676 1012.51C170.889 1011.21 170.651 1009.65 171.015 1008.17C171.379 1006.7 172.315 1005.43 173.616 1004.64C174.918 1003.85 176.479 1003.61 177.956 1003.98C179.433 1004.34 180.704 1005.28 181.491 1006.58C188.993 1019.08 197.384 1031.04 206.6 1042.34C207.55 1043.5 208.003 1044.99 207.861 1046.49C207.718 1047.99 206.992 1049.36 205.839 1050.33C204.82 1051.19 203.521 1051.65 202.187 1051.62ZM159.35 982.383C158.245 982.394 157.16 982.083 156.228 981.488C155.296 980.894 154.557 980.042 154.1 979.035C147.883 965.261 142.546 951.106 138.122 936.655C137.798 935.25 138.018 933.773 138.738 932.523C139.458 931.273 140.625 930.342 142.004 929.917C143.383 929.493 144.872 929.607 146.17 930.236C147.469 930.865 148.481 931.962 149.003 933.308C153.209 947.284 158.291 960.981 164.22 974.318C164.539 975.002 164.719 975.742 164.75 976.496C164.78 977.25 164.662 978.002 164.4 978.71C164.138 979.417 163.738 980.066 163.224 980.618C162.71 981.17 162.092 981.615 161.405 981.927C160.757 982.214 160.059 982.369 159.35 982.383ZM134.622 904.699C133.303 904.687 132.028 904.218 131.015 903.372C130.002 902.526 129.314 901.355 129.068 900.058C126.164 885.275 124.106 870.338 122.905 855.32C122.784 853.806 123.269 852.307 124.254 851.151C125.238 849.995 126.642 849.278 128.155 849.157C129.668 849.036 131.168 849.521 132.324 850.505C133.48 851.49 134.197 852.893 134.318 854.407C135.437 868.993 137.419 883.5 140.253 897.852C140.407 898.587 140.413 899.345 140.27 900.083C140.127 900.82 139.838 901.522 139.419 902.146C139.001 902.77 138.462 903.303 137.834 903.716C137.206 904.128 136.502 904.411 135.764 904.547L134.622 904.699ZM127.394 823.439C126.642 823.44 125.897 823.289 125.204 822.997C124.511 822.704 123.883 822.276 123.358 821.737C122.833 821.198 122.422 820.559 122.148 819.858C121.874 819.158 121.743 818.409 121.764 817.657C121.942 802.598 122.958 787.56 124.807 772.614C124.816 771.812 124.994 771.02 125.329 770.291C125.664 769.563 126.149 768.913 126.753 768.384C127.356 767.855 128.065 767.46 128.831 767.223C129.598 766.987 130.406 766.914 131.202 767.011C131.999 767.108 132.766 767.372 133.453 767.785C134.141 768.199 134.734 768.752 135.193 769.41C135.652 770.068 135.967 770.816 136.118 771.604C136.269 772.392 136.252 773.203 136.068 773.984C134.309 788.529 133.344 803.159 133.177 817.809C133.167 818.559 133.009 819.299 132.713 819.987C132.417 820.676 131.989 821.299 131.452 821.822C130.915 822.345 130.28 822.757 129.584 823.034C128.888 823.312 128.144 823.45 127.394 823.439ZM136.677 742.408C136.249 742.482 135.811 742.482 135.383 742.408C133.913 742.08 132.632 741.184 131.819 739.916C131.007 738.647 130.729 737.109 131.046 735.636C134.38 720.898 138.65 706.387 143.829 692.191C144.081 691.45 144.483 690.769 145.009 690.191C145.536 689.612 146.176 689.147 146.889 688.826C147.603 688.505 148.375 688.334 149.157 688.324C149.94 688.314 150.716 688.465 151.437 688.767C152.171 689.029 152.845 689.436 153.418 689.964C153.991 690.493 154.451 691.131 154.771 691.842C155.091 692.553 155.264 693.321 155.279 694.1C155.295 694.879 155.152 695.653 154.861 696.376C149.869 710.101 145.752 724.129 142.535 738.375C142.159 739.612 141.375 740.683 140.311 741.416C139.247 742.149 137.965 742.498 136.677 742.408ZM163.763 665.561C162.886 665.596 162.016 665.385 161.252 664.952C160.572 664.635 159.961 664.185 159.457 663.628C158.953 663.071 158.565 662.418 158.317 661.709C158.069 661 157.965 660.249 158.012 659.499C158.059 658.749 158.255 658.017 158.589 657.344C165.23 643.784 172.701 630.647 180.959 618.007C181.79 616.829 183.037 616.009 184.449 615.712C185.86 615.416 187.332 615.665 188.567 616.41C189.773 617.217 190.621 618.46 190.933 619.878C191.245 621.295 190.997 622.779 190.241 624.018C182.215 636.227 174.972 648.934 168.557 662.061C168.163 663.033 167.505 663.876 166.659 664.494C165.812 665.112 164.809 665.482 163.763 665.561ZM207.513 597.084C206.24 597.097 205.003 596.666 204.013 595.866C203.42 595.399 202.925 594.819 202.557 594.16C202.19 593.5 201.957 592.775 201.872 592.024C201.787 591.274 201.852 590.515 202.063 589.79C202.273 589.065 202.626 588.389 203.1 587.801C212.608 576.055 222.769 564.853 233.534 554.247C234.604 553.179 236.054 552.578 237.567 552.578C239.079 552.578 240.529 553.179 241.599 554.247C242.668 555.317 243.268 556.768 243.268 558.28C243.268 559.792 242.668 561.243 241.599 562.312C231.23 572.657 221.426 583.553 212.23 594.953C211.641 595.605 210.907 596.109 210.088 596.426C209.269 596.743 208.387 596.864 207.513 596.779V597.084ZM264.729 538.65C263.9 538.648 263.081 538.463 262.331 538.108C261.581 537.753 260.919 537.236 260.392 536.595C259.429 535.429 258.96 533.931 259.088 532.423C259.216 530.915 259.93 529.518 261.077 528.53C272.66 518.898 284.722 509.858 297.218 501.444C298.445 500.691 299.91 500.43 301.321 500.712C302.732 500.995 303.984 501.799 304.827 502.965C305.676 504.229 305.992 505.777 305.708 507.273C305.423 508.768 304.559 510.091 303.305 510.954C291.114 519.14 279.356 527.953 268.077 537.356C267.121 538.123 265.952 538.574 264.729 538.65Z" fill="#E0E0E0"/>
<path d="M314.186 1136.76C313.369 1136.77 312.562 1136.58 311.827 1136.23C304.751 1133.03 297.751 1129.61 291.055 1125.96C290.401 1125.61 289.82 1125.14 289.347 1124.57C288.875 1124 288.518 1123.35 288.299 1122.64C288.08 1121.94 288.003 1121.19 288.071 1120.46C288.139 1119.72 288.352 1119 288.697 1118.35C289.407 1117.04 290.6 1116.06 292.021 1115.62C293.443 1115.18 294.98 1115.31 296.305 1115.99C302.849 1119.49 309.62 1122.84 316.468 1125.96C317.642 1126.5 318.596 1127.43 319.172 1128.59C319.748 1129.75 319.913 1131.07 319.638 1132.34C319.364 1133.61 318.667 1134.74 317.662 1135.56C316.657 1136.38 315.405 1136.83 314.109 1136.84L314.186 1136.76Z" fill="#E0E0E0"/>
<path d="M2916.71 860.645L3238.55 654.604L3380.3 700.104L2916.71 860.645Z" fill="#DFBDB9"/>
<path d="M2916.71 860.646L3194.88 628.736L3133.02 557.367L2916.71 860.646Z" fill="#DFBDB9"/>
<path d="M3194.88 628.735V682.528L2916.71 860.645L3194.88 628.735Z" fill="#455A64"/>
<path d="M3257.65 606.29C3256.27 606.295 3254.94 605.779 3253.92 604.845C3252.8 603.836 3252.11 602.428 3252.01 600.921C3251.91 599.413 3252.41 597.927 3253.39 596.779C3263.3 585.727 3272.09 573.723 3279.64 560.943C3280.4 559.631 3281.66 558.678 3283.13 558.293C3284.6 557.907 3286.16 558.122 3287.47 558.889C3288.79 559.655 3289.74 560.912 3290.12 562.382C3290.51 563.851 3290.3 565.414 3289.53 566.726C3281.56 580.123 3272.34 592.734 3261.99 604.388C3261.44 604.997 3260.77 605.482 3260.02 605.81C3259.28 606.138 3258.47 606.302 3257.65 606.29ZM3301.17 535.378C3300.49 535.486 3299.8 535.486 3299.12 535.378C3298.39 535.103 3297.74 534.684 3297.18 534.148C3296.63 533.611 3296.19 532.968 3295.89 532.257C3295.59 531.546 3295.44 530.782 3295.45 530.01C3295.45 529.239 3295.61 528.477 3295.92 527.77C3301.3 513.911 3305.32 499.565 3307.94 484.933C3308.21 483.44 3309.07 482.116 3310.32 481.253C3311.57 480.389 3313.11 480.058 3314.6 480.33C3316.09 480.602 3317.42 481.457 3318.28 482.705C3319.14 483.954 3319.47 485.494 3319.2 486.987C3316.4 502.32 3312.14 517.351 3306.5 531.878C3306.07 532.931 3305.33 533.829 3304.38 534.454C3303.42 535.079 3302.31 535.401 3301.17 535.378ZM3317.45 453.738C3316.71 453.728 3315.97 453.57 3315.29 453.273C3314.6 452.976 3313.98 452.546 3313.47 452.008C3312.95 451.47 3312.54 450.835 3312.27 450.139C3312.01 449.443 3311.88 448.701 3311.9 447.955C3311.9 445.977 3311.9 443.999 3311.9 442.021C3311.86 429.103 3310.85 416.207 3308.85 403.445C3308.64 401.943 3309.01 400.416 3309.91 399.192C3310.81 397.968 3312.15 397.145 3313.65 396.902C3315.15 396.702 3316.66 397.089 3317.88 397.983C3319.1 398.876 3319.93 400.206 3320.19 401.695C3322.25 415.039 3323.29 428.519 3323.31 442.021C3323.31 444.075 3323.31 446.129 3323.31 448.184C3323.25 449.691 3322.61 451.115 3321.51 452.152C3320.42 453.19 3318.96 453.759 3317.45 453.738ZM3305.96 371.261C3304.74 371.257 3303.55 370.853 3302.57 370.112C3301.6 369.37 3300.89 368.331 3300.56 367.152C3296.2 352.876 3290.73 338.961 3284.2 325.533C3283.87 324.86 3283.67 324.127 3283.63 323.378C3283.58 322.628 3283.68 321.876 3283.93 321.167C3284.18 320.458 3284.57 319.806 3285.07 319.249C3285.57 318.692 3286.18 318.242 3286.87 317.924C3288.23 317.27 3289.79 317.183 3291.22 317.683C3292.65 318.182 3293.82 319.226 3294.47 320.587C3301.28 334.541 3306.95 349.018 3311.44 363.88C3311.66 364.595 3311.74 365.346 3311.67 366.09C3311.6 366.835 3311.38 367.557 3311.02 368.216C3310.67 368.875 3310.19 369.457 3309.61 369.927C3309.02 370.397 3308.36 370.747 3307.64 370.956C3307.1 371.167 3306.54 371.271 3305.96 371.261ZM3270.66 295.707C3269.7 295.716 3268.75 295.475 3267.91 295.009C3267.07 294.542 3266.37 293.865 3265.87 293.044C3257.71 280.523 3248.74 268.552 3239.01 257.208C3238.52 256.639 3238.14 255.979 3237.91 255.265C3237.67 254.551 3237.58 253.798 3237.64 253.049C3237.69 252.299 3237.9 251.569 3238.24 250.898C3238.58 250.228 3239.05 249.631 3239.62 249.143C3240.18 248.654 3240.83 248.281 3241.54 248.047C3242.25 247.813 3242.99 247.721 3243.74 247.778C3244.48 247.834 3245.21 248.038 3245.87 248.377C3246.53 248.716 3247.12 249.183 3247.61 249.751C3257.71 261.493 3267.01 273.898 3275.45 286.881C3276.15 288.134 3276.37 289.601 3276.06 291.004C3275.75 292.407 3274.94 293.647 3273.78 294.49C3272.87 295.16 3271.79 295.555 3270.66 295.631V295.707ZM3217.4 231.719C3215.95 231.714 3214.55 231.141 3213.52 230.121C3202.56 219.867 3191.06 210.215 3179.05 201.209C3178.45 200.759 3177.95 200.196 3177.57 199.551C3177.18 198.906 3176.93 198.192 3176.83 197.45C3176.72 196.709 3176.76 195.953 3176.95 195.227C3177.13 194.501 3177.46 193.819 3177.91 193.219C3178.36 192.62 3178.92 192.115 3179.57 191.733C3180.21 191.351 3180.93 191.1 3181.67 190.994C3182.41 190.888 3183.17 190.929 3183.89 191.115C3184.62 191.301 3185.3 191.629 3185.9 192.078C3198.27 201.322 3210.1 211.254 3221.36 221.828C3222.2 222.612 3222.79 223.634 3223.04 224.76C3223.3 225.885 3223.2 227.061 3222.77 228.132C3222.35 229.204 3221.6 230.12 3220.64 230.76C3219.68 231.4 3218.55 231.735 3217.4 231.719ZM3150.67 181.046C3149.59 181.036 3148.54 180.719 3147.63 180.133C3142.45 176.937 3137.05 173.741 3131.57 170.622C3123.97 166.361 3116.36 162.1 3108.29 158.068C3107.56 157.773 3106.89 157.327 3106.33 156.76C3105.78 156.192 3105.35 155.516 3105.07 154.773C3104.79 154.03 3104.67 153.237 3104.72 152.445C3104.76 151.654 3104.97 150.88 3105.33 150.173C3105.7 149.467 3106.2 148.844 3106.82 148.344C3107.43 147.843 3108.14 147.477 3108.91 147.267C3109.67 147.058 3110.47 147.01 3111.26 147.127C3112.04 147.245 3112.8 147.524 3113.47 147.948C3121.45 152.057 3129.44 156.318 3137.2 160.731C3142.83 163.85 3148.31 167.122 3153.64 170.47C3154.87 171.255 3155.75 172.481 3156.1 173.896C3156.46 175.311 3156.26 176.807 3155.54 178.078C3155.05 178.947 3154.34 179.675 3153.49 180.194C3152.64 180.714 3151.67 181.007 3150.67 181.046ZM2468.56 177.165C2467.56 177.154 2466.57 176.882 2465.7 176.375C2464.84 175.868 2464.12 175.144 2463.62 174.274C2462.89 172.989 2462.71 171.473 2463.09 170.05C2463.47 168.628 2464.4 167.413 2465.67 166.665C2478.91 159.057 2492.53 151.448 2506.3 145.057C2507.65 144.398 2509.21 144.299 2510.64 144.784C2512.06 145.269 2513.24 146.296 2513.91 147.644C2514.54 149.009 2514.62 150.568 2514.12 151.989C2513.62 153.41 2512.59 154.58 2511.24 155.253C2497.7 161.872 2484.31 168.948 2471.3 176.481C2470.45 176.895 2469.5 177.079 2468.56 177.013V177.165ZM3076.49 142.394C3075.7 142.399 3074.91 142.217 3074.21 141.861C3060.51 135.851 3046.36 130.22 3032.21 125.199C3030.77 124.684 3029.6 123.621 3028.95 122.244C3028.3 120.868 3028.23 119.289 3028.74 117.856C3029.26 116.424 3030.32 115.254 3031.7 114.605C3033.07 113.955 3034.65 113.88 3036.09 114.394C3050.47 119.568 3064.85 125.275 3078.85 131.438C3080.07 131.957 3081.07 132.885 3081.68 134.062C3082.29 135.24 3082.47 136.593 3082.19 137.89C3081.91 139.187 3081.19 140.346 3080.15 141.168C3079.11 141.989 3077.81 142.423 3076.49 142.394ZM2543.51 140.035C2542.38 140.043 2541.28 139.714 2540.34 139.09C2539.41 138.466 2538.68 137.576 2538.26 136.535C2537.94 135.838 2537.77 135.084 2537.76 134.32C2537.74 133.556 2537.88 132.797 2538.17 132.087C2538.45 131.377 2538.87 130.732 2539.41 130.189C2539.95 129.646 2540.59 129.217 2541.3 128.927C2555.37 122.992 2569.83 117.514 2584.29 112.568C2585.01 112.267 2585.79 112.12 2586.58 112.135C2587.37 112.15 2588.14 112.327 2588.86 112.656C2589.57 112.985 2590.21 113.457 2590.73 114.045C2591.26 114.632 2591.65 115.321 2591.9 116.068C2592.17 116.802 2592.3 117.583 2592.27 118.367C2592.24 119.15 2592.05 119.919 2591.72 120.629C2591.38 121.338 2590.91 121.974 2590.33 122.497C2589.74 123.021 2589.06 123.422 2588.32 123.677C2574.09 128.546 2559.79 133.948 2546.02 139.731C2545.2 139.958 2544.34 140.01 2543.51 139.883V140.035ZM2997.97 113.71C2997.44 113.784 2996.9 113.784 2996.37 113.71C2981.99 109.525 2967.23 106.101 2952.54 102.525C2951.81 102.365 2951.11 102.062 2950.5 101.633C2949.88 101.205 2949.35 100.659 2948.95 100.026C2948.54 99.3939 2948.26 98.6877 2948.13 97.9481C2948 97.2084 2948.01 96.4497 2948.17 95.7153C2948.33 94.9809 2948.63 94.2852 2949.06 93.6679C2949.49 93.0506 2950.04 92.5238 2950.67 92.1175C2951.3 91.7113 2952.01 91.4335 2952.75 91.3002C2953.49 91.1668 2954.24 91.1805 2954.98 91.3403C2970.2 94.612 2984.96 98.4924 2999.56 102.753C3000.88 103.138 3002.02 103.985 3002.76 105.14C3003.51 106.294 3003.81 107.679 3003.62 109.038C3003.42 110.398 3002.74 111.642 3001.71 112.542C3000.67 113.442 2999.34 113.938 2997.97 113.938V113.71ZM2622.48 112.568C2621.24 112.564 2620.03 112.152 2619.04 111.397C2618.05 110.641 2617.34 109.583 2617 108.384C2616.8 107.669 2616.73 106.921 2616.81 106.181C2616.9 105.441 2617.12 104.725 2617.48 104.074C2617.85 103.423 2618.33 102.85 2618.92 102.388C2619.5 101.927 2620.17 101.585 2620.88 101.384C2635.57 97.2751 2650.63 93.7751 2665.62 90.4273C2666.38 90.1849 2667.18 90.1043 2667.98 90.1908C2668.77 90.2773 2669.54 90.529 2670.23 90.9295C2670.91 91.33 2671.51 91.8705 2671.98 92.5162C2672.45 93.162 2672.77 93.8985 2672.94 94.6784C2673.11 95.4583 2673.11 96.2643 2672.94 97.0443C2672.78 97.8243 2672.45 98.5611 2671.98 99.2072C2671.52 99.8533 2670.92 100.394 2670.23 100.795C2669.54 101.197 2668.77 101.449 2667.98 101.536C2653.22 104.655 2638.46 108.308 2624 112.34L2622.48 112.568ZM2916.4 95.3729H2915.26C2900.42 93.0142 2885.28 91.1121 2870.37 89.7425C2869.58 89.7339 2868.81 89.5631 2868.09 89.2407C2867.38 88.9183 2866.73 88.4514 2866.21 87.8691C2865.68 87.2868 2865.28 86.6018 2865.03 85.8569C2864.77 85.1121 2864.68 84.3234 2864.75 83.5404C2864.82 82.7575 2865.05 81.9971 2865.42 81.3069C2865.8 80.6167 2866.31 80.0116 2866.93 79.5295C2867.55 79.0475 2868.27 78.6988 2869.03 78.5054C2869.79 78.312 2870.58 78.2781 2871.36 78.4058C2886.58 79.7753 2901.79 81.6775 2917.01 84.1122C2918.5 84.3734 2919.82 85.2034 2920.7 86.4255C2921.58 87.6476 2921.95 89.1653 2921.73 90.6556C2921.46 91.8869 2920.79 92.995 2919.83 93.807C2918.87 94.6191 2917.66 95.0894 2916.4 95.1446V95.3729ZM2704.2 94.8403C2702.84 94.8397 2701.53 94.3571 2700.5 93.4789C2699.47 92.6007 2698.79 91.3842 2698.57 90.0469C2698.35 88.5454 2698.73 87.0179 2699.63 85.7938C2700.52 84.5697 2701.86 83.7471 2703.36 83.5035C2718.58 81.2209 2733.8 79.3188 2749.01 78.0253C2749.76 77.9604 2750.52 78.0437 2751.24 78.2704C2751.95 78.4972 2752.62 78.863 2753.19 79.347C2753.77 79.8309 2754.24 80.4236 2754.59 81.0911C2754.94 81.7586 2755.15 82.4878 2755.21 83.2372C2755.28 83.9866 2755.2 84.7414 2754.97 85.4586C2754.74 86.1758 2754.38 86.8413 2753.89 87.4171C2753.41 87.9929 2752.82 88.4678 2752.15 88.8146C2751.48 89.1614 2750.75 89.3733 2750 89.4382C2734.79 90.7317 2719.95 92.4816 2705.11 94.8403H2704.2ZM2833.16 87.2317C2817.95 86.6991 2802.73 86.623 2787.89 87.2317C2787.15 87.2728 2786.4 87.1621 2785.69 86.9062C2784.99 86.6503 2784.34 86.2546 2783.8 85.7428C2783.25 85.231 2782.81 84.6137 2782.51 83.9281C2782.2 83.2425 2782.04 82.5028 2782.03 81.7535C2782 81.0015 2782.13 80.251 2782.39 79.5464C2782.65 78.8417 2783.06 78.1972 2783.57 77.6511C2784.09 77.1049 2784.71 76.6681 2785.4 76.3664C2786.09 76.0648 2786.84 75.9045 2787.59 75.8949C2802.81 75.3623 2818.02 75.4384 2833.24 75.8949C2833.99 75.9146 2834.73 76.0818 2835.41 76.387C2836.1 76.6921 2836.72 77.1292 2837.23 77.6733C2837.75 78.2174 2838.15 78.8577 2838.42 79.5579C2838.69 80.258 2838.82 81.004 2838.8 81.7535C2838.68 83.1808 2838.04 84.5155 2837 85.4994C2835.96 86.4833 2834.6 87.0463 2833.16 87.0796V87.2317Z" fill="#E0E0E0"/>
<path d="M2804.48 971.883V959.709H2801.51C2796.99 951.463 2790.14 944.739 2781.8 940.383C2764.8 931.755 2746.01 927.258 2726.95 927.258C2707.88 927.258 2689.09 931.755 2672.09 940.383C2663.76 944.739 2656.9 951.463 2652.38 959.709H2649.41V971.502C2649.41 983.143 2657.02 994.861 2672.24 1003.76C2689.25 1012.35 2708.04 1016.82 2727.1 1016.82C2746.15 1016.82 2764.94 1012.35 2781.96 1003.76C2797.02 995.165 2804.55 983.448 2804.48 971.883Z" fill="#37474F"/>
<path d="M2726.95 1004.52C2769.77 1004.52 2804.48 984.46 2804.48 959.709C2804.48 934.959 2769.77 914.895 2726.95 914.895C2684.13 914.895 2649.41 934.959 2649.41 959.709C2649.41 984.46 2684.13 1004.52 2726.95 1004.52Z" fill="#455A64"/>
<path d="M2707.01 586.584V954.46C2707.17 956.205 2707.79 957.877 2708.81 959.307C2709.83 960.736 2711.2 961.872 2712.79 962.601C2717.17 964.814 2722 965.967 2726.91 965.967C2731.81 965.967 2736.65 964.814 2741.02 962.601C2742.64 961.889 2744.03 960.759 2745.06 959.328C2746.09 957.897 2746.72 956.216 2746.88 954.46V586.584H2707.01Z" fill="#37474F"/>
<path d="M2816.35 311.229C2796.94 300.044 2779.29 299.131 2766.05 306.511L2519.61 448.944L2643.25 696.908L2890.53 553.867V445.368C2890.53 394.923 2857.28 334.891 2816.35 311.229Z" fill="#455A64"/>
<path d="M2643.25 588.333V696.908L2494.96 611.235V502.737C2494.96 452.292 2528.13 430.607 2569.07 454.27C2595.32 469.487 2618.37 499.465 2631.54 532.334C2638.9 550.106 2642.87 569.1 2643.25 588.333Z" fill="#37474F"/>
<path d="M2643.25 588.333V696.908L2494.96 611.235L2631.54 532.334C2638.9 550.106 2642.87 569.099 2643.25 588.333Z" fill="#263238"/>
<path d="M2618.52 625.54C2604.9 586.128 2560.62 534.998 2519.61 511.411C2478.6 487.825 2456.54 500.531 2470.16 539.944L2494.88 611.312L2643.25 696.985C2643.25 696.985 2632.22 664.953 2618.52 625.54Z" fill="#455A64"/>
<path d="M2720.55 592.443L2712.26 587.649C2710.48 586.831 2708.51 586.498 2706.56 586.685C2704.61 586.873 2702.75 587.573 2701.15 588.714C2696.57 591.713 2692.76 595.748 2690.02 600.493C2687.28 605.238 2685.7 610.56 2685.4 616.029C2685.2 617.988 2685.52 619.967 2686.33 621.76C2687.15 623.553 2688.43 625.094 2690.04 626.225L2697.65 630.638L2699.1 628.279C2700.68 627.938 2702.19 627.347 2703.59 626.529C2708.17 623.547 2711.98 619.526 2714.72 614.793C2717.46 610.06 2719.04 604.749 2719.34 599.29C2719.33 597.929 2719.15 596.574 2718.8 595.258L2720.55 592.443Z" fill="#263238"/>
<path d="M2709.07 593.355C2704.48 596.338 2700.67 600.358 2697.93 605.091C2695.2 609.824 2693.62 615.135 2693.32 620.594C2693.32 630.637 2700.39 634.67 2709.07 629.648C2713.65 626.67 2717.47 622.65 2720.21 617.917C2722.94 613.183 2724.52 607.869 2724.82 602.409C2725.04 592.366 2717.44 588.333 2709.07 593.355Z" fill="#37474F"/>
<path d="M2709.07 615.801C2708.47 615.801 2707.87 615.683 2707.32 615.453C2706.76 615.224 2706.26 614.888 2705.84 614.464C2705.41 614.04 2705.08 613.536 2704.85 612.983C2704.62 612.429 2704.5 611.835 2704.5 611.236V454.27C2704.5 453.06 2704.98 451.898 2705.84 451.042C2706.69 450.186 2707.85 449.705 2709.07 449.705C2710.28 449.705 2711.44 450.186 2712.29 451.042C2713.15 451.898 2713.63 453.06 2713.63 454.27V611.236C2713.63 612.446 2713.15 613.608 2712.29 614.464C2711.44 615.32 2710.28 615.801 2709.07 615.801Z" fill="#263238"/>
<path d="M2713.17 458.379V499.313L2757.08 454.271L2713.17 458.379Z" fill="#37474F"/>
<path d="M405.032 1816.21C401.228 1818.26 331.381 1838.05 305.512 1803.88C279.643 1769.72 322.631 1716.46 298.36 1696.83C274.088 1677.2 206.067 1696.83 189.709 1655.59C173.35 1614.35 221.817 1596.55 194.578 1554.93C177.383 1528.68 129.297 1514.22 131.503 1489.8C134.699 1454.12 200.437 1444.15 257.806 1482.72C315.175 1521.3 341.957 1489.65 360.142 1487.06C378.326 1484.47 417.586 1490.18 416.369 1554.09C415.152 1618.01 405.032 1816.21 405.032 1816.21Z" fill="#DFBDB9"/>
<path d="M409.673 1725.59C408.765 1725.59 407.888 1725.27 407.192 1724.68C406.497 1724.1 406.029 1723.29 405.869 1722.4C385.858 1600.66 244.871 1502.28 171.524 1481.13C171.039 1481 170.585 1480.77 170.19 1480.46C169.795 1480.15 169.467 1479.76 169.225 1479.32C168.983 1478.88 168.833 1478.39 168.784 1477.89C168.734 1477.39 168.786 1476.89 168.937 1476.41C169.22 1475.44 169.875 1474.62 170.76 1474.14C171.645 1473.65 172.686 1473.54 173.654 1473.82C248.599 1495.51 392.858 1596.63 413.401 1721.18C413.555 1722.17 413.315 1723.17 412.731 1723.99C412.147 1724.8 411.267 1725.35 410.282 1725.52L409.673 1725.59Z" fill="white"/>
<path d="M243.349 1623.71C242.513 1623.72 241.696 1623.45 241.027 1622.95C240.358 1622.45 239.874 1621.74 239.648 1620.93C239.423 1620.13 239.47 1619.27 239.781 1618.49C240.093 1617.72 240.651 1617.06 241.371 1616.64C243.654 1615.27 297.979 1583.54 351.391 1598.38C352.4 1598.64 353.264 1599.29 353.792 1600.19C354.32 1601.09 354.469 1602.16 354.207 1603.17C353.944 1604.18 353.292 1605.04 352.393 1605.57C351.494 1606.1 350.422 1606.25 349.413 1605.98C299.044 1591.98 245.784 1623.1 245.252 1623.41C244.66 1623.69 243.999 1623.79 243.349 1623.71Z" fill="white"/>
<path d="M2394.07 1173.36C2424.05 1177.47 2475.1 1160.12 2478.75 1110.21C2482.41 1060.3 2503.03 1046.75 2540.84 1038.61C2578.66 1030.47 2589.76 1017.31 2594.1 993.568C2598.44 969.829 2569.68 941.449 2577.74 905.689C2585.81 869.929 2612.74 870.005 2639.22 829.603C2656.19 803.582 2621.42 763.865 2563.51 780.908C2505.61 797.951 2510.25 835.309 2452.35 840.103C2394.45 844.896 2358.16 880.048 2357.02 923.797C2355.88 967.547 2394.07 1173.36 2394.07 1173.36Z" fill="#DFBDB9"/>
<path opacity="0.2" d="M2394.07 1173.36C2424.05 1177.47 2475.1 1160.12 2478.75 1110.21C2482.41 1060.3 2503.03 1046.75 2540.84 1038.61C2578.66 1030.47 2589.76 1017.31 2594.1 993.568C2598.44 969.829 2569.68 941.449 2577.74 905.689C2585.81 869.929 2612.74 870.005 2639.22 829.603C2656.19 803.582 2621.42 763.865 2563.51 780.908C2505.61 797.951 2510.25 835.309 2452.35 840.103C2394.45 844.896 2358.16 880.048 2357.02 923.797C2355.88 967.547 2394.07 1173.36 2394.07 1173.36Z" fill="black"/>
<path d="M2383.12 1077.64H2382.66C2382.17 1077.54 2381.7 1077.35 2381.29 1077.07C2380.88 1076.79 2380.52 1076.43 2380.25 1076.01C2379.97 1075.6 2379.78 1075.13 2379.68 1074.64C2379.59 1074.15 2379.59 1073.64 2379.69 1073.15C2407.69 934.754 2560.4 808.071 2597.6 795.136C2598.61 794.803 2599.71 794.885 2600.66 795.363C2601.61 795.841 2602.33 796.676 2602.66 797.685C2603 798.694 2602.91 799.794 2602.44 800.743C2601.96 801.692 2601.12 802.412 2600.11 802.745C2563.74 815.375 2414.54 939.7 2387.07 1075.06C2386.79 1075.86 2386.25 1076.55 2385.53 1077.02C2384.82 1077.49 2383.97 1077.71 2383.12 1077.64Z" fill="white"/>
<path d="M373.076 1028.57C373.448 1021.71 375.433 1015.03 378.87 1009.08C382.308 1003.13 387.1 998.077 392.859 994.329L1404.12 410.445C1410.24 407.367 1417.01 405.764 1423.86 405.764C1430.72 405.764 1437.48 407.367 1443.61 410.445L1465.9 423.38C1471.67 427.115 1476.47 432.166 1479.91 438.118C1483.35 444.07 1485.33 450.753 1485.68 457.618V1232.78C1485.29 1239.64 1483.3 1246.31 1479.86 1252.25C1476.43 1258.2 1471.64 1263.26 1465.9 1267.02L454.64 1850.83C448.511 1853.94 441.733 1855.57 434.858 1855.57C427.983 1855.57 421.205 1853.94 415.076 1850.83L392.859 1837.97C387.109 1834.21 382.323 1829.16 378.886 1823.21C375.45 1817.26 373.46 1810.59 373.076 1803.73V1028.57Z" fill="#DFBDB9"/>
<path opacity="0.3" d="M373.076 1028.57C373.448 1021.71 375.433 1015.03 378.87 1009.08C382.308 1003.13 387.1 998.077 392.859 994.329L1404.12 410.445C1410.24 407.367 1417.01 405.764 1423.86 405.764C1430.72 405.764 1437.48 407.367 1443.61 410.445L1465.9 423.38C1471.67 427.115 1476.47 432.166 1479.91 438.118C1483.35 444.07 1485.33 450.753 1485.68 457.618V1232.78C1485.29 1239.64 1483.3 1246.31 1479.86 1252.25C1476.43 1258.2 1471.64 1263.26 1465.9 1267.02L454.64 1850.83C448.511 1853.94 441.733 1855.57 434.858 1855.57C427.983 1855.57 421.205 1853.94 415.076 1850.83L392.859 1837.97C387.109 1834.21 382.323 1829.16 378.886 1823.21C375.45 1817.26 373.46 1810.59 373.076 1803.73V1028.57Z" fill="black"/>
<path d="M465.749 1059.31L378.859 1009.09C375.307 1014.99 373.316 1021.69 373.076 1028.57V1803.73C373.46 1810.59 375.45 1817.26 378.886 1823.21C382.323 1829.16 387.109 1834.21 392.859 1837.97L415.076 1850.83C421.205 1853.94 427.983 1855.57 434.858 1855.57C441.733 1855.57 448.511 1853.94 454.64 1850.83L465.749 1844.44V1059.31Z" fill="#DFBDB9"/>
<path opacity="0.5" d="M465.749 1059.31L378.859 1009.09C375.307 1014.99 373.316 1021.69 373.076 1028.57V1803.73C373.46 1810.59 375.45 1817.26 378.886 1823.21C382.323 1829.16 387.109 1834.21 392.859 1837.97L415.076 1850.83C421.205 1853.94 427.983 1855.57 434.858 1855.57C441.733 1855.57 448.511 1853.94 454.64 1850.83L465.749 1844.44V1059.31Z" fill="black"/>
<path d="M1485.68 457.618V1232.78C1485.42 1239.88 1483.3 1246.78 1479.52 1252.79C1476.6 1257.86 1472.66 1262.26 1467.95 1265.73L1467.19 1266.18L1465.9 1267.02L454.64 1850.83C452.705 1852.19 450.456 1853.05 448.101 1853.32C445.747 1853.58 443.364 1853.25 441.173 1852.35C439.066 1851.02 437.364 1849.14 436.25 1846.92C435.137 1844.69 434.655 1842.2 434.858 1839.72V1064.25C434.685 1061.48 435.189 1058.7 436.325 1056.16C437.461 1053.62 439.196 1051.4 441.38 1049.68C443.564 1047.96 446.133 1046.79 448.867 1046.28C451.6 1045.77 454.417 1045.93 457.075 1046.75L882.319 1147.87L938.014 1161.11C944.588 1162.34 951.373 1161.75 957.636 1159.4C963.899 1157.06 969.401 1153.04 973.546 1147.79L1038.07 1057.94L1472.37 453.281C1479.67 443.086 1485.68 444.988 1485.68 457.618Z" fill="#DFBDB9"/>
<path opacity="0.2" d="M1485.68 457.618V1232.78C1485.42 1239.88 1483.3 1246.78 1479.52 1252.79C1476.6 1257.86 1472.66 1262.26 1467.95 1265.73L1467.19 1266.18L1465.9 1267.02L454.64 1850.83C452.705 1852.19 450.456 1853.05 448.101 1853.32C445.747 1853.58 443.364 1853.25 441.173 1852.35C439.066 1851.02 437.364 1849.14 436.25 1846.92C435.137 1844.69 434.655 1842.2 434.858 1839.72V1064.25C434.685 1061.48 435.189 1058.7 436.325 1056.16C437.461 1053.62 439.196 1051.4 441.38 1049.68C443.564 1047.96 446.133 1046.79 448.867 1046.28C451.6 1045.77 454.417 1045.93 457.075 1046.75L882.319 1147.87L938.014 1161.11C944.588 1162.34 951.373 1161.75 957.636 1159.4C963.899 1157.06 969.401 1153.04 973.546 1147.79L1038.07 1057.94L1472.37 453.281C1479.67 443.086 1485.68 444.988 1485.68 457.618Z" fill="black"/>
<path d="M1465.9 1267.02L1467.19 1266.18L1467.95 1265.73C1472.66 1262.26 1476.6 1257.86 1479.52 1252.79C1483.26 1246.87 1485.38 1240.08 1485.68 1233.09L1038.07 1058.09L1337.85 1341.13L1465.9 1267.02Z" fill="#DFBDB9"/>
<path opacity="0.6" d="M1465.9 1267.02L1467.19 1266.18L1467.95 1265.73C1472.66 1262.26 1476.6 1257.86 1479.52 1252.79C1483.26 1246.87 1485.38 1240.08 1485.68 1233.09L1038.07 1058.09L1337.85 1341.13L1465.9 1267.02Z" fill="black"/>
<path d="M434.859 1839.72C434.568 1842.25 434.991 1844.81 436.081 1847.11C437.17 1849.41 438.882 1851.35 441.022 1852.73C443.213 1853.63 445.596 1853.96 447.95 1853.7C450.305 1853.43 452.554 1852.58 454.489 1851.21L802.81 1649.51L882.32 1147.34L434.859 1826.56V1839.72Z" fill="#DFBDB9"/>
<path opacity="0.6" d="M434.859 1839.72C434.568 1842.25 434.991 1844.81 436.081 1847.11C437.17 1849.41 438.882 1851.35 441.022 1852.73C443.213 1853.63 445.596 1853.96 447.95 1853.7C450.305 1853.43 452.554 1852.58 454.489 1851.21L802.81 1649.51L882.32 1147.34L434.859 1826.56V1839.72Z" fill="black"/>
<path d="M1479.52 1252.79C1476.6 1257.86 1472.66 1262.26 1467.95 1265.73L1467.19 1266.18L454.641 1850.83C452.706 1852.2 450.457 1853.05 448.103 1853.32C445.748 1853.58 443.365 1853.25 441.174 1852.35L925.461 1079.24C935.194 1063.76 950.18 1052.29 967.675 1046.96C985.169 1041.62 1004 1042.76 1020.72 1050.18L1479.52 1252.79Z" fill="#DFBDB9"/>
<path opacity="0.2" d="M1479.52 1252.79C1476.6 1257.86 1472.66 1262.26 1467.95 1265.73L1467.19 1266.18L454.641 1850.83C452.706 1852.2 450.457 1853.05 448.103 1853.32C445.748 1853.58 443.365 1853.25 441.174 1852.35L925.461 1079.24C935.194 1063.76 950.18 1052.29 967.675 1046.96C985.169 1041.62 1004 1042.76 1020.72 1050.18L1479.52 1252.79Z" fill="black"/>
<path d="M434.857 1041.43L899.971 1246.86C916.717 1254.25 935.568 1255.36 953.065 1249.98C970.562 1244.6 985.532 1233.09 995.231 1217.56L1483.63 435.934L434.857 1041.43Z" fill="#DFBDB9"/>
<path opacity="0.6" d="M434.857 1041.43L899.971 1246.86C916.717 1254.25 935.568 1255.36 953.065 1249.98C970.562 1244.6 985.532 1233.09 995.231 1217.56L1483.63 435.934L434.857 1041.43Z" fill="black"/>
<path d="M434.857 1041.43L903.243 1216.42C919.429 1222.47 937.19 1222.82 953.604 1217.43C970.019 1212.03 984.109 1201.22 993.557 1186.75L1483.63 435.934L434.857 1041.43Z" fill="#DFBDB9"/>
<path opacity="0.2" d="M434.857 1041.43L903.243 1216.42C919.429 1222.47 937.19 1222.82 953.604 1217.43C970.019 1212.03 984.109 1201.22 993.557 1186.75L1483.63 435.934L434.857 1041.43Z" fill="black"/>
<path d="M545.791 1124.06C546.145 1117.19 548.122 1110.51 551.561 1104.55C555 1098.6 559.802 1093.55 565.573 1089.82L1576.83 505.933C1582.96 502.818 1589.74 501.195 1596.61 501.195C1603.49 501.195 1610.27 502.818 1616.4 505.933L1638.69 518.791C1644.43 522.548 1649.21 527.606 1652.64 533.555C1656.06 539.504 1658.03 546.176 1658.4 553.03V1328.19C1658.02 1335.04 1656.04 1341.71 1652.62 1347.66C1649.2 1353.61 1644.43 1358.67 1638.69 1362.43L627.355 1946.24C621.229 1949.32 614.467 1950.92 607.611 1950.92C600.754 1950.92 593.993 1949.32 587.867 1946.24L565.573 1933.38C559.828 1929.62 555.045 1924.56 551.609 1918.62C548.173 1912.67 546.181 1906 545.791 1899.14V1124.06Z" fill="#455A64"/>
<path d="M545.791 1124.06C546.145 1117.19 548.122 1110.51 551.561 1104.55C555 1098.6 559.802 1093.55 565.573 1089.82L1576.83 505.933C1582.96 502.818 1589.74 501.195 1596.61 501.195C1603.49 501.195 1610.27 502.818 1616.4 505.933L1638.69 518.791C1644.43 522.548 1649.21 527.606 1652.64 533.555C1656.06 539.504 1658.03 546.176 1658.4 553.03V1328.19C1658.02 1335.04 1656.04 1341.71 1652.62 1347.66C1649.2 1353.61 1644.43 1358.67 1638.69 1362.43L627.355 1946.24C621.229 1949.32 614.467 1950.92 607.611 1950.92C600.754 1950.92 593.993 1949.32 587.867 1946.24L565.573 1933.38C559.828 1929.62 555.045 1924.56 551.609 1918.62C548.173 1912.67 546.181 1906 545.791 1899.14V1124.06Z" fill="#455A64"/>
<path d="M638.54 1154.95L551.574 1104.81C548.012 1110.7 546.021 1117.4 545.791 1124.28V1899.22C546.181 1906.08 548.173 1912.75 551.609 1918.69C555.045 1924.64 559.828 1929.7 565.573 1933.46L587.867 1946.32C593.993 1949.39 600.754 1951 607.611 1951C614.467 1951 621.229 1949.39 627.355 1946.32L638.54 1939.85V1154.95Z" fill="#263238"/>
<path d="M1658.47 553.03V1328.19C1658.22 1335.29 1656.09 1342.19 1652.31 1348.2C1649.39 1353.27 1645.45 1357.67 1640.75 1361.14L1639.98 1361.6L1638.69 1362.43L627.432 1946.24C625.497 1947.61 623.248 1948.46 620.894 1948.73C618.54 1948.99 616.156 1948.66 613.965 1947.76C611.825 1946.39 610.113 1944.44 609.024 1942.14C607.935 1939.84 607.511 1937.28 607.802 1934.75V1159.66C607.63 1156.89 608.134 1154.11 609.27 1151.57C610.406 1149.04 612.14 1146.81 614.324 1145.09C616.509 1143.37 619.078 1142.21 621.811 1141.7C624.545 1141.19 627.361 1141.35 630.019 1142.16L1055.26 1243.28L1110.96 1256.52C1117.53 1257.75 1124.32 1257.16 1130.58 1254.82C1136.84 1252.47 1142.35 1248.45 1146.49 1243.21L1210.94 1153.35L1645.23 548.693C1652.23 538.65 1658.47 540.4 1658.47 553.03Z" fill="#37474F"/>
<path d="M1638.69 1362.43L1639.98 1361.6L1640.75 1361.14C1645.45 1357.67 1649.39 1353.27 1652.31 1348.2C1656 1342.3 1658.1 1335.53 1658.4 1328.57L1210.86 1153.58L1510.56 1436.46L1638.69 1362.43Z" fill="#263238"/>
<path d="M607.65 1934.83C607.359 1937.36 607.783 1939.91 608.872 1942.21C609.961 1944.51 611.673 1946.46 613.813 1947.84C616.005 1948.74 618.388 1949.07 620.742 1948.8C623.096 1948.54 625.345 1947.68 627.28 1946.32L975.45 1745.3L1054.96 1243.13L607.498 1921.82L607.65 1934.83Z" fill="#263238"/>
<path d="M1652.23 1348.2C1649.31 1353.27 1645.37 1357.67 1640.67 1361.14L1639.91 1361.6L627.432 1946.24C625.497 1947.61 623.248 1948.46 620.894 1948.73C618.539 1949 616.156 1948.66 613.965 1947.76L1098.18 1174.73C1107.89 1159.22 1122.86 1147.72 1140.36 1142.36C1157.85 1136.99 1176.7 1138.11 1193.44 1145.51L1652.23 1348.2Z" fill="#37474F"/>
<path d="M607.648 1136.91L1072.76 1342.35C1089.5 1349.72 1108.33 1350.81 1125.81 1345.44C1143.29 1340.06 1158.25 1328.56 1167.95 1313.05L1656.34 531.041L607.648 1136.91Z" fill="#263238"/>
<path d="M607.648 1136.91L1075.96 1311.91C1092.15 1317.97 1109.93 1318.34 1126.36 1312.94C1142.79 1307.55 1156.9 1296.72 1166.35 1282.24L1656.34 531.041L607.648 1136.91Z" fill="#37474F"/>
<path d="M1287.55 1739.36V964.199C1288.26 949.492 1292.85 935.236 1300.87 922.884L1783.18 251.273C1791.98 239.003 1804.23 229.629 1818.38 224.345C1832.52 219.061 1847.92 218.105 1862.61 221.6L2316.16 329.413C2330.77 333.304 2344.87 338.923 2358.16 346.152L2380.45 359.011C2386.18 362.781 2390.95 367.842 2394.37 373.788C2397.8 379.734 2399.78 386.4 2400.16 393.25V1168.41C2399.76 1175.26 2397.78 1181.92 2394.36 1187.87C2390.94 1193.81 2386.17 1198.87 2380.45 1202.65L1369.12 1786.46C1363 1789.56 1356.23 1791.17 1349.37 1791.17C1342.51 1791.17 1335.75 1789.56 1329.63 1786.46L1307.34 1773.6C1301.59 1769.84 1296.8 1764.79 1293.36 1758.84C1289.93 1752.89 1287.94 1746.22 1287.55 1739.36Z" fill="#DFBDB9"/>
<path opacity="0.3" d="M1287.55 1739.36V964.199C1288.26 949.492 1292.85 935.236 1300.87 922.884L1783.18 251.273C1791.98 239.003 1804.23 229.629 1818.38 224.345C1832.52 219.061 1847.92 218.105 1862.61 221.6L2316.16 329.413C2330.77 333.304 2344.87 338.923 2358.16 346.152L2380.45 359.011C2386.18 362.781 2390.95 367.842 2394.37 373.788C2397.8 379.734 2399.78 386.4 2400.16 393.25V1168.41C2399.76 1175.26 2397.78 1181.92 2394.36 1187.87C2390.94 1193.81 2386.17 1198.87 2380.45 1202.65L1369.12 1786.46C1363 1789.56 1356.23 1791.17 1349.37 1791.17C1342.51 1791.17 1335.75 1789.56 1329.63 1786.46L1307.34 1773.6C1301.59 1769.84 1296.8 1764.79 1293.36 1758.84C1289.93 1752.89 1287.94 1746.22 1287.55 1739.36Z" fill="white"/>
<path d="M1380.23 589.551V1578.67C1380.23 1591.22 1389.13 1596.4 1400.01 1590.08L2349.49 1042.26C2355.25 1038.52 2360.04 1033.47 2363.48 1027.52C2366.92 1021.56 2368.9 1014.89 2369.27 1008.02V18.9064C2369.27 6.27617 2360.44 1.17841 2349.49 7.49355L1400.01 555.313C1394.25 559.061 1389.46 564.116 1386.02 570.065C1382.58 576.014 1380.6 582.69 1380.23 589.551Z" fill="#FAFAFA"/>
<path d="M1391.18 1596.7C1388.73 1596.72 1386.31 1596.09 1384.18 1594.88C1381.58 1593.14 1379.5 1590.73 1378.16 1587.9C1376.82 1585.07 1376.27 1581.94 1376.57 1578.82V589.704C1376.94 582.165 1379.09 574.821 1382.86 568.283C1386.63 561.746 1391.91 556.203 1398.26 552.117L2347.74 4.29809C2350.21 2.27936 2353.25 1.06255 2356.43 0.809291C2359.62 0.556028 2362.81 1.2783 2365.58 2.88019C2368.34 4.48208 2370.55 6.88773 2371.92 9.77751C2373.29 12.6673 2373.74 15.9044 2373.22 19.0588V1008.18C2372.87 1015.71 2370.72 1023.04 2366.94 1029.57C2363.17 1036.09 2357.89 1041.62 2351.54 1045.69L1402.06 1593.51C1398.78 1595.52 1395.03 1596.62 1391.18 1596.7ZM2358.31 8.17849C2355.85 8.31905 2353.47 9.07804 2351.39 10.385L1401.91 558.584C1396.74 562.015 1392.44 566.596 1389.34 571.969C1386.23 577.342 1384.42 583.36 1384.03 589.551V1578.67C1383.57 1580.45 1383.71 1582.34 1384.43 1584.04C1385.14 1585.73 1386.39 1587.15 1387.98 1588.07C1389.58 1588.99 1391.43 1589.37 1393.26 1589.14C1395.09 1588.91 1396.79 1588.1 1398.11 1586.81L2347.58 1038.99C2352.76 1035.57 2357.06 1030.98 2360.17 1025.61C2363.27 1020.24 2365.08 1014.22 2365.46 1008.02V18.9066C2365.68 17.1223 2365.43 15.3126 2364.76 13.6485C2364.08 11.9844 2362.99 10.5209 2361.58 9.3959C2360.62 8.70132 2359.49 8.28053 2358.31 8.17849Z" fill="#E0E0E0"/>
<path d="M1359.76 983.069L1291.28 943.504C1289.06 950.188 1287.83 957.16 1287.63 964.199V1739.36C1288.01 1746.22 1290 1752.89 1293.44 1758.84C1296.88 1764.79 1301.66 1769.84 1307.41 1773.6L1329.63 1786.46C1335.74 1789.57 1342.51 1791.2 1349.37 1791.2C1356.24 1791.2 1363 1789.57 1369.12 1786.46L1378.63 1781.06L1359.76 983.069Z" fill="#DFBDB9"/>
<g opacity="0.1">
<path d="M1359.76 983.069L1291.28 943.504C1289.06 950.188 1287.83 957.16 1287.63 964.199V1739.36C1288.01 1746.22 1290 1752.89 1293.44 1758.84C1296.88 1764.79 1301.66 1769.84 1307.41 1773.6L1329.63 1786.46C1335.74 1789.57 1342.51 1791.2 1349.37 1791.2C1356.24 1791.2 1363 1789.57 1369.12 1786.46L1378.63 1781.06L1359.76 983.069Z" fill="black"/>
</g>
<path d="M2400.24 393.25V1168.41C2399.98 1175.51 2397.85 1182.41 2394.07 1188.42C2391.15 1193.49 2387.21 1197.89 2382.51 1201.36L2381.75 1201.82L2380.45 1202.65L1369.19 1786.46C1367.26 1787.83 1365.01 1788.68 1362.66 1788.95C1360.3 1789.21 1357.92 1788.88 1355.73 1787.98C1353.59 1786.61 1351.87 1784.66 1350.79 1782.36C1349.7 1780.06 1349.27 1777.5 1349.56 1774.97V999.883C1349.39 997.108 1349.9 994.332 1351.03 991.794C1352.17 989.256 1353.9 987.031 1356.09 985.311C1358.27 983.59 1360.84 982.425 1363.57 981.915C1366.31 981.405 1369.12 981.566 1371.78 982.383L1796.8 1083.5L1852.49 1096.74C1859.08 1097.99 1865.88 1097.4 1872.16 1095.06C1878.43 1092.71 1883.95 1088.69 1888.1 1083.43L1952.62 993.568L2386.92 388.913C2394.22 378.87 2400.24 380.619 2400.24 393.25Z" fill="#DFBDB9"/>
<path opacity="0.3" d="M2400.24 393.25V1168.41C2399.98 1175.51 2397.85 1182.41 2394.07 1188.42C2391.15 1193.49 2387.21 1197.89 2382.51 1201.36L2381.75 1201.82L2380.45 1202.65L1369.19 1786.46C1367.26 1787.83 1365.01 1788.68 1362.66 1788.95C1360.3 1789.21 1357.92 1788.88 1355.73 1787.98C1353.59 1786.61 1351.87 1784.66 1350.79 1782.36C1349.7 1780.06 1349.27 1777.5 1349.56 1774.97V999.883C1349.39 997.108 1349.9 994.332 1351.03 991.794C1352.17 989.256 1353.9 987.031 1356.09 985.311C1358.27 983.59 1360.84 982.425 1363.57 981.915C1366.31 981.405 1369.12 981.566 1371.78 982.383L1796.8 1083.5L1852.49 1096.74C1859.08 1097.99 1865.88 1097.4 1872.16 1095.06C1878.43 1092.71 1883.95 1088.69 1888.1 1083.43L1952.62 993.568L2386.92 388.913C2394.22 378.87 2400.24 380.619 2400.24 393.25Z" fill="white"/>
<path d="M2380.45 1202.65L2381.75 1201.81L2382.51 1201.36C2387.21 1197.89 2391.15 1193.49 2394.07 1188.42C2397.77 1182.49 2399.87 1175.7 2400.16 1168.72L1952.62 993.72L2252.32 1276.68L2380.45 1202.65Z" fill="#DFBDB9"/>
<path d="M1349.41 1775.05C1349.12 1777.58 1349.54 1780.13 1350.63 1782.43C1351.72 1784.73 1353.43 1786.68 1355.57 1788.06C1357.77 1788.96 1360.15 1789.29 1362.5 1789.02C1364.86 1788.76 1367.11 1787.9 1369.04 1786.54L1717.21 1585.52L1796.72 1083.35L1349.26 1762.04L1349.41 1775.05Z" fill="#DFBDB9"/>
<path d="M2394.07 1188.42C2391.15 1193.49 2387.21 1197.89 2382.51 1201.36L2381.75 1201.81L1369.19 1786.46C1367.26 1787.83 1365.01 1788.68 1362.66 1788.95C1360.3 1789.21 1357.92 1788.88 1355.73 1787.98L1839.94 1014.95C1849.65 999.454 1864.61 987.974 1882.09 982.608C1899.57 977.243 1918.39 978.351 1935.12 985.731L2394.07 1188.42Z" fill="#DFBDB9"/>
<path opacity="0.3" d="M2394.07 1188.42C2391.15 1193.49 2387.21 1197.89 2382.51 1201.36L2381.75 1201.81L1369.19 1786.46C1367.26 1787.83 1365.01 1788.68 1362.66 1788.95C1360.3 1789.21 1357.92 1788.88 1355.73 1787.98L1839.94 1014.95C1849.65 999.454 1864.61 987.974 1882.09 982.608C1899.57 977.243 1918.39 978.351 1935.12 985.731L2394.07 1188.42Z" fill="white"/>
<path d="M1798.32 817.353C1789.44 818.726 1780.36 817.92 1771.87 815.004C1763.37 812.088 1755.71 807.149 1749.55 800.614C1737.98 787.755 1732.2 767.897 1732.2 741.19C1732.22 711.058 1738.68 681.277 1751.14 653.844C1763.94 625.615 1781.61 599.86 1803.34 577.758C1826.7 553.53 1853.34 532.684 1882.47 515.824C1911.03 499.389 1935.4 490.284 1955.59 488.509C1975.9 486.683 1991.2 491.933 2001.7 504.107C2012.2 516.28 2017.37 534.921 2017.37 559.878C2017.81 584.628 2011.95 609.084 2000.33 630.942C1990.09 650.737 1974.48 667.245 1955.28 678.572C1948.66 683.279 1940.54 685.391 1932.46 684.506C1929.58 683.938 1926.93 682.551 1924.83 680.513C1922.72 678.475 1921.25 675.872 1920.59 673.018C1914.25 685.001 1906.2 695.997 1896.7 705.658C1887.08 715.582 1876.12 724.111 1864.13 730.995C1843.44 742.712 1826.93 746.212 1814.75 742.18C1802.58 738.147 1796.8 725.821 1796.8 705.278C1796.97 679.462 1804.93 654.298 1819.62 633.072C1835.62 609.541 1856.88 590.057 1881.71 576.16C1892.08 569.984 1903.35 565.466 1915.11 562.769C1923.85 560.399 1933.07 560.399 1941.82 562.769V642.887C1941.82 649.355 1942.96 653.311 1945.16 654.833C1947.37 656.355 1951.02 655.594 1956.2 652.626C1965.83 646.357 1972.97 636.907 1976.36 625.92C1981.5 611.08 1983.95 595.439 1983.59 579.736C1983.59 559.751 1979.22 545.218 1970.5 536.139C1965.84 531.581 1960.15 528.207 1953.92 526.301C1947.68 524.394 1941.08 524.011 1934.66 525.182C1916.09 528.02 1898.3 534.651 1882.39 544.66C1848.75 563.321 1819.75 589.328 1797.56 620.746C1777.04 650.231 1766.15 685.338 1766.36 721.256C1766.36 743.118 1770.85 759.071 1779.83 769.114C1784.48 774.141 1790.31 777.939 1796.79 780.169C1803.27 782.4 1810.2 782.993 1816.96 781.897C1835.89 779.214 1854.05 772.55 1870.22 762.342C1881.38 755.886 1891.95 748.451 1901.79 740.125C1910.96 732.556 1919.3 724.038 1926.68 714.713C1927.44 713.731 1928.33 712.86 1929.34 712.126C1930.02 711.745 1930.71 712.126 1931.32 713.039L1939.69 728.256C1939.99 728.859 1940.22 729.498 1940.37 730.158C1940.1 731.853 1939.27 733.408 1938.01 734.571C1928.82 745.624 1918.63 755.812 1907.58 765.005C1895.94 774.769 1883.49 783.525 1870.37 791.179C1848.51 804.982 1823.94 813.909 1798.32 817.353ZM1897.23 674.311C1904.47 665.763 1908.7 655.067 1909.25 643.877V597.464C1898.39 598.381 1887.93 601.99 1878.82 607.964C1864.3 616.128 1851.94 627.63 1842.75 641.518C1834.13 654.259 1829.5 669.276 1829.44 684.659C1829.44 697.517 1832.63 705.202 1839.1 707.484C1845.57 709.767 1855.53 707.484 1869.15 699.343C1880.18 692.964 1889.83 684.455 1897.53 674.311H1897.23Z" fill="#E0E0E0"/>
<path d="M829.288 893.591L755.104 850.603H754.571C729.235 836.298 694.311 838.429 655.66 860.722C577.976 905.537 515.053 1014.57 515.053 1104.2C515.053 1149.01 530.726 1180.28 556.063 1195.5L625.073 1234.99L637.551 1214.22C651.703 1211.05 665.297 1205.76 677.877 1198.54C755.484 1153.65 818.484 1044.62 818.484 955.069C818.442 942.965 816.96 930.91 814.071 919.156L829.288 893.591Z" fill="#F28F8F"/>
<path d="M829.288 893.591L755.104 850.603H754.571C729.235 836.298 694.311 838.429 655.66 860.722C577.976 905.537 515.053 1014.57 515.053 1104.2C515.053 1149.01 530.726 1180.28 556.063 1195.5L625.073 1234.99L637.551 1214.22C651.703 1211.05 665.297 1205.76 677.877 1198.54C755.484 1153.65 818.484 1044.62 818.484 955.069C818.442 942.965 816.96 930.91 814.071 919.156L829.288 893.591Z" fill="#DFBDB9"/>
<path opacity="0.4" d="M829.288 893.591L755.104 850.603H754.571C729.235 836.298 694.311 838.429 655.66 860.722C577.976 905.537 515.053 1014.57 515.053 1104.2C515.053 1149.01 530.726 1180.28 556.063 1195.5L625.073 1234.99L637.551 1214.22C651.703 1211.05 665.297 1205.76 677.877 1198.54C755.484 1153.65 818.484 1044.62 818.484 955.069C818.442 942.965 816.96 930.91 814.071 919.156L829.288 893.591Z" fill="black"/>
<path d="M726.953 901.581C649.269 946.471 586.346 1055.5 586.346 1145.06C586.346 1234.61 649.269 1271.05 726.953 1226.24C804.636 1181.42 867.559 1072.39 867.559 982.764C867.559 893.135 804.636 856.766 726.953 901.581Z" fill="#DFBDB9"/>
<path d="M672.019 1166.51C670.573 1166.51 669.812 1165.67 669.812 1164.38C669.962 1162.95 670.375 1161.56 671.03 1160.27L678.106 1144.37C678.574 1142.81 679.503 1141.43 680.769 1140.41C681.822 1139.94 682.961 1139.68 684.117 1139.65C690.448 1139.28 696.696 1138.02 702.682 1135.92C710.641 1133.24 718.292 1129.72 725.507 1125.42C736.733 1119.34 746.578 1111 754.42 1100.93C760.302 1093.3 763.582 1084 763.779 1074.37C763.779 1057.56 753.507 1055.12 732.964 1066.76L712.953 1078.86C709.682 1080.69 707.399 1081.37 706.029 1080.76C704.66 1080.15 703.975 1078.33 703.975 1075.28V1068.97C703.867 1066.28 704.584 1063.63 706.029 1061.36C707.862 1058.89 710.228 1056.86 712.953 1055.43L732.812 1043.94C740.769 1039.61 747.517 1033.36 752.442 1025.75C756.569 1019.37 758.835 1011.97 758.985 1004.37C758.985 988.09 747.522 986.568 724.594 999.807C710.495 1007.84 697.799 1018.12 687.008 1030.24C685.994 1031.39 684.873 1032.43 683.66 1033.36C683.212 1033.57 682.706 1033.63 682.223 1033.52C681.74 1033.41 681.308 1033.14 680.997 1032.75L674.226 1025.14C673.848 1024.79 673.545 1024.37 673.336 1023.9C673.126 1023.43 673.015 1022.92 673.008 1022.4C673.162 1020.66 673.915 1019.02 675.139 1017.76C681.879 1009.33 689.534 1001.68 697.964 994.937C707.781 986.938 718.24 979.762 729.236 973.481C739.163 967.303 750.114 962.948 761.572 960.623C765.178 959.744 768.932 959.663 772.573 960.386C776.213 961.108 779.652 962.617 782.648 964.807C785.35 967.412 787.435 970.589 788.752 974.104C790.068 977.618 790.582 981.383 790.257 985.122C790.085 993.499 788.222 1001.76 784.778 1009.39C781.101 1018.21 775.956 1026.34 769.561 1033.44C772.845 1032.34 776.355 1032.09 779.762 1032.71C783.168 1033.34 786.36 1034.82 789.039 1037.01C791.384 1039.74 793.163 1042.91 794.273 1046.33C795.383 1049.75 795.802 1053.36 795.507 1056.95C794.925 1073.81 789.011 1090.06 778.615 1103.36C765.854 1120.48 749.558 1134.64 730.833 1144.9C704.051 1160.58 684.446 1167.78 672.019 1166.51Z" fill="white"/>
<path d="M2267.54 1992.58L2268.99 1991.28C2270.05 1990.37 2271.19 1989.46 2272.18 1988.47L2275.61 1985.12L2279.03 1981.85C2281.03 1979.97 2282.94 1977.99 2284.74 1975.91L2311.82 1996.15L2329.85 2009.62C2323.29 2016.73 2317.94 2024.88 2314.03 2033.74C2314.03 2033.74 2308.63 2042.49 2290.29 2038.08C2267.62 2032.83 2264.04 1999.5 2267.54 1992.58Z" fill="#FFA8A7"/>
<path d="M2002.23 1983.29C1981.53 1959.25 1999.95 1919.31 2020.03 1867.49C2042.1 1810.5 2076.18 1713.65 2076.18 1713.65L2318.21 1663.66C2318.21 1663.66 2576.07 1658.71 2599.73 1708.02C2618.9 1747.5 2449.08 1806.93 2424.73 1809.06L2275.68 1816.89L2260.01 1824.5L2155.31 1956.97L2002.23 1983.29Z" fill="#DFBDB9"/>
<path d="M2448.17 1748.42C2429.37 1767.53 2411.86 1787.87 2395.74 1809.29C2352.15 1870.16 2283.14 1980.71 2283.14 1980.71C2283.14 1980.71 2293.86 2015.71 2326.81 2014.19C2326.81 2014.19 2553.55 1802.44 2572.11 1782.88C2600.19 1753.21 2622.71 1704.29 2574.17 1700.26C2525.62 1696.22 2467.04 1728.03 2448.17 1748.42Z" fill="#DFBDB9"/>
<path d="M2394.53 1810.5C2394.53 1810.5 2435.01 1751.31 2476.93 1726.81C2476.93 1726.81 2435.23 1735.03 2372.08 1811.87L2394.53 1810.5Z" fill="#DFBDB9"/>
<path opacity="0.1" d="M2394.53 1810.5C2394.53 1810.5 2435.01 1751.31 2476.93 1726.81C2476.93 1726.81 2435.23 1735.03 2372.08 1811.87L2394.53 1810.5Z" fill="black"/>
<path d="M2422.07 1885.37L2406.17 1888.41L2420.93 1942.97C2420.93 1942.97 2435.23 1941.6 2440.18 1941.9C2447.38 1940.19 2454.32 1937.51 2460.8 1933.91L2456.99 1900.59L2439.49 1882.33L2422.07 1885.37Z" fill="#FFA8A7"/>
<path d="M2547.61 1898.23C2555.2 1901.29 2562.08 1905.88 2567.81 1911.72C2573.55 1917.56 2578.02 1924.52 2580.94 1932.16C2584.33 1940.16 2587.1 1948.4 2589.23 1956.82C2591.74 1965.64 2590.52 1980.63 2579.34 1983.07C2575.7 1983.49 2572.02 1982.83 2568.76 1981.16C2546.32 1972.49 2524.41 1962.45 2501.43 1955.14C2481.74 1947.85 2461.12 1943.37 2440.18 1941.83C2444.94 1934.5 2447.32 1925.88 2446.99 1917.15C2446.66 1908.42 2443.65 1900.01 2438.35 1893.06C2433.85 1888.89 2428.16 1886.23 2422.07 1885.45C2427.85 1882.86 2433.26 1879.51 2438.81 1876.39C2449.15 1869.16 2461.82 1866.04 2474.34 1867.64C2483.93 1869.7 2491.23 1877.31 2499.37 1882.86C2514.9 1892.98 2529.88 1892.3 2547.61 1898.23Z" fill="#263238"/>
<path d="M2034.87 1931.02C2054.88 1924.86 2086.84 1919.38 2181.64 1914.51C2276.44 1909.64 2406.17 1888.34 2406.17 1888.34C2428.23 1909.57 2420.93 1942.89 2420.93 1942.89C2420.93 1942.89 2252.55 1996.15 2197.69 2003.23C2110.35 2014.49 2080.22 2013.65 2040.8 2005.21C1996.52 1995.7 1968.6 1951.34 2034.87 1931.02Z" fill="#DFBDB9"/>
<path d="M2381.37 1479.45L2452.58 1649.66L2401.6 1681.01L2303.61 1515.06L2381.37 1479.45Z" fill="#F28F8F"/>
<path d="M2234.06 1319.06C2273.02 1319.52 2315.85 1333.67 2330.62 1364.18L2391.48 1489.73C2391.48 1489.73 2357.09 1540.09 2302.46 1536.52L2234.06 1319.06Z" fill="#E0E0E0"/>
<path d="M1975.07 1583.61C1975.52 1577 1985.03 1544.66 1995.23 1509.81L2069.18 1535.38L2049.33 1598L1987.01 1657.11C1973.51 1635.14 1969.22 1608.73 1975.07 1583.61Z" fill="#FFA8A7"/>
<path d="M2154.4 1321.42C2107.99 1332.61 2044.76 1347.14 2026.42 1397.51C2008.09 1447.88 1981.84 1536.82 1981.84 1536.82C1992.03 1554.47 2047.96 1569.08 2067.36 1558.89L2076.49 1528.45V1713.49C2112.78 1752.98 2291.81 1742.86 2318.52 1663.51V1411.43C2318.52 1371.11 2296.15 1322.64 2234.29 1319.06L2154.4 1321.42Z" fill="#FAFAFA"/>
<path d="M2076.26 1528.6L2099.54 1455.33L2076.26 1561.4V1528.6Z" fill="#E0E0E0"/>
<path d="M2136.75 1115.15C2132.62 1114.62 2128.42 1115.02 2124.46 1116.34C2120.51 1117.66 2116.91 1119.85 2113.92 1122.76C2104.11 1132.81 2106.31 1151.37 2113.92 1193.98L2144.36 1197.4L2136.75 1115.15Z" fill="#263238"/>
<path d="M2313.34 1102.83C2319.86 1102.86 2326.31 1101.54 2332.29 1098.95C2341.57 1093.62 2344.01 1104.2 2338.91 1113.33C2335.54 1119.91 2330.54 1125.52 2324.38 1129.62C2318.23 1133.73 2311.13 1136.18 2303.76 1136.76C2303.76 1135.47 2295.08 1113.1 2295.08 1113.1L2313.34 1102.83Z" fill="#263238"/>
<path d="M2150.98 1197.86C2146.49 1200.52 2140.02 1191.92 2134.47 1186.07C2132.29 1183.57 2129.51 1181.68 2126.4 1180.56C2123.28 1179.44 2119.93 1179.13 2116.67 1179.66C2113.4 1180.2 2110.32 1181.55 2107.73 1183.61C2105.13 1185.66 2103.1 1188.34 2101.82 1191.39C2092.62 1210.79 2113.54 1236.59 2125.79 1245.11C2129.23 1248.07 2133.52 1249.88 2138.04 1250.26C2142.56 1250.64 2147.09 1249.58 2150.98 1247.24L2154.17 1321.42C2159.6 1333.31 2167.89 1343.67 2178.3 1351.57C2188.71 1359.47 2200.91 1364.67 2213.82 1366.69C2257.34 1372.55 2248.37 1336.64 2234.06 1319.06V1291.9C2244.96 1294.23 2256.16 1294.79 2267.24 1293.58C2272.87 1292.05 2286.41 1275.7 2295.16 1257.36C2304.97 1236.82 2321.33 1200.29 2306.8 1138.44C2291.13 1072.09 2219.83 1069.96 2177.45 1096.82C2135.07 1123.68 2150.98 1197.86 2150.98 1197.86Z" fill="#FFA8A7"/>
<path d="M2150.98 1205.39C2148.69 1205.39 2140.1 1191.16 2134.47 1186.07C2126.86 1178.99 2136.75 1115.15 2136.75 1115.15C2136.75 1115.15 2129.14 1090.88 2144.36 1074.83C2159.57 1058.77 2189.4 1061.44 2211.16 1060.68C2237.82 1060.82 2264.23 1055.51 2288.77 1045.08C2319.66 1031.69 2321.94 1029.86 2325.75 1043.63C2329.55 1057.4 2331.07 1088.22 2312.66 1108.99L2302.62 1125.35C2302.62 1125.35 2293.26 1132.96 2264.57 1136.76C2235.89 1140.57 2186.74 1124.82 2180.88 1123.98C2172.51 1122.84 2170.76 1130.9 2166.27 1152.97C2162.01 1172.37 2158.59 1205.24 2150.98 1205.39Z" fill="#263238"/>
<path d="M2136.82 1120.1L2109.59 1105.49C2110.48 1103.68 2111.73 1102.07 2113.26 1100.74C2114.78 1099.42 2116.56 1098.41 2118.48 1097.78C2120.4 1097.15 2122.42 1096.91 2124.43 1097.07C2126.45 1097.23 2128.41 1097.79 2130.21 1098.72C2133.83 1100.76 2136.54 1104.12 2137.77 1108.09C2139 1112.07 2138.66 1116.36 2136.82 1120.1Z" fill="#263238"/>
<path d="M2233.99 1291.9C2233.99 1291.9 2193.66 1283.76 2179.59 1276.68C2171.3 1272.34 2164.52 1265.61 2160.11 1257.36C2162.25 1265.63 2166.02 1273.39 2171.22 1280.18C2181.49 1293.35 2233.99 1303.01 2233.99 1303.01V1291.9Z" fill="#F28F8F"/>
<path d="M2235.28 1196.34C2235.22 1197.92 2234.7 1199.45 2233.77 1200.73C2232.85 1202.02 2231.57 1203 2230.1 1203.57C2228.62 1204.13 2227.01 1204.25 2225.46 1203.9C2223.92 1203.56 2222.51 1202.77 2221.41 1201.63C2220.31 1200.49 2219.58 1199.05 2219.29 1197.5C2219 1195.94 2219.18 1194.34 2219.8 1192.88C2220.41 1191.42 2221.45 1190.18 2222.77 1189.31C2224.09 1188.44 2225.63 1187.97 2227.21 1187.97C2228.29 1187.99 2229.36 1188.22 2230.35 1188.65C2231.34 1189.08 2232.23 1189.7 2232.98 1190.48C2233.73 1191.26 2234.32 1192.18 2234.71 1193.18C2235.11 1194.19 2235.3 1195.26 2235.28 1196.34Z" fill="#263238"/>
<path d="M2226.76 1165.9L2209.41 1175.41C2208.21 1173.04 2207.96 1170.29 2208.71 1167.73C2209.46 1165.17 2211.15 1163 2213.44 1161.64C2214.59 1161.02 2215.85 1160.63 2217.15 1160.51C2218.45 1160.38 2219.77 1160.53 2221.01 1160.92C2222.26 1161.32 2223.41 1161.97 2224.39 1162.82C2225.38 1163.68 2226.19 1164.73 2226.76 1165.9Z" fill="#263238"/>
<path d="M2230.49 1250.36L2248.97 1257.36C2248.56 1258.59 2247.91 1259.73 2247.05 1260.71C2246.2 1261.69 2245.15 1262.48 2243.98 1263.05C2242.81 1263.62 2241.54 1263.94 2240.24 1264.01C2238.94 1264.08 2237.64 1263.89 2236.42 1263.45C2233.93 1262.46 2231.92 1260.54 2230.81 1258.1C2229.7 1255.66 2229.59 1252.88 2230.49 1250.36Z" fill="#F28F8F"/>
<path d="M2307.33 1172.6L2291.58 1160.43C2292.33 1159.37 2293.28 1158.47 2294.38 1157.79C2295.49 1157.12 2296.71 1156.67 2297.99 1156.47C2299.27 1156.28 2300.58 1156.35 2301.83 1156.68C2303.08 1157 2304.26 1157.58 2305.28 1158.37C2307.38 1160.03 2308.77 1162.43 2309.15 1165.07C2309.53 1167.72 2308.88 1170.42 2307.33 1172.6Z" fill="#263238"/>
<path d="M2302.46 1194.06C2302.4 1195.64 2301.88 1197.16 2300.96 1198.45C2300.04 1199.74 2298.76 1200.72 2297.28 1201.29C2295.8 1201.85 2294.19 1201.97 2292.65 1201.62C2291.1 1201.28 2289.7 1200.49 2288.6 1199.35C2287.5 1198.21 2286.76 1196.77 2286.47 1195.22C2286.19 1193.66 2286.36 1192.05 2286.98 1190.6C2287.6 1189.14 2288.63 1187.9 2289.95 1187.03C2291.27 1186.15 2292.82 1185.69 2294.4 1185.69C2295.48 1185.71 2296.54 1185.94 2297.53 1186.37C2298.52 1186.8 2299.42 1187.42 2300.17 1188.2C2300.91 1188.98 2301.5 1189.89 2301.9 1190.9C2302.29 1191.9 2302.48 1192.98 2302.46 1194.06Z" fill="#263238"/>
<path d="M2264.42 1193.07L2256.81 1241.15L2283.44 1238.03L2264.42 1193.07Z" fill="#F28F8F"/>
<path d="M2541.98 1739.14L2378.02 1644.48C2376.58 1643.66 2374.95 1643.23 2373.3 1643.23C2371.64 1643.23 2370.02 1643.66 2368.58 1644.48L2081.05 1810.5L2249.66 1908.2L2541.98 1739.14Z" fill="#37474F"/>
<path d="M2248.14 1893.97L2159.73 1842.99L2418.27 1693.71L2507.13 1744.46L2248.14 1893.97Z" fill="#263238"/>
<path d="M2204.69 1752.15L2206.37 1753.06L2249.66 1778.09L2326.74 1733.58L2328.33 1732.67L2283.37 1706.72L2204.69 1752.15Z" fill="#263238"/>
<path d="M2206.37 1753.06L2249.66 1778.09L2326.74 1733.58L2283.37 1708.55L2206.37 1753.06Z" fill="#263238"/>
<path d="M2081.05 1810.5V1814.38C2081.03 1817.13 2081.72 1819.83 2083.05 1822.23C2084.39 1824.63 2086.32 1826.65 2088.66 1828.08L2241.44 1916.26C2243.85 1917.66 2246.58 1918.39 2249.36 1918.39C2252.14 1918.39 2254.87 1917.66 2257.27 1916.26L2533.76 1756.48C2536.1 1755.04 2538.03 1753.03 2539.36 1750.63C2540.7 1748.23 2541.39 1745.53 2541.37 1742.79V1738.91L2249.66 1908.2L2081.05 1810.5Z" fill="#263238"/>
<path d="M2249.66 1908.2V1918.7C2252.34 1918.67 2254.96 1917.93 2257.27 1916.57L2533.77 1756.79C2536.1 1755.35 2538.03 1753.33 2539.36 1750.94C2540.7 1748.54 2541.39 1745.84 2541.37 1743.09V1739.21L2249.66 1908.2Z" fill="#263238"/>
<path d="M2254.15 1910.25C2256.76 1911.25 2259.57 1911.65 2262.36 1911.43C2265.15 1911.21 2267.86 1910.36 2270.28 1908.96L2545.56 1750.02C2547.95 1748.65 2550 1746.76 2551.57 1744.5C2553.13 1742.23 2554.17 1739.65 2554.61 1736.93L2585.05 1557.29C2585.12 1556.25 2585.12 1555.21 2585.05 1554.17C2585.03 1549.17 2583.03 1544.38 2579.49 1540.86L2293.41 1706.04C2291.65 1707.05 2290.14 1708.45 2288.98 1710.12C2287.82 1711.79 2287.05 1713.7 2286.71 1715.7L2254.15 1910.25Z" fill="#263238"/>
<path d="M2249.66 1908.2L2251.56 1909.26C2252.4 1909.74 2253.26 1910.17 2254.15 1910.56L2286.71 1716C2287.05 1714 2287.82 1712.09 2288.98 1710.42C2290.14 1708.75 2291.65 1707.36 2293.41 1706.34L2579.49 1541.16C2578.32 1540.07 2577.05 1539.1 2575.69 1538.27L2289.07 1703.45C2287.31 1704.47 2285.78 1705.86 2284.61 1707.53C2283.44 1709.2 2282.65 1711.1 2282.3 1713.11L2249.66 1908.2Z" fill="#455A64"/>
<path d="M2409.14 1744.31C2413.47 1729.29 2423.41 1716.51 2436.91 1708.62C2450.22 1701.02 2459.35 1704.44 2457.37 1716.23C2453.04 1731.25 2443.1 1744.03 2429.6 1751.92C2416.29 1759.91 2407.16 1756.03 2409.14 1744.31Z" fill="#37474F"/>
<path d="M2049.33 1597.84C2049.33 1597.84 2098.71 1788.06 2119.55 1801.68C2140.4 1815.3 2179.2 1825.26 2197.77 1832.11C2216.33 1838.96 2224.78 1848.32 2221.58 1850.9C2218.39 1853.49 2191.61 1856.31 2182.32 1859.58C2173.04 1862.85 2185.06 1877.84 2205.61 1893.74C2226.15 1909.64 2243.65 1908.2 2241.37 1918.77C2239.08 1929.35 2193.28 1939.93 2154.63 1917.25C2115.98 1894.58 2104.26 1863.99 2081.21 1838.05C2058.15 1812.1 2005.5 1704.29 1987.01 1657.11C1987.01 1657.11 1988.76 1569.46 2017.45 1575.02C2046.13 1580.57 2049.33 1597.84 2049.33 1597.84Z" fill="#FFA8A7"/>
<path d="M2284.28 1983.29C2287.78 1991.74 2299.88 2015.02 2326.81 2013.73L2393.01 1951.79L2284.28 1983.29Z" fill="#DFBDB9"/>
<path opacity="0.1" d="M2284.28 1983.29C2287.78 1991.74 2299.88 2015.02 2326.81 2013.73L2393.01 1951.79L2284.28 1983.29Z" fill="black"/>
<path d="M2304.29 2092.25C2303.65 2072.33 2306.93 2052.47 2313.95 2033.82C2310.76 2036.04 2307.09 2037.47 2303.23 2037.97C2299.38 2038.47 2295.46 2038.04 2291.81 2036.71C2269.67 2030.09 2264.12 1999.2 2267.62 1992.5C2264.42 1995.32 2261.07 1997.98 2257.8 2000.72C2247.31 2007.76 2239.84 2018.49 2236.88 2030.77C2235.36 2040.44 2239.84 2049.95 2242.05 2059.53C2246.31 2077.79 2242.05 2096.82 2241.37 2115.53C2241.52 2123.7 2243.35 2131.75 2246.74 2139.18C2250.13 2146.62 2255.01 2153.28 2261.07 2158.75C2267.31 2164.83 2274.03 2170.41 2281.16 2175.41C2283.75 2178.33 2287.19 2180.37 2290.99 2181.25C2294.8 2182.14 2298.78 2181.82 2302.4 2180.34C2306.01 2178.86 2309.08 2176.3 2311.18 2173C2313.27 2169.71 2314.3 2165.85 2314.1 2161.95C2311.21 2138.21 2305.66 2116.98 2304.29 2092.25Z" fill="#263238"/>
<path d="M2329.4 2009.77C2327.34 2013.65 2325.52 2017.38 2323.92 2021.11C2325.82 2017.46 2327.65 2013.65 2329.4 2009.77Z" fill="#37474F"/>
</svg>
