<?xml version="1.0" encoding="UTF-8"?>
<svg id="Camada_1" data-name="Camada 1" xmlns="http://www.w3.org/2000/svg" viewBox="0 0 1920 1080">
  <defs>
    <style>
      .cls-1 {
        fill: #631d25;
      }
    </style>
  </defs>
  <g>
    <path class="cls-1" d="m621.58,408.87c-14.97,6.33-28.4,15.39-39.94,26.92-11.53,11.53-20.59,24.97-26.92,39.93-6.56,15.5-9.88,31.96-9.88,48.91s3.32,33.41,9.88,48.92c6.33,14.97,15.39,28.4,26.92,39.93,11.53,11.53,24.97,20.59,39.94,26.92,13.33,5.64,27.38,8.89,41.83,9.69v-41.81c-42.98-3.61-76.86-39.74-76.86-83.65s33.88-80.04,76.86-83.64v-41.81c-14.46.8-28.5,4.04-41.83,9.68Z"/>
    <path class="cls-1" d="m577.22,309.88c-27.76,11.74-52.69,28.54-74.08,49.94-21.39,21.39-38.19,46.32-49.94,74.08-12.17,28.76-18.33,59.29-18.33,90.74s6.17,61.98,18.33,90.74c11.74,27.76,28.54,52.69,49.94,74.08,21.4,21.4,46.32,38.19,74.08,49.94,24.73,10.46,50.78,16.49,77.6,17.97v-77.56c-79.74-6.69-142.58-73.73-142.58-155.17s62.84-148.47,142.58-155.17v-77.56c-26.82,1.48-52.87,7.5-77.6,17.97Z"/>
    <path class="cls-1" d="m708.86,524.64c0,21.18-17.18,38.36-38.36,38.36-2.42,0-4.79-.22-7.08-.65-17.81-3.32-31.28-18.94-31.28-37.71s13.48-34.39,31.28-37.71c2.29-.43,4.66-.65,7.08-.65,21.18,0,38.36,17.17,38.36,38.36Z"/>
  </g>
  <g>
    <path class="cls-1" d="m788.65,431.16h-37.87v-122.22h31.67c29.09,0,47.85,12.39,47.85,33.22,0,11.71-6.71,21.52-18.42,25.48,19.62,3.96,26.51,17.56,26.51,28.4,0,22.38-18.93,35.12-49.75,35.12Zm-8.43-104.66h-4.65v34.77h9.98c12.39,0,20.83-5.68,20.83-17.04s-10.84-17.73-26.17-17.73Zm3.44,51.47h-8.09v34.25h13.6c13.94,0,23.75-4.48,23.75-15.84,0-9.98-8.43-18.42-29.26-18.42Z"/>
    <path class="cls-1" d="m857.16,431.16v-86.24l21-1.89.69,13.6h.34c6.54-12.39,15.15-14.29,22.89-14.29,1.89,0,5.68.34,8.78,1.38l-1.55,20.48c-3.44-.86-6.2-1.03-9.3-1.03-6.37,0-13.6,2.07-19.45,9.47v58.53h-23.41Z"/>
    <path class="cls-1" d="m921.54,408.96c0-13.77,9.47-29.26,49.92-29.78v-4.13c0-9.47-4.48-14.63-15.32-14.63-7.06,0-16.01,1.38-27.37,6.71l-1.72-16.35c8.78-5.51,22.03-8.43,31.84-8.43,25.3,0,35.29,11.19,35.29,33.39v28.75c0,7.92-.52,13.25,12.05,13.43l-.86,13.77c-4.65.86-8.26,1.2-12.57,1.2-7.06,0-14.46-1.55-18.25-9.98-7.92,7.23-16.7,10.16-26.34,10.16-15.32,0-26.68-8.95-26.68-24.1Zm49.92,1.72v-16.7c-23.41-.69-28.75,6.54-28.75,12.57,0,5.16,4.13,9.64,12.74,9.64,5.51,0,11.02-1.89,16.01-5.51Z"/>
    <path class="cls-1" d="m1017.25,431.16v-15.84l38.39-53.88h-35.8v-17.56h64.38v16.01l-38.04,53.36h40.45l-2.07,17.9h-67.3Z"/>
    <path class="cls-1" d="m1103.66,314.97c0-7.75,5.68-13.43,14.29-13.43s14.29,5.85,14.29,13.6-6.02,13.43-14.46,13.43c-9.12,0-14.12-5.85-14.12-13.6Zm2.58,116.19v-84l23.41-2.24v86.24h-23.41Z"/>
    <path class="cls-1" d="m1152.21,431.16v-130.82l23.41-1.72v132.54h-23.41Z"/>
    <path class="cls-1" d="m1195.59,314.97c0-7.75,5.68-13.43,14.29-13.43s14.29,5.85,14.29,13.6-6.02,13.43-14.46,13.43c-9.12,0-14.12-5.85-14.12-13.6Zm2.58,116.19v-84l23.41-2.24v86.24h-23.41Z"/>
    <path class="cls-1" d="m1238.97,408.96c0-13.77,9.47-29.26,49.92-29.78v-4.13c0-9.47-4.48-14.63-15.32-14.63-7.06,0-16.01,1.38-27.37,6.71l-1.72-16.35c8.78-5.51,22.03-8.43,31.84-8.43,25.3,0,35.29,11.19,35.29,33.39v28.75c0,7.92-.52,13.25,12.05,13.43l-.86,13.77c-4.65.86-8.26,1.2-12.57,1.2-7.06,0-14.46-1.55-18.25-9.98-7.92,7.23-16.7,10.16-26.34,10.16-15.32,0-26.68-8.95-26.68-24.1Zm49.92,1.72v-16.7c-23.41-.69-28.75,6.54-28.75,12.57,0,5.16,4.13,9.64,12.74,9.64,5.51,0,11.02-1.89,16.01-5.51Z"/>
    <path class="cls-1" d="m1338.12,431.16v-86.24l21-1.89.69,11.53h.34c7.57-9.3,17.21-12.39,27.2-12.39,20.31,0,29.95,13.43,29.95,36.49v52.5h-23.41v-47.68c0-12.22-2.58-21.34-14.8-21.34-5.16,0-11.53,1.89-17.56,7.23v61.8h-23.41Z"/>
    <path class="cls-1" d="m783.83,587.16v-49.92l-46.13-72.3h29.26l30.98,49.92,31.16-49.92h26.34l-46.82,72.12v50.09h-24.79Z"/>
    <path class="cls-1" d="m890.04,588.88c-20.31,0-43.72-13.43-43.72-44.93s21.34-45.79,45.79-45.79,42.86,14.63,42.86,43.38c0,32.71-21.86,47.34-44.93,47.34Zm.17-72.47c-9.47,0-20.14,5.85-20.14,26.16,0,18.07,9.47,28.06,20.48,28.06h1.03c10.84,0,19.62-8.61,19.62-26.51s-8.43-27.71-21-27.71Z"/>
    <path class="cls-1" d="m953.73,552.39v-51.3l23.41-2.07v48.54c0,12.22,2.58,21.34,14.63,21.34,5.16,0,11.53-1.89,17.73-7.4v-60.42l23.41-2.07v87.1l-21,1.89-.69-11.53h-.34c-7.75,9.12-17.38,12.22-27.2,12.22-20.48,0-29.95-13.25-29.95-36.32Z"/>
    <path class="cls-1" d="m1058.56,558.07v-38.21h-12.74v-16.01l14.29-1.89,2.41-19.11,19.45-.17v19.28h22.89l-.86,17.9h-22.03v35.63c0,11.02,5.16,13.94,12.39,13.94,2.93,0,7.06-.34,13.08-2.41l-.34,17.21c-6.54,3.1-13.94,4.48-19.45,4.48-15.66,0-29.09-6.02-29.09-30.64Z"/>
    <path class="cls-1" d="m1123.8,587.16v-130.82l23.41-1.72v41.66c0,5.34-.17,9.47-.86,13.25h.34c7.06-8.26,16.52-11.36,26.34-11.36,20.31,0,29.95,13.43,29.95,36.49v52.5h-23.41v-47.68c0-12.22-2.58-21.34-14.8-21.34-5.16,0-11.53,1.89-17.56,7.23v61.8h-23.41Z"/>
    <path class="cls-1" d="m742,743.16l42.86-121.87,28.23-.69,45.79,122.56h-27.54l-9.98-27.71h-45.62l-9.12,27.71h-24.62Zm39.76-46.65h33.05l-12.22-34.43c-2.41-7.06-4.13-12.39-4.82-14.63h-.34c-.52,2.24-1.89,7.57-4.3,14.8l-11.36,34.25Z"/>
    <path class="cls-1" d="m866.46,700.3c0-33.57,21.69-46.13,43.55-46.13,6.89,0,16.01,1.03,22.89,3.96l-2.07,18.59c-7.75-2.58-12.91-3.27-18.07-3.27-11.36,0-22.21,5.51-22.21,24.27,0,21.17,11.88,27.71,23.24,27.71,5.16,0,11.71-1.03,20.66-4.65l-.52,18.76c-8.26,4.13-17.9,5.34-24.44,5.34-23.58,0-43.03-14.63-43.03-44.58Z"/>
    <path class="cls-1" d="m949.6,720.96c0-13.77,9.47-29.26,49.92-29.78v-4.13c0-9.47-4.48-14.63-15.32-14.63-7.06,0-16.01,1.38-27.37,6.71l-1.72-16.35c8.78-5.51,22.03-8.43,31.84-8.43,25.3,0,35.29,11.19,35.29,33.39v28.75c0,7.92-.52,13.25,12.05,13.43l-.86,13.77c-4.65.86-8.26,1.2-12.57,1.2-7.06,0-14.46-1.55-18.25-9.98-7.92,7.23-16.7,10.16-26.34,10.16-15.32,0-26.68-8.95-26.68-24.1Zm49.92,1.72v-16.7c-23.41-.69-28.75,6.54-28.75,12.57,0,5.16,4.13,9.64,12.74,9.64,5.51,0,11.02-1.89,16.01-5.51Z"/>
    <path class="cls-1" d="m1045.14,701.33c0-27.71,17.39-46.99,47.34-46.99,4.48,0,9.3.34,13.77,1.55v-43.55l23.41-1.72v131.68l-21.17,1.72-1.21-10.33h-.34c-7.92,8.43-16.87,11.36-25.99,11.36-19.97,0-35.8-15.15-35.8-43.72Zm61.11,16.87v-43.72c-5.51-1.72-10.33-2.07-13.77-2.07-14.63,0-23.41,9.47-23.41,25.82,0,18.94,8.95,27.71,19.11,27.71,5.85,0,12.22-2.24,18.07-7.75Z"/>
    <path class="cls-1" d="m1148.25,698.92c0-26.51,16.87-44.75,42.86-44.75,24.27,0,38.56,18.25,33.74,49.23h-53.53c.52,15.15,10.84,23.24,28.06,23.24,7.4,0,16.35-1.21,27.02-4.99l-.69,16.87c-9.29,4.3-19.97,6.37-29.61,6.37-34.08.17-47.85-20.48-47.85-45.96Zm55.43-10.33c.34-11.53-5.68-18.25-15.49-18.25-8.26,0-16.18,5.68-16.7,18.59l32.19-.34Z"/>
    <path class="cls-1" d="m1247.06,743.16v-86.24l21-1.89.69,11.53h.34c7.57-9.3,17.21-12.39,27.2-12.39,11.53,0,20.14,5.16,24.96,14.12,8.09-9.98,18.42-14.12,29.78-14.12,21,0,30.64,13.43,30.64,36.49v52.5h-23.41v-47.68c0-12.22-2.58-21.34-14.8-21.34-5.16,0-11.71,1.89-18.07,7.75.52,4.48.69,9.3.69,14.46v46.82h-23.41v-47.68c0-12.22-2.58-21.34-14.63-21.34-5.16,0-11.53,1.89-17.56,7.23v61.8h-23.41Z"/>
    <path class="cls-1" d="m1395.27,769.15c17.56-6.37,27.03-12.74,33.22-19.97-18.42-42.17-34.6-93.3-34.6-93.3h26.34s12.57,44.07,23.75,73.16c3.44-6.54,7.06-16.35,9.64-25.48,4.13-13.94,7.06-31.84,8.61-47.68h22.89c-1.89,18.42-6.03,38.73-11.71,56.46-6.2,19.11-15.32,38.39-28.92,51.64-11.71,11.71-24.96,18.76-40.8,24.1l-8.43-18.93Z"/>
  </g>
</svg>