<svg width="4483" height="4158" viewBox="0 0 4483 4158" fill="none" xmlns="http://www.w3.org/2000/svg">
<path d="M2241.55 4157.06C3479.26 4157.06 4482.62 3577.74 4482.62 2863.12C4482.62 2148.5 3479.26 1569.18 2241.55 1569.18C1003.84 1569.18 0.476562 2148.5 0.476562 2863.12C0.476562 3577.74 1003.84 4157.06 2241.55 4157.06Z" fill="#F5F5F5"/>
<path d="M624.879 3681.74L594.402 3663.79C589.355 3660.46 585.156 3655.99 582.14 3650.75C579.123 3645.51 577.373 3639.64 577.027 3633.6V1374.67C577.387 1368.65 579.145 1362.79 582.161 1357.57C585.176 1352.35 589.367 1347.9 594.402 1344.58L1995.98 535.271C2001.39 532.556 2007.36 531.143 2013.41 531.143C2019.46 531.143 2025.42 532.556 2030.83 535.271L2061.31 552.937C2066.36 556.247 2070.57 560.691 2073.6 565.915C2076.63 571.138 2078.41 576.997 2078.78 583.026V2842.35C2078.42 2848.39 2076.66 2854.27 2073.62 2859.51C2070.59 2864.75 2066.37 2869.21 2061.31 2872.53L659.724 3681.74C654.318 3684.46 648.352 3685.87 642.302 3685.87C636.252 3685.87 630.286 3684.46 624.879 3681.74Z" fill="#37474F"/>
<path d="M2078.58 580.211C2077.32 571.281 2070.04 567.981 2061.31 573.029L659.724 1382.24C654.572 1385.41 650.327 1389.85 647.397 1395.15L582.074 1357.49C585.031 1352.22 589.271 1347.77 594.401 1344.58L1995.98 535.271C2001.39 532.556 2007.36 531.143 2013.4 531.143C2019.45 531.143 2025.42 532.556 2030.83 535.271L2061.31 552.937C2065.97 555.977 2069.93 559.987 2072.91 564.693C2075.89 569.399 2077.83 574.692 2078.58 580.211Z" fill="#455A64"/>
<path d="M656.618 3683.2C656.3 3683.28 655.967 3683.28 655.648 3683.2L653.804 3683.88H653.124C652.057 3683.88 650.989 3684.46 649.921 3684.75C643.015 3686.09 635.876 3685.55 629.247 3683.2C627.91 3682.72 626.612 3682.13 625.364 3681.45L594.402 3663.79C589.355 3660.46 585.156 3655.99 582.14 3650.75C579.123 3645.51 577.373 3639.64 577.027 3633.6V1374.67C577.241 1368.61 578.976 1362.7 582.075 1357.49L647.398 1395.15C644.238 1400.34 642.466 1406.25 642.253 1412.33V3671.75C642.098 3674.99 643.019 3678.2 644.874 3680.87C646.056 3682.22 647.588 3683.21 649.302 3683.75C651.015 3684.28 652.842 3684.32 654.58 3683.88L656.618 3683.2Z" fill="#263238"/>
<path d="M1148.04 1284.01C1147.59 1281.64 1146.52 1279.43 1144.94 1277.6L1143.77 1276.63C1142.86 1275.94 1141.78 1275.49 1140.65 1275.32C1139.51 1275.15 1138.35 1275.27 1137.27 1275.66C1136.4 1275.87 1135.58 1276.23 1134.84 1276.73C1130.53 1279.7 1127.16 1283.84 1125.14 1288.67C1122.54 1294.13 1121.15 1300.09 1121.06 1306.14C1120.67 1310.66 1122.06 1315.16 1124.94 1318.66C1126.22 1319.89 1127.89 1320.65 1129.66 1320.79C1131.43 1320.93 1133.19 1320.45 1134.65 1319.44C1136.73 1318.19 1138.57 1316.58 1140.09 1314.68C1141.47 1312.88 1142.7 1310.96 1143.77 1308.96C1146.76 1303.12 1148.38 1296.68 1148.53 1290.13C1148.58 1288.08 1148.42 1286.03 1148.04 1284.01ZM1375.95 774.724C1370.89 771.752 1365.12 770.209 1359.25 770.259C1348.12 770.779 1337.3 774.118 1327.8 779.965C1301.31 796.18 1280.86 820.623 1269.57 849.559C1267.72 853.636 1265.98 857.906 1264.42 862.08C1262.87 866.254 1261.22 870.524 1259.86 874.892C1258.5 879.26 1256.95 883.628 1255.69 887.996C1255.2 889.452 1254.81 891.005 1254.33 892.364L1251.8 901.196C1251.85 901.616 1251.85 902.038 1251.8 902.458C1250.35 907.796 1248.99 913.329 1247.44 918.765C1246.66 921.773 1245.98 924.588 1245.2 927.5L1242.97 936.139C1239.87 947.689 1236.76 958.754 1233.27 969.334L1231.03 975.74C1229.96 978.749 1228.9 981.758 1227.73 984.67C1226.57 987.582 1225.89 989.135 1225.01 991.173C1223.56 994.764 1222.01 998.162 1220.36 1001.46C1218.71 1004.76 1218.32 1005.64 1217.25 1007.67C1192.69 1054.85 1162.7 1073.29 1145.33 1097.55C1130.09 1118.71 1125.91 1135.6 1105.34 1169.09C1098.83 1179.77 1090.68 1192.09 1080 1206.85C1050.4 1247.61 1039.82 1267.8 1036.23 1280.03C1036.19 1280.35 1036.19 1280.68 1036.23 1281C1036.23 1281.97 1036.23 1282.85 1035.55 1283.72C1035.51 1284.01 1035.51 1284.3 1035.55 1284.59C1035.51 1285.37 1035.51 1286.15 1035.55 1286.92C1035.21 1289.3 1035.05 1291.7 1035.06 1294.1V1384.76L1067.68 1403.59V1312.84C1067.59 1308.1 1068.28 1303.38 1069.71 1298.86C1073.31 1286.63 1083.79 1266.54 1113.49 1225.77C1124.17 1210.92 1132.32 1198.6 1138.82 1187.92C1159.21 1154.53 1163.57 1137.54 1178.81 1116.58C1196.19 1092.22 1226.18 1073.87 1250.74 1026.6C1254.28 1019.34 1257.42 1011.88 1260.15 1004.28C1275.88 965.452 1282.96 913.135 1302.28 869.166C1313.55 840.268 1334.01 815.881 1360.51 799.766C1380.41 788.313 1394.97 787.342 1406.13 792.583L1375.95 774.724ZM1518.92 890.616C1516.21 889.071 1513.3 887.896 1510.28 887.122C1497.95 884.21 1479.61 891.393 1461.17 889.258C1487.08 922.744 1523.09 901.196 1542.89 905.952C1545.97 906.69 1548.92 907.901 1551.63 909.544L1518.92 890.616ZM1588.03 1015.15C1587.06 1015.74 1586.15 1016.42 1585.31 1017.19L1583.95 1018.54L1582.69 1020C1577.24 1027.04 1574.25 1035.66 1574.15 1044.56C1573.83 1049.02 1575.17 1053.45 1577.93 1056.98C1578.3 1057.33 1578.69 1057.65 1579.1 1057.95C1580 1058.64 1581.06 1059.09 1582.18 1059.26C1583.3 1059.43 1584.44 1059.32 1585.5 1058.92C1586.4 1058.71 1587.25 1058.35 1588.03 1057.85C1589 1057.27 1589.87 1056.5 1590.84 1055.82C1592.25 1054.5 1593.52 1053.03 1594.63 1051.45C1599.25 1044.69 1601.78 1036.73 1601.91 1028.54C1601.91 1016.8 1595.7 1010.68 1588.03 1015.15ZM1609.38 933.13C1598.91 927.286 1587.52 923.25 1575.7 921.191C1570.65 920.026 1565.99 918.764 1562.21 917.503C1575.19 929.06 1591.11 936.818 1608.22 939.924C1618.6 941.944 1628.7 945.203 1638.31 949.63L1609.38 933.13Z" fill="#DFBDB9"/>
<path d="M1640.93 951.28L1638.31 949.728C1628.7 945.3 1618.6 942.041 1608.22 940.021C1591.11 936.934 1575.18 929.174 1562.21 917.6C1558.96 914.597 1555.42 911.93 1551.63 909.641C1548.91 908.038 1545.97 906.859 1542.9 906.146C1523.48 901.39 1487.08 922.938 1461.27 889.452L1460.39 888.384C1442.34 864.021 1435.74 809.666 1408.66 793.748L1405.94 792.195C1394.78 786.954 1380.22 787.924 1360.32 799.378C1288.59 840.823 1286.17 939.245 1260.35 1003.99C1234.53 1068.73 1197.84 1089.01 1177.94 1116.87C1158.04 1144.73 1156.68 1165.4 1112.52 1226.16C1068.36 1286.92 1066.71 1301.87 1066.71 1313.52V1404.17L1654.13 1064.46V973.799C1654.48 969.148 1653.41 964.5 1651.05 960.476C1648.69 956.451 1645.16 953.243 1640.93 951.28ZM1134.84 1319.44C1127.18 1323.9 1121.06 1317.98 1121.06 1306.14C1120.99 1300.56 1122.19 1295.03 1124.58 1289.98C1126.97 1284.94 1130.48 1280.5 1134.84 1277.02C1142.51 1272.56 1148.63 1278.57 1148.63 1290.42C1148.7 1295.99 1147.5 1301.5 1145.11 1306.53C1142.72 1311.56 1139.21 1315.98 1134.84 1319.44ZM1360.32 1046.3C1356.64 1049.1 1352.35 1050.99 1347.8 1051.8C1343.24 1052.61 1338.56 1052.33 1334.14 1050.97C1329.72 1049.61 1325.69 1047.22 1322.38 1044C1319.06 1040.77 1316.57 1036.81 1315.09 1032.42C1310.02 1020.95 1307.6 1008.47 1308 995.929C1308 951.378 1331.4 901.779 1360.32 885.084C1364.23 882.753 1368.49 881.08 1372.94 880.134C1395.85 875.572 1412.64 897.508 1412.64 935.459C1412.64 980.011 1389.25 1029.61 1360.32 1046.3ZM1588.03 1057.76C1580.36 1062.22 1574.15 1056.3 1574.15 1044.56C1574.09 1038.97 1575.31 1033.44 1577.72 1028.39C1580.12 1023.34 1583.65 1018.91 1588.03 1015.44C1595.7 1011.07 1601.91 1016.99 1601.91 1028.83C1601.97 1034.4 1600.74 1039.9 1598.34 1044.91C1595.93 1049.93 1592.4 1054.32 1588.03 1057.76Z" fill="#DFBDB9"/>
<path opacity="0.1" d="M1640.93 951.28L1638.31 949.728C1628.7 945.3 1618.6 942.041 1608.22 940.021C1591.11 936.934 1575.18 929.174 1562.21 917.6C1558.96 914.597 1555.42 911.93 1551.63 909.641C1548.91 908.038 1545.97 906.859 1542.9 906.146C1523.48 901.39 1487.08 922.938 1461.27 889.452L1460.39 888.384C1442.34 864.021 1435.74 809.666 1408.66 793.748L1405.94 792.195C1394.78 786.954 1380.22 787.924 1360.32 799.378C1288.59 840.823 1286.17 939.245 1260.35 1003.99C1234.53 1068.73 1197.84 1089.01 1177.94 1116.87C1158.04 1144.73 1156.68 1165.4 1112.52 1226.16C1068.36 1286.92 1066.71 1301.87 1066.71 1313.52V1404.17L1654.13 1064.46V973.799C1654.48 969.148 1653.41 964.5 1651.05 960.476C1648.69 956.451 1645.16 953.243 1640.93 951.28ZM1134.84 1319.44C1127.18 1323.9 1121.06 1317.98 1121.06 1306.14C1120.99 1300.56 1122.19 1295.03 1124.58 1289.98C1126.97 1284.94 1130.48 1280.5 1134.84 1277.02C1142.51 1272.56 1148.63 1278.57 1148.63 1290.42C1148.7 1295.99 1147.5 1301.5 1145.11 1306.53C1142.72 1311.56 1139.21 1315.98 1134.84 1319.44ZM1360.32 1046.3C1356.64 1049.1 1352.35 1050.99 1347.8 1051.8C1343.24 1052.61 1338.56 1052.33 1334.14 1050.97C1329.72 1049.61 1325.69 1047.22 1322.38 1044C1319.06 1040.77 1316.57 1036.81 1315.09 1032.42C1310.02 1020.95 1307.6 1008.47 1308 995.929C1308 951.378 1331.4 901.779 1360.32 885.084C1364.23 882.753 1368.49 881.08 1372.94 880.134C1395.85 875.572 1412.64 897.508 1412.64 935.459C1412.64 980.011 1389.25 1029.61 1360.32 1046.3ZM1588.03 1057.76C1580.36 1062.22 1574.15 1056.3 1574.15 1044.56C1574.09 1038.97 1575.31 1033.44 1577.72 1028.39C1580.12 1023.34 1583.65 1018.91 1588.03 1015.44C1595.7 1011.07 1601.91 1016.99 1601.91 1028.83C1601.97 1034.4 1600.74 1039.9 1598.34 1044.91C1595.93 1049.93 1592.4 1054.32 1588.03 1057.76Z" fill="black"/>
<path opacity="0.25" d="M1068.75 1299.25C1067.31 1303.77 1066.63 1308.49 1066.71 1313.23V1403.98L1034.09 1385.15V1294.49C1034.08 1292.09 1034.24 1289.69 1034.58 1287.31C1034.54 1286.54 1034.54 1285.76 1034.58 1284.98C1034.54 1284.69 1034.54 1284.4 1034.58 1284.11C1034.58 1283.23 1034.58 1282.36 1035.26 1281.39V1280.42L1068.75 1299.25Z" fill="black"/>
<path opacity="0.25" d="M1177.85 1116.97C1162.61 1137.93 1158.43 1154.92 1137.86 1188.31L1105.34 1169.28C1125.72 1135.8 1130.09 1118.91 1145.33 1097.75L1177.85 1116.97Z" fill="black"/>
<path opacity="0.25" d="M1302.47 868.389C1283.06 912.359 1276.07 964.19 1260.35 1003.5C1257.29 1011.36 1253.79 1019.04 1249.86 1026.5L1217.25 1007.77C1218.32 1005.73 1219.39 1003.6 1220.36 1001.56C1221.33 999.521 1223.56 994.862 1225.02 991.27C1225.89 989.232 1226.86 987 1227.73 984.767C1228.61 982.535 1229.97 978.846 1231.03 975.837L1233.27 969.431C1236.76 958.852 1239.87 947.786 1242.97 936.236L1245.2 927.597C1245.98 924.685 1246.66 921.871 1247.44 918.862C1248.99 913.426 1250.35 907.894 1251.8 902.555C1251.85 902.136 1251.85 901.713 1251.8 901.293L1254.33 892.461C1254.81 891.102 1255.2 889.549 1255.69 888.093C1256.95 883.725 1258.4 879.357 1259.86 874.99C1261.32 870.622 1262.77 866.448 1264.42 862.177C1266.07 857.907 1267.72 853.733 1269.57 849.656L1302.47 868.389Z" fill="black"/>
<path d="M1125.04 1288.67C1122.45 1294.14 1121.06 1300.09 1120.97 1306.14C1120.58 1310.66 1121.97 1315.16 1124.85 1318.66C1122.06 1315.11 1120.71 1310.64 1121.06 1306.14C1121.17 1300.11 1122.53 1294.16 1125.04 1288.67ZM1148.73 1290.13C1148.72 1288.07 1148.49 1286.02 1148.05 1284.01C1148.46 1286.02 1148.65 1288.07 1148.63 1290.13C1148.51 1296.67 1146.92 1303.11 1143.97 1308.96C1146.95 1303.12 1148.58 1296.68 1148.73 1290.13ZM1579.1 1057.95C1580 1058.64 1581.06 1059.09 1582.18 1059.26C1583.3 1059.43 1584.44 1059.32 1585.51 1058.92C1584.44 1059.26 1583.3 1059.35 1582.19 1059.18C1581.08 1059.01 1580.02 1058.59 1579.1 1057.95Z" fill="#DFBDB9"/>
<path d="M1412.73 935.461C1412.73 980.012 1389.25 1029.61 1360.32 1046.31C1356.61 1049 1352.33 1050.8 1347.81 1051.56C1343.29 1052.33 1338.65 1052.03 1334.27 1050.69C1329.88 1049.35 1325.87 1047.02 1322.54 1043.86C1319.21 1040.71 1316.66 1036.83 1315.09 1032.52C1319.58 1031.56 1323.88 1029.85 1327.8 1027.48C1356.92 1010.68 1380.12 961.182 1380.12 916.63C1380.55 904.076 1378.09 891.592 1372.94 880.135C1396.04 875.573 1412.73 897.509 1412.73 935.461Z" fill="#DFBDB9"/>
<path opacity="0.3" d="M1412.73 935.461C1412.73 980.012 1389.25 1029.61 1360.32 1046.31C1356.61 1049 1352.33 1050.8 1347.81 1051.56C1343.29 1052.33 1338.65 1052.03 1334.27 1050.69C1329.88 1049.35 1325.87 1047.02 1322.54 1043.86C1319.21 1040.71 1316.66 1036.83 1315.09 1032.52C1319.58 1031.56 1323.88 1029.85 1327.8 1027.48C1356.92 1010.68 1380.12 961.182 1380.12 916.63C1380.55 904.076 1378.09 891.592 1372.94 880.135C1396.04 875.573 1412.73 897.509 1412.73 935.461Z" fill="black"/>
<path d="M1143.68 1308.96C1142.7 1310.99 1141.49 1312.91 1140.08 1314.68C1138.57 1316.58 1136.73 1318.19 1134.65 1319.44C1133.19 1320.45 1131.43 1320.93 1129.66 1320.79C1127.89 1320.65 1126.22 1319.9 1124.94 1318.66C1122.06 1315.16 1120.67 1310.66 1121.06 1306.14C1121.15 1300.09 1122.54 1294.13 1125.14 1288.67C1127.16 1283.84 1130.53 1279.7 1134.84 1276.73C1135.58 1276.23 1136.4 1275.87 1137.27 1275.66C1138.6 1275.2 1140.03 1275.14 1141.4 1275.48C1142.76 1275.83 1143.99 1276.57 1144.94 1277.6C1146.52 1279.43 1147.59 1281.64 1148.04 1284.01C1148.49 1286.02 1148.71 1288.07 1148.72 1290.13C1148.57 1296.72 1146.84 1303.17 1143.68 1308.96Z" fill="#37474F"/>
<path d="M1601.91 1028.54C1601.78 1036.73 1599.25 1044.69 1594.63 1051.45C1593.52 1053.03 1592.25 1054.5 1590.84 1055.82C1589.87 1056.5 1589 1057.27 1588.03 1057.85C1587.25 1058.35 1586.4 1058.71 1585.5 1058.92C1584.19 1059.36 1582.78 1059.42 1581.43 1059.07C1580.09 1058.73 1578.87 1058 1577.93 1056.98C1575.17 1053.45 1573.83 1049.02 1574.15 1044.56C1574.25 1035.66 1577.25 1027.04 1582.69 1020L1583.95 1018.54L1585.31 1017.19C1586.15 1016.42 1587.06 1015.74 1588.03 1015.15C1595.7 1010.68 1601.91 1016.8 1601.91 1028.54Z" fill="#37474F"/>
<path d="M750.67 1593.54L1970.36 889.354C1973.59 887.724 1977.17 886.875 1980.79 886.875C1984.41 886.875 1987.99 887.724 1991.23 889.354L2002.97 896.148C2006.01 898.15 2008.54 900.833 2010.36 903.984C2012.18 907.135 2013.24 910.667 2013.45 914.299V2774.99C2013.24 2778.61 2012.19 2782.13 2010.37 2785.26C2008.55 2788.4 2006.01 2791.06 2002.97 2793.04L783.283 3497.23C780.06 3498.9 776.481 3499.78 772.849 3499.78C769.217 3499.78 765.638 3498.9 762.415 3497.23L750.67 3490.43C747.623 3488.46 745.085 3485.8 743.263 3482.66C741.441 3479.53 740.387 3476 740.188 3472.38V1611.69C740.38 1608.05 741.43 1604.51 743.252 1601.36C745.074 1598.21 747.616 1595.53 750.67 1593.54Z" fill="#F5F5F5"/>
<path d="M2013.07 911.098C2011.71 906.827 2007.73 905.468 2003.36 908.186L783.287 1612.37C780.196 1614.32 777.656 1617.03 775.91 1620.24L743.297 1601.41C744.979 1598.18 747.535 1595.49 750.674 1593.64L1970.36 889.453C1973.57 887.777 1977.13 886.902 1980.75 886.902C1984.36 886.902 1987.93 887.777 1991.13 889.453L2002.97 896.15C2005.56 897.845 2007.79 900.041 2009.53 902.607C2011.26 905.174 2012.46 908.06 2013.07 911.098Z" fill="#FAFAFA"/>
<path d="M780.857 3498.78C779.604 3499.25 778.301 3499.58 776.974 3499.75H774.936C772.84 3499.99 770.723 3499.99 768.627 3499.75C767.298 3499.59 765.993 3499.26 764.744 3498.78L762.415 3497.62L750.67 3490.82C747.612 3488.86 745.066 3486.2 743.242 3483.06C741.419 3479.92 740.372 3476.39 740.188 3472.77V1611.69C740.288 1608.05 741.361 1604.5 743.293 1601.4L775.906 1620.23C774.068 1623.36 773.034 1626.9 772.898 1630.52V3491.21C772.898 3496.94 776.198 3499.75 780.857 3498.78Z" fill="#E0E0E0"/>
<path d="M1262.68 1166.18L1261.03 1168.9C1257.13 1175.25 1254.31 1182.2 1252.68 1189.47C1252.68 1190.06 1252.68 1190.35 1252.68 1190.64C1252.66 1190.8 1252.66 1190.96 1252.68 1191.12L1232.78 1303.13L1226.57 1338.95C1226.57 1340.4 1225.89 1341.86 1225.5 1343.41C1225.12 1344.86 1224.67 1346.29 1224.14 1347.68C1224.14 1348.66 1223.46 1349.63 1223.07 1350.6L1255.69 1369.43C1257.24 1365.68 1258.38 1361.77 1259.08 1357.78L1265.49 1321.96L1284.9 1209.95C1286.38 1200.98 1289.86 1192.45 1295.09 1185.01L1262.68 1166.18Z" fill="#DFBDB9"/>
<path d="M1038.07 1527.54C1034.77 1532.78 1031.67 1538.02 1028.37 1543.26C1027.01 1545.79 1025.65 1548.31 1024.39 1550.84C1023.13 1553.36 1021.28 1557.34 1019.92 1560.54C1018.56 1563.75 1016.82 1567.72 1015.46 1571.41C1014.1 1575.1 1012.74 1578.79 1011.48 1582.48C1010.22 1586.17 1008.66 1591.12 1007.5 1595.48C1006.72 1598.3 1005.95 1601.11 1005.17 1604.12C1003.36 1610.98 1001.71 1617.97 1000.22 1625.09C1000.22 1627.52 999.151 1630.04 998.763 1632.47C998.375 1634.89 997.501 1638.48 997.016 1641.39C997.016 1641.39 997.016 1641.4 997.016 1641.88C997.016 1644.21 997.016 1645.76 998.18 1646.44C998.333 1646.51 998.498 1646.55 998.666 1646.55C998.833 1646.55 998.999 1646.51 999.151 1646.44L1027.2 1624.51L1031.76 1620.91L1034 1619.26L1036.42 1617.32L1038.36 1615.87L1040.01 1614.51C1048.21 1584.84 1061.87 1556.95 1080.3 1532.3L1047.68 1513.47C1044.48 1518.13 1041.18 1522.88 1038.07 1527.54Z" fill="#DFBDB9"/>
<path d="M1390.99 919.736C1389.44 922.26 1388.08 924.784 1386.72 927.307C1385.83 928.699 1385.05 930.16 1384.39 931.675C1383.23 933.713 1382.26 935.849 1381.19 937.984C1380.12 940.119 1379.44 941.381 1378.67 943.128C1377.02 946.428 1375.56 949.729 1374.2 952.835C1372.84 955.941 1371.09 960.017 1369.74 963.609C1368.38 966.812 1367.31 970.015 1366.24 973.315C1364.49 978.168 1363.04 983.021 1361.68 987.971C1360.9 990.592 1360.32 993.116 1359.64 995.639C1359.66 995.833 1359.66 996.028 1359.64 996.221C1359.64 997.58 1358.96 998.842 1358.77 1000.2C1357.99 1003.21 1357.41 1006.32 1356.92 1009.32C1356.44 1012.33 1355.95 1014.08 1355.27 1016.51C1354.59 1018.93 1354.01 1021.55 1353.23 1024.08C1352.46 1026.6 1351.68 1028.83 1350.91 1031.26C1350.91 1031.26 1350.91 1031.26 1350.91 1031.94C1349.93 1034.56 1348.87 1037.28 1347.7 1040C1346.54 1042.71 1345.57 1045.34 1344.21 1048.15C1343.87 1048.88 1343.58 1049.62 1343.33 1050.38C1342.36 1052.42 1341.3 1054.46 1340.33 1056.59L1335.18 1066.3C1334.02 1068.63 1332.85 1070.77 1331.59 1073L1364.3 1091.83C1376.05 1071.99 1384.63 1050.45 1389.73 1027.96C1395.9 996.179 1407.53 965.705 1424.09 937.887L1390.99 919.736Z" fill="#DFBDB9"/>
<path d="M1585.02 992.339C1583.4 991.357 1581.57 990.759 1579.68 990.592C1582.85 995.647 1587.11 999.928 1592.15 1003.12C1597.19 1006.31 1602.88 1008.33 1608.8 1009.03C1611.61 1009.07 1614.38 1009.66 1616.96 1010.78L1585.02 992.339Z" fill="#DFBDB9"/>
<path opacity="0.4" d="M1585.02 992.339C1583.4 991.357 1581.57 990.759 1579.68 990.592C1582.85 995.647 1587.11 999.928 1592.15 1003.12C1597.19 1006.31 1602.88 1008.33 1608.8 1009.03C1611.61 1009.07 1614.38 1009.66 1616.96 1010.78L1585.02 992.339Z" fill="white"/>
<path d="M1706.64 1134.15C1701.52 1131.64 1695.86 1130.42 1690.16 1130.59C1684.46 1130.76 1678.89 1132.31 1673.93 1135.12C1635.98 1151.81 1619.57 1159.38 1599.97 1167.54C1596.18 1192.77 1611.03 1195.1 1618.41 1192.09C1645.97 1181.22 1660.05 1174.52 1706.64 1154.04C1711.56 1151.28 1717.08 1149.74 1722.72 1149.56C1728.36 1149.37 1733.96 1150.55 1739.06 1152.98L1706.64 1134.15Z" fill="#DFBDB9"/>
<path opacity="0.4" d="M1706.64 1134.15C1701.52 1131.64 1695.86 1130.42 1690.16 1130.59C1684.46 1130.76 1678.89 1132.31 1673.93 1135.12C1635.98 1151.81 1619.57 1159.38 1599.97 1167.54C1596.18 1192.77 1611.03 1195.1 1618.41 1192.09C1645.97 1181.22 1660.05 1174.52 1706.64 1154.04C1711.56 1151.28 1717.08 1149.74 1722.72 1149.56C1728.36 1149.37 1733.96 1150.55 1739.06 1152.98L1706.64 1134.15Z" fill="white"/>
<path d="M1255.49 1369.43C1248.47 1384.8 1238.59 1398.7 1226.38 1410.39L1124.27 1487.16C1107.94 1500.46 1093.22 1515.6 1080.39 1532.3L1047.78 1513.47C1060.58 1496.72 1075.3 1481.54 1091.65 1468.24L1193.96 1391.56C1205.95 1379.79 1215.66 1365.9 1222.59 1350.6L1255.49 1369.43Z" fill="#DFBDB9"/>
<path opacity="0.4" d="M1255.49 1369.43C1248.47 1384.8 1238.59 1398.7 1226.38 1410.39L1124.27 1487.16C1107.94 1500.46 1093.22 1515.6 1080.39 1532.3L1047.78 1513.47C1060.58 1496.72 1075.3 1481.54 1091.65 1468.24L1193.96 1391.56C1205.95 1379.79 1215.66 1365.9 1222.59 1350.6L1255.49 1369.43Z" fill="white"/>
<path d="M1363.81 1092.6C1349.73 1118.65 1332.38 1142.78 1312.18 1164.43C1305.82 1170.66 1300.16 1177.56 1295.29 1185.01L1262.68 1166.18C1267.46 1158.67 1273.13 1151.76 1279.56 1145.6C1299.73 1123.95 1317.05 1099.81 1331.1 1073.77L1363.81 1092.6Z" fill="#DFBDB9"/>
<path opacity="0.4" d="M1363.81 1092.6C1349.73 1118.65 1332.38 1142.78 1312.18 1164.43C1305.82 1170.66 1300.16 1177.56 1295.29 1185.01L1262.68 1166.18C1267.46 1158.67 1273.13 1151.76 1279.56 1145.6C1299.73 1123.95 1317.05 1099.81 1331.1 1073.77L1363.81 1092.6Z" fill="white"/>
<path d="M1548.04 851.597C1536 845.288 1519.99 846.356 1501.16 856.256C1473.2 870.913 1445.06 901.973 1423.51 938.662L1390.89 919.25C1412.25 882.56 1440.4 851.306 1468.54 836.844C1477.69 831.68 1487.94 828.784 1498.44 828.399C1504.72 828.319 1510.91 829.892 1516.4 832.961L1548.04 851.597Z" fill="#DFBDB9"/>
<path opacity="0.4" d="M1548.04 851.597C1536 845.288 1519.99 846.356 1501.16 856.256C1473.2 870.913 1445.06 901.973 1423.51 938.662L1390.89 919.25C1412.25 882.56 1440.4 851.306 1468.54 836.844C1477.69 831.68 1487.94 828.784 1498.44 828.399C1504.72 828.319 1510.91 829.892 1516.4 832.961L1548.04 851.597Z" fill="white"/>
<path opacity="0.15" d="M1080.68 1532.3C1062.26 1556.95 1048.59 1584.84 1040.4 1614.51L1038.75 1615.87L1036.81 1617.32L1034.39 1619.26L1032.15 1620.91L1027.59 1624.51L999.928 1646.64C999.776 1646.71 999.611 1646.74 999.443 1646.74C999.276 1646.74 999.11 1646.71 998.958 1646.64C997.89 1645.96 997.405 1644.4 997.793 1642.07C997.793 1642.07 997.793 1642.07 997.793 1641.59C997.793 1638.68 998.861 1635.67 999.54 1632.66C1000.22 1629.65 1000.51 1627.71 1001 1625.28C1002.48 1618.23 1004.13 1611.24 1005.95 1604.32C1006.72 1601.31 1007.5 1598.49 1008.28 1595.68C1009.44 1591.31 1010.8 1587.04 1012.26 1582.67C1013.71 1578.3 1014.78 1575.29 1016.23 1571.61C1017.69 1567.92 1019.05 1564.33 1020.7 1560.74C1022.35 1557.14 1023.61 1554.04 1025.16 1551.03C1026.72 1548.02 1027.79 1545.98 1029.14 1543.46C1031.96 1538.22 1035.06 1532.98 1038.85 1527.73C1042.64 1522.49 1045.26 1518.03 1048.56 1513.66L1080.68 1532.3Z" fill="black"/>
<path opacity="0.15" d="M1295.29 1185.01C1290.06 1192.45 1286.57 1200.98 1285.1 1209.95L1265.69 1321.96L1259.28 1357.78C1258.58 1361.77 1257.44 1365.68 1255.88 1369.43L1223.27 1350.6C1223.27 1349.63 1224.05 1348.66 1224.34 1347.68C1224.86 1346.29 1225.32 1344.86 1225.7 1343.41C1225.7 1341.86 1226.47 1340.4 1226.76 1338.95L1232.98 1303.13L1252.87 1191.12C1252.85 1190.96 1252.85 1190.8 1252.87 1190.64C1252.87 1190.64 1252.87 1190.06 1252.87 1189.47C1254.51 1182.2 1257.33 1175.25 1261.22 1168.9L1262.87 1166.18L1295.29 1185.01Z" fill="black"/>
<path opacity="0.15" d="M1423.61 938.662C1407.04 966.48 1395.42 996.954 1389.25 1028.74C1384.15 1051.22 1375.57 1072.77 1363.82 1092.6L1331.11 1073.77C1332.37 1071.54 1333.53 1069.41 1334.7 1067.08L1339.84 1057.37C1340.81 1055.23 1341.88 1053.2 1342.85 1051.16C1343.1 1050.4 1343.39 1049.65 1343.72 1048.93C1344.99 1046.21 1346.15 1043.39 1347.22 1040.77C1348.29 1038.15 1349.45 1035.34 1350.42 1032.72C1350.42 1032.72 1350.42 1032.23 1350.42 1032.04C1351.2 1029.61 1352.07 1027.28 1352.75 1024.85C1353.43 1022.43 1354.21 1019.81 1354.79 1017.28C1355.37 1014.76 1355.95 1012.43 1356.44 1010.1C1356.92 1007.77 1357.51 1003.99 1358.28 1000.98C1358.28 999.618 1358.87 998.356 1359.16 996.997C1359.17 996.803 1359.17 996.608 1359.16 996.415C1359.84 993.891 1360.42 991.367 1361.19 988.747C1362.55 983.796 1364.01 979.04 1365.76 974.09C1366.82 970.79 1367.89 967.587 1369.25 964.384C1370.61 960.793 1372.16 957.201 1373.72 953.61C1375.27 950.019 1376.53 947.01 1378.18 943.904C1378.96 942.157 1379.83 940.507 1380.7 938.759C1381.58 937.012 1382.74 934.489 1383.91 932.45C1384.57 930.935 1385.35 929.474 1386.24 928.083C1387.6 925.559 1388.95 923.035 1390.51 920.512L1423.61 938.662Z" fill="black"/>
<path d="M999.637 1646.64L1027.2 1624.51C1016.23 1633.34 1001.29 1644.89 999.637 1646.64Z" fill="#DFBDB9"/>
<path d="M1739.16 1153.17C1734.05 1150.74 1728.44 1149.56 1722.78 1149.73C1717.13 1149.9 1711.59 1151.41 1706.64 1154.14C1660.15 1174.72 1646.07 1181.42 1618.51 1192.38C1611.13 1195.3 1596.28 1192.97 1600.07 1167.73C1600.03 1167.18 1600.03 1166.63 1600.07 1166.08L1606.38 1130.26L1624.04 1032.62C1624.04 1032.62 1628.02 1017.19 1617.83 1011.46H1617.05C1614.55 1010.23 1611.78 1009.63 1609 1009.71C1603.06 1008.98 1597.36 1006.93 1592.32 1003.7C1587.28 1000.48 1583.03 996.163 1579.88 991.076C1574.43 982.972 1570.65 973.86 1568.77 964.277C1566.88 954.693 1566.93 944.83 1568.91 935.265C1576.38 893.334 1568.23 864.022 1549.5 853.151L1548.04 852.18C1536.01 845.871 1519.99 846.939 1501.16 856.839C1451.56 882.852 1401.48 960.016 1389.25 1029.32C1381.58 1073 1337.61 1140.26 1312.18 1165.21C1286.75 1190.15 1285.1 1210.73 1285.1 1210.73L1265.69 1322.74L1259.28 1358.55C1254.62 1385.34 1227.15 1411.26 1227.15 1411.26L1124.27 1487.16C1083.45 1519.64 1053.98 1564.22 1040.11 1614.51C1040.11 1614.51 1001.29 1644.21 999.348 1646.64L1012.45 1639.16L1718.29 1233.34C1718.29 1233.34 1726.44 1228.98 1728 1227.81C1729.55 1226.65 1758.18 1199.86 1758.18 1199.86C1757.7 1176.76 1751 1160.26 1739.16 1153.17ZM1535.33 947.301C1527.76 989.912 1497.08 1037.38 1466.61 1053.39C1445.54 1064.36 1430.11 1057.56 1424.97 1038.15C1422.71 1027.27 1422.71 1016.03 1424.97 1005.15C1432.44 962.54 1463.31 915.076 1493.78 899.158C1496.6 897.624 1499.56 896.356 1502.62 895.373C1527.56 887.802 1541.64 909.059 1535.13 947.301H1535.33Z" fill="#DFBDB9"/>
<path d="M999.733 1646.73L1718.77 1233.44L1728.48 1227.91C1730.22 1226.84 1758.66 1199.86 1758.66 1199.86L1040.4 1614.51C1040.4 1614.51 996.918 1648.29 999.733 1646.73Z" fill="#DFBDB9"/>
<path opacity="0.3" d="M999.733 1646.73L1718.77 1233.44L1728.48 1227.91C1730.22 1226.84 1758.66 1199.86 1758.66 1199.86L1040.4 1614.51C1040.4 1614.51 996.918 1648.29 999.733 1646.73Z" fill="black"/>
<path d="M1502.81 895.373C1499.75 896.356 1496.8 897.623 1493.98 899.158C1463.5 915.076 1432.63 962.54 1425.16 1005.15C1422.9 1016.03 1422.9 1027.27 1425.16 1038.15C1430.3 1057.56 1445.74 1064.36 1466.8 1053.39C1497.28 1037.38 1527.95 989.912 1535.52 947.301C1541.63 909.059 1527.56 887.802 1502.81 895.373ZM1427.1 1037.38C1424.95 1026.87 1424.95 1016.04 1427.1 1005.54C1434.57 963.414 1464.95 916.532 1495.04 900.905C1497.54 899.584 1500.14 898.448 1502.81 897.508C1504.8 907.766 1504.8 918.31 1502.81 928.568C1495.33 971.178 1464.57 1018.64 1433.99 1034.66C1431.77 1035.83 1429.47 1036.83 1427.1 1037.67V1037.38Z" fill="#DFBDB9"/>
<path opacity="0.4" d="M1502.81 895.373C1499.75 896.356 1496.8 897.623 1493.98 899.158C1463.5 915.076 1432.63 962.54 1425.16 1005.15C1422.9 1016.03 1422.9 1027.27 1425.16 1038.15C1430.3 1057.56 1445.74 1064.36 1466.8 1053.39C1497.28 1037.38 1527.95 989.912 1535.52 947.301C1541.63 909.059 1527.56 887.802 1502.81 895.373ZM1427.1 1037.38C1424.95 1026.87 1424.95 1016.04 1427.1 1005.54C1434.57 963.414 1464.95 916.532 1495.04 900.905C1497.54 899.584 1500.14 898.448 1502.81 897.508C1504.8 907.766 1504.8 918.31 1502.81 928.568C1495.33 971.178 1464.57 1018.64 1433.99 1034.66C1431.77 1035.83 1429.47 1036.83 1427.1 1037.67V1037.38Z" fill="black"/>
<path d="M936.644 2195.13C935.11 2195.14 933.603 2194.74 932.276 2193.97C930.679 2192.94 929.398 2191.49 928.576 2189.77C927.753 2188.06 927.422 2186.15 927.617 2184.26V2142.82C927.762 2139.09 928.809 2135.46 930.669 2132.23C932.529 2129 935.146 2126.27 938.294 2124.28L974.498 2103.41C976 2102.42 977.747 2101.86 979.546 2101.81C981.345 2101.75 983.124 2102.19 984.685 2103.09C986.246 2103.99 987.527 2105.3 988.385 2106.88C989.242 2108.46 989.644 2110.25 989.543 2112.05V2153.88C989.415 2157.61 988.374 2161.25 986.513 2164.48C984.651 2167.71 982.026 2170.44 978.866 2172.42L942.662 2193.39C940.843 2194.49 938.768 2195.09 936.644 2195.13ZM980.516 2110.3C979.941 2110.46 979.387 2110.69 978.866 2110.98L942.662 2131.85C940.843 2133.08 939.328 2134.7 938.235 2136.6C937.141 2138.5 936.497 2140.63 936.353 2142.82V2184.65C936.191 2185.22 936.191 2185.83 936.353 2186.4C936.933 2186.3 937.491 2186.11 938.003 2185.82L974.207 2164.85C976.026 2163.63 977.541 2162 978.634 2160.1C979.728 2158.2 980.372 2156.07 980.516 2153.88V2112.05C980.564 2111.63 980.564 2111.21 980.516 2110.79V2110.3Z" fill="#455A64"/>
<path d="M1020.31 2097.39L1162.99 2014.99C1167.75 2012.27 1171.53 2014.41 1171.53 2019.84V2031C1171.36 2033.95 1170.5 2036.81 1169.02 2039.35C1167.53 2041.9 1165.47 2044.06 1162.99 2045.66L1020.31 2128.07C1015.65 2130.78 1011.77 2128.65 1011.77 2123.21V2112.05C1011.94 2109.11 1012.8 2106.25 1014.29 2103.7C1015.77 2101.15 1017.83 2098.99 1020.31 2097.39Z" fill="#E0E0E0"/>
<path d="M1290.24 1991.01C1288.71 1991.03 1287.2 1990.63 1285.88 1989.85C1284.26 1988.83 1282.96 1987.38 1282.12 1985.67C1281.28 1983.96 1280.93 1982.04 1281.12 1980.14V1938.31C1281.28 1934.58 1282.35 1930.94 1284.22 1927.71C1286.1 1924.48 1288.73 1921.76 1291.89 1919.77L1328.1 1898.9C1329.59 1897.83 1331.37 1897.2 1333.21 1897.1C1335.04 1897 1336.88 1897.42 1338.48 1898.32C1340.05 1899.26 1341.32 1900.63 1342.14 1902.26C1342.97 1903.89 1343.31 1905.72 1343.14 1907.54V1949.37C1343.01 1953.1 1341.97 1956.74 1340.11 1959.97C1338.25 1963.2 1335.62 1965.93 1332.47 1967.91L1296.26 1988.88C1294.48 1990.11 1292.4 1990.85 1290.24 1991.01ZM1334.02 1906.18C1333.49 1906.37 1332.97 1906.6 1332.47 1906.86L1296.26 1927.73C1294.43 1928.95 1292.9 1930.57 1291.79 1932.47C1290.68 1934.37 1290.02 1936.5 1289.85 1938.7V1980.53C1289.66 1981.1 1289.66 1981.71 1289.85 1982.28C1290.43 1982.16 1290.99 1981.97 1291.5 1981.7L1327.71 1960.73C1329.54 1959.52 1331.06 1957.89 1332.16 1955.99C1333.25 1954.09 1333.89 1951.95 1334.02 1949.76V1907.93C1334.19 1907.36 1334.19 1906.75 1334.02 1906.18Z" fill="#455A64"/>
<path d="M1373.91 1893.27L1516.59 1810.87C1521.35 1808.15 1525.13 1810.28 1525.13 1815.72V1826.88C1524.96 1829.82 1524.1 1832.68 1522.62 1835.23C1521.13 1837.78 1519.07 1839.94 1516.59 1841.54L1373.91 1923.94C1369.15 1926.66 1365.37 1924.53 1365.37 1919.09V1907.93C1365.59 1905 1366.47 1902.16 1367.95 1899.62C1369.43 1897.08 1371.47 1894.91 1373.91 1893.27Z" fill="#E0E0E0"/>
<path d="M1643.74 1786.89C1642.21 1786.9 1640.7 1786.49 1639.38 1785.73C1637.79 1784.68 1636.52 1783.23 1635.7 1781.52C1634.88 1779.81 1634.54 1777.91 1634.72 1776.02V1734.19C1634.87 1730.46 1635.92 1726.83 1637.78 1723.61C1639.64 1720.38 1642.25 1717.65 1645.39 1715.65L1681.6 1694.78C1683.11 1693.75 1684.87 1693.17 1686.7 1693.1C1688.52 1693.03 1690.33 1693.48 1691.91 1694.39C1693.49 1695.31 1694.78 1696.65 1695.64 1698.26C1696.49 1699.87 1696.87 1701.69 1696.74 1703.51V1745.25C1696.59 1748.99 1695.53 1752.63 1693.66 1755.86C1691.78 1759.09 1689.14 1761.81 1685.96 1763.79L1649.76 1784.75C1647.99 1786 1645.91 1786.74 1643.74 1786.89ZM1649.76 1723.61C1647.96 1724.85 1646.45 1726.48 1645.36 1728.37C1644.27 1730.27 1643.62 1732.39 1643.45 1734.57V1776.41C1643.26 1776.97 1643.26 1777.59 1643.45 1778.15C1644.01 1778.09 1644.54 1777.89 1645 1777.57L1681.21 1756.61C1683.04 1755.39 1684.57 1753.76 1685.68 1751.86C1686.79 1749.96 1687.45 1747.83 1687.61 1745.64V1703.9C1687.8 1703.3 1687.8 1702.66 1687.61 1702.06C1687.61 1702.06 1687.03 1702.06 1685.96 1702.74L1649.76 1723.61Z" fill="#455A64"/>
<path d="M1727.51 1689.15L1870.19 1606.74C1874.85 1604.02 1878.73 1606.16 1878.73 1611.6V1622.76C1878.51 1625.69 1877.62 1628.53 1876.14 1631.07C1874.66 1633.61 1872.63 1635.78 1870.19 1637.41L1727.51 1719.82C1722.75 1722.54 1718.96 1720.4 1718.96 1714.97V1703.8C1719.14 1700.86 1720 1698 1721.48 1695.45C1722.97 1692.91 1725.03 1690.75 1727.51 1689.15Z" fill="#E0E0E0"/>
<path d="M1020.7 1893.17V1909.48C1020.7 1918.41 1026.91 1922 1034.58 1917.54L1869.32 1436.01C1873.36 1433.35 1876.73 1429.78 1879.14 1425.58C1881.55 1421.38 1882.94 1416.68 1883.2 1411.84V1395.44C1883.2 1386.61 1876.98 1383.01 1869.32 1387.38L1034.58 1869.01C1030.53 1871.66 1027.17 1875.24 1024.76 1879.43C1022.34 1883.63 1020.96 1888.34 1020.7 1893.17Z" fill="#E0E0E0"/>
<path d="M957.125 1765.83V1782.13C957.125 1791.06 963.337 1794.66 971.102 1790.19L1805.35 1308.66C1809.43 1306.03 1812.82 1302.46 1815.25 1298.26C1817.68 1294.06 1819.08 1289.34 1819.33 1284.5V1268.09C1819.33 1259.26 1813.12 1255.67 1805.35 1260.04L971.102 1741.95C967.065 1744.56 963.696 1748.08 961.268 1752.22C958.84 1756.37 957.421 1761.03 957.125 1765.83Z" fill="#455A64"/>
<path d="M1020.7 1991.89V2008.29C1020.7 2017.12 1026.91 2020.72 1034.58 2016.35L1869.32 1534.82C1873.36 1532.16 1876.73 1528.59 1879.14 1524.39C1881.55 1520.19 1882.94 1515.49 1883.2 1510.65V1494.25C1883.2 1485.42 1876.98 1481.82 1869.32 1486.19L1034.58 1967.82C1030.54 1970.46 1027.19 1974.02 1024.78 1978.2C1022.37 1982.38 1020.97 1987.07 1020.7 1991.89Z" fill="#E0E0E0"/>
<path d="M929.268 2000.33C951.107 1978.69 956.542 1969.46 956.542 1961.51C956.542 1953.55 953.339 1949.28 943.536 1954.91C939.298 1957.37 935.65 1960.73 932.85 1964.76C930.049 1968.78 928.164 1973.37 927.327 1978.2L903.449 1983.54C905.528 1971.03 910.247 1959.11 917.293 1948.56C924.339 1938.02 933.55 1929.1 944.312 1922.39C968.19 1908.61 982.07 1918.9 982.07 1941.8C980.736 1964.1 971.029 1985.08 954.892 2000.52V2019.45L929.268 2034.21V2000.33Z" fill="#455A64"/>
<path d="M928.978 2063.23C928.938 2058.56 930.118 2053.97 932.399 2049.9C934.68 2045.83 937.984 2042.43 941.984 2040.03C950.525 2035.08 954.893 2039.45 954.893 2048.28C954.967 2052.97 953.814 2057.59 951.55 2061.69C949.285 2065.8 945.988 2069.24 941.984 2071.67C933.345 2076.62 928.978 2071.96 928.978 2063.23Z" fill="#455A64"/>
<path d="M942.272 2142.82L952.949 2150.87L943.243 2169.32C942.408 2170.44 941.957 2171.8 941.957 2173.2C941.957 2174.6 942.408 2175.96 943.243 2177.08C945.087 2178.44 947.708 2177.08 949.261 2174.17L958.967 2155.82L969.644 2163.88C971.197 2165.05 973.526 2163.88 974.885 2161.36C975.602 2160.39 975.989 2159.21 975.989 2158.01C975.989 2156.8 975.602 2155.63 974.885 2154.66L964.208 2146.6L973.915 2128.16C974.75 2127.04 975.201 2125.68 975.201 2124.28C975.201 2122.88 974.75 2121.52 973.915 2120.4C972.07 2119.04 969.45 2120.4 967.897 2123.31L958.19 2141.75L947.514 2133.69C945.961 2132.53 943.631 2133.69 942.272 2136.12C941.555 2137.09 941.168 2138.26 941.168 2139.47C941.168 2140.68 941.555 2141.85 942.272 2142.82Z" fill="#DFBDB9"/>
<path d="M936.644 2563.68C935.119 2563.72 933.611 2563.35 932.276 2562.61C930.679 2561.58 929.398 2560.13 928.576 2558.42C927.753 2556.71 927.422 2554.8 927.617 2552.91V2511.07C927.745 2507.35 928.786 2503.71 930.647 2500.48C932.509 2497.24 935.134 2494.52 938.294 2492.53L974.498 2471.67C976 2470.67 977.747 2470.12 979.546 2470.06C981.345 2470 983.124 2470.45 984.685 2471.35C986.246 2472.24 987.527 2473.55 988.385 2475.14C989.242 2476.72 989.644 2478.51 989.543 2480.31V2522.14C989.415 2525.87 988.374 2529.51 986.513 2532.74C984.651 2535.97 982.026 2538.7 978.866 2540.68L942.662 2561.55C940.883 2562.78 938.805 2563.52 936.644 2563.68ZM980.516 2478.95C979.924 2479.05 979.362 2479.29 978.866 2479.63L942.662 2500.49C940.843 2501.72 939.328 2503.35 938.235 2505.25C937.141 2507.15 936.497 2509.27 936.353 2511.46V2553.3C936.191 2553.87 936.191 2554.47 936.353 2555.04C936.933 2554.95 937.491 2554.75 938.003 2554.46L974.207 2533.5C976.026 2532.27 977.541 2530.64 978.634 2528.74C979.728 2526.84 980.372 2524.72 980.516 2522.53V2480.69C980.609 2480.11 980.609 2479.53 980.516 2478.95Z" fill="#455A64"/>
<path d="M1020.31 2465.94L1162.99 2383.63C1167.75 2380.91 1171.53 2383.05 1171.53 2388.48V2399.55C1171.38 2402.51 1170.52 2405.39 1169.04 2407.95C1167.55 2410.52 1165.48 2412.69 1162.99 2414.3L1020.31 2496.71C1015.65 2499.43 1011.77 2497.19 1011.77 2491.76V2480.69C1011.93 2477.74 1012.79 2474.86 1014.28 2472.3C1015.76 2469.73 1017.83 2467.55 1020.31 2465.94Z" fill="#E0E0E0"/>
<path d="M1290.24 2359.56C1288.72 2359.61 1287.21 2359.24 1285.88 2358.49C1284.26 2357.47 1282.96 2356.03 1282.12 2354.31C1281.28 2352.6 1280.93 2350.68 1281.12 2348.78V2306.95C1281.27 2303.22 1282.33 2299.57 1284.2 2296.34C1286.08 2293.11 1288.72 2290.39 1291.89 2288.41L1328.1 2267.54C1329.59 2266.47 1331.37 2265.85 1333.21 2265.74C1335.04 2265.64 1336.88 2266.06 1338.48 2266.96C1340.05 2267.9 1341.32 2269.27 1342.14 2270.9C1342.97 2272.53 1343.31 2274.36 1343.14 2276.18V2318.02C1343.01 2321.74 1341.97 2325.38 1340.11 2328.61C1338.25 2331.85 1335.62 2334.57 1332.47 2336.56L1296.26 2357.42C1294.48 2358.66 1292.4 2359.4 1290.24 2359.56ZM1334.02 2274.82C1333.47 2274.96 1332.94 2275.19 1332.47 2275.5L1296.26 2296.37C1294.43 2297.59 1292.9 2299.21 1291.79 2301.11C1290.68 2303.02 1290.02 2305.14 1289.85 2307.34V2349.17C1289.66 2349.74 1289.66 2350.35 1289.85 2350.92C1290.43 2350.81 1290.99 2350.61 1291.5 2350.34L1327.71 2329.37C1329.53 2328.15 1331.04 2326.52 1332.14 2324.62C1333.23 2322.72 1333.87 2320.59 1334.02 2318.4V2276.57C1334.19 2276 1334.19 2275.39 1334.02 2274.82Z" fill="#455A64"/>
<path d="M1373.91 2261.82L1516.59 2179.51C1521.35 2176.79 1525.13 2178.93 1525.13 2184.36V2195.43C1524.98 2198.39 1524.12 2201.27 1522.64 2203.83C1521.15 2206.4 1519.08 2208.57 1516.59 2210.18L1373.91 2292.59C1369.15 2295.3 1365.37 2292.59 1365.37 2287.64V2276.57C1365.57 2273.62 1366.45 2270.76 1367.93 2268.21C1369.41 2265.65 1371.46 2263.46 1373.91 2261.82Z" fill="#E0E0E0"/>
<path d="M1643.74 2155.44C1642.22 2155.48 1640.71 2155.11 1639.38 2154.37C1637.79 2153.32 1636.52 2151.87 1635.7 2150.16C1634.88 2148.45 1634.54 2146.55 1634.72 2144.66V2102.83C1634.87 2099.11 1635.92 2095.48 1637.78 2092.25C1639.64 2089.02 1642.25 2086.29 1645.39 2084.29L1681.6 2063.42C1683.1 2062.4 1684.86 2061.82 1686.67 2061.75C1688.49 2061.68 1690.28 2062.12 1691.86 2063.02C1693.44 2063.92 1694.73 2065.24 1695.59 2066.84C1696.46 2068.44 1696.85 2070.25 1696.74 2072.06V2113.89C1696.59 2117.63 1695.53 2121.27 1693.66 2124.5C1691.78 2127.73 1689.14 2130.46 1685.96 2132.43L1649.76 2153.3C1647.99 2154.55 1645.91 2155.28 1643.74 2155.44ZM1649.76 2092.25C1647.96 2093.49 1646.45 2095.12 1645.36 2097.02C1644.27 2098.92 1643.62 2101.03 1643.45 2103.22V2145.05C1643.26 2145.62 1643.26 2146.23 1643.45 2146.8C1643.99 2146.67 1644.52 2146.48 1645 2146.22L1681.21 2125.25C1683.04 2124.03 1684.57 2122.41 1685.68 2120.51C1686.79 2118.61 1687.45 2116.48 1687.61 2114.28V2072.45C1687.79 2071.88 1687.79 2071.27 1687.61 2070.7C1687.03 2070.84 1686.48 2071.07 1685.96 2071.38L1649.76 2092.25Z" fill="#455A64"/>
<path d="M1727.51 2057.7L1870.19 1975.39C1874.85 1972.67 1878.73 1974.8 1878.73 1980.24V1991.31C1878.52 1994.25 1877.65 1997.11 1876.16 1999.67C1874.68 2002.23 1872.64 2004.41 1870.19 2006.06L1727.51 2088.46C1722.75 2091.18 1718.96 2088.95 1718.96 2083.51V2072.45C1719.12 2069.49 1719.98 2066.61 1721.46 2064.04C1722.94 2061.48 1725.02 2059.3 1727.51 2057.7Z" fill="#E0E0E0"/>
<path d="M1020.7 2261.72V2278.12C1020.7 2286.96 1026.91 2290.55 1034.58 2286.18L1869.32 1804.65C1873.36 1802 1876.73 1798.42 1879.14 1794.23C1881.55 1790.03 1882.94 1785.32 1883.2 1780.49V1764.08C1883.2 1755.25 1876.98 1751.66 1869.32 1756.03L1034.58 2237.65C1030.54 2240.3 1027.19 2243.85 1024.78 2248.04C1022.37 2252.22 1020.97 2256.9 1020.7 2261.72Z" fill="#E0E0E0"/>
<path d="M1020.7 2360.53V2376.93C1020.7 2385.77 1026.91 2389.36 1034.58 2384.99L1869.32 1903.37C1873.37 1900.74 1876.75 1897.19 1879.16 1893C1881.57 1888.82 1882.96 1884.12 1883.2 1879.29V1862.89C1883.2 1853.96 1876.98 1850.37 1869.32 1854.83L1034.58 2336.46C1030.54 2339.11 1027.19 2342.66 1024.78 2346.84C1022.37 2351.02 1020.97 2355.71 1020.7 2360.53Z" fill="#E0E0E0"/>
<path d="M929.268 2368.97C951.107 2347.33 956.542 2338.11 956.542 2330.15C956.542 2322.19 953.339 2317.92 943.536 2323.55C939.298 2326.01 935.65 2329.38 932.85 2333.4C930.049 2337.42 928.164 2342.01 927.327 2346.84L903.449 2352.18C905.528 2339.67 910.247 2327.75 917.293 2317.21C924.339 2306.66 933.55 2297.74 944.312 2291.03C968.19 2277.25 982.07 2287.54 982.07 2310.93C980.736 2333.23 971.029 2354.21 954.892 2369.65V2388.58L929.268 2403.33V2368.97Z" fill="#455A64"/>
<path d="M928.978 2431.87C928.938 2427.21 930.118 2422.61 932.399 2418.54C934.68 2414.47 937.984 2411.07 941.984 2408.67C950.525 2403.72 954.893 2408.09 954.893 2416.92C954.957 2421.61 953.8 2426.23 951.537 2430.33C949.273 2434.43 945.981 2437.87 941.984 2440.31C933.345 2445.26 928.978 2440.8 928.978 2431.87Z" fill="#455A64"/>
<path d="M1295.87 2306.95L1306.55 2315.01L1296.84 2333.45C1296.01 2334.57 1295.55 2335.93 1295.55 2337.33C1295.55 2338.73 1296.01 2340.09 1296.84 2341.22C1298.59 2342.57 1301.31 2341.22 1302.86 2338.3L1312.56 2319.96L1323.24 2328.01C1324.79 2329.18 1327.12 2328.01 1328.39 2325.49C1329.1 2324.52 1329.49 2323.35 1329.49 2322.14C1329.49 2320.94 1329.1 2319.76 1328.39 2318.79L1317.71 2310.74L1327.42 2292.3C1328.2 2291.13 1328.57 2289.73 1328.49 2288.33C1328.4 2286.93 1327.85 2285.59 1326.93 2284.53C1325.18 2283.27 1322.46 2284.53 1320.91 2287.44L1311.21 2305.88L1300.53 2297.83C1299.07 2296.66 1296.74 2297.83 1295.38 2300.25C1294.72 2301.27 1294.41 2302.48 1294.49 2303.69C1294.58 2304.9 1295.07 2306.04 1295.87 2306.95Z" fill="#DFBDB9"/>
<path d="M936.643 2932.32C935.11 2932.33 933.602 2931.93 932.275 2931.16C930.71 2930.22 929.442 2928.85 928.617 2927.22C927.793 2925.59 927.446 2923.76 927.616 2921.94V2880.11C927.745 2876.38 928.785 2872.74 930.647 2869.51C932.508 2866.27 935.134 2863.55 938.293 2861.57L974.498 2840.7C975.999 2839.71 977.747 2839.15 979.546 2839.09C981.344 2839.04 983.124 2839.48 984.684 2840.38C986.245 2841.27 987.526 2842.59 988.384 2844.17C989.242 2845.75 989.643 2847.54 989.542 2849.34V2891.17C989.414 2894.9 988.374 2898.54 986.512 2901.77C984.651 2905 982.025 2907.73 978.865 2909.71L942.661 2930.58C940.843 2931.68 938.768 2932.28 936.643 2932.32ZM980.516 2847.59C979.924 2847.7 979.361 2847.93 978.865 2848.27L942.661 2869.14C940.842 2870.36 939.328 2871.99 938.234 2873.89C937.14 2875.79 936.497 2877.92 936.352 2880.11V2921.94C936.204 2922.51 936.204 2923.11 936.352 2923.69C936.944 2923.58 937.506 2923.35 938.002 2923.01L974.206 2902.14C976.026 2900.91 977.54 2899.29 978.634 2897.39C979.727 2895.49 980.371 2893.36 980.516 2891.17V2849.34C980.608 2848.76 980.608 2848.17 980.516 2847.59Z" fill="#455A64"/>
<path d="M1020.31 2834.58L1162.99 2752.18C1167.75 2749.46 1171.53 2751.69 1171.53 2757.13V2768.19C1171.38 2771.15 1170.52 2774.03 1169.04 2776.6C1167.55 2779.16 1165.48 2781.34 1162.99 2782.95L1020.31 2865.35C1015.65 2868.07 1011.77 2865.84 1011.77 2860.4V2849.34C1011.93 2846.38 1012.79 2843.5 1014.28 2840.94C1015.76 2838.37 1017.83 2836.2 1020.31 2834.58Z" fill="#E0E0E0"/>
<path d="M1290.24 2728.2C1288.71 2728.22 1287.2 2727.82 1285.88 2727.04C1284.29 2726.11 1283 2724.75 1282.16 2723.12C1281.32 2721.48 1280.96 2719.65 1281.12 2717.82V2675.98C1281.27 2672.25 1282.33 2668.61 1284.2 2665.38C1286.08 2662.14 1288.72 2659.42 1291.89 2657.45L1328.1 2636.58C1329.61 2635.55 1331.37 2634.95 1333.2 2634.83C1335.02 2634.71 1336.85 2635.08 1338.48 2635.9C1340.06 2636.94 1341.33 2638.4 1342.15 2640.11C1342.97 2641.82 1343.32 2643.72 1343.14 2645.6V2687.44C1343.01 2691.16 1341.97 2694.8 1340.11 2698.04C1338.25 2701.27 1335.63 2703.99 1332.47 2705.98L1296.26 2726.84C1294.41 2727.81 1292.33 2728.28 1290.24 2728.2ZM1334.02 2643.47C1333.47 2643.61 1332.94 2643.84 1332.47 2644.15L1296.26 2665.02C1294.43 2666.24 1292.9 2667.86 1291.79 2669.76C1290.68 2671.66 1290.02 2673.79 1289.85 2675.98V2717.82C1289.68 2718.39 1289.68 2719 1289.85 2719.56C1290.44 2719.44 1291 2719.21 1291.5 2718.89L1328.1 2698.02C1329.92 2696.79 1331.43 2695.17 1332.52 2693.26C1333.62 2691.36 1334.26 2689.24 1334.41 2687.05V2645.22C1334.48 2644.61 1334.34 2643.99 1334.02 2643.47Z" fill="#455A64"/>
<path d="M1373.91 2630.46L1516.59 2548.06C1521.35 2545.43 1525.13 2547.57 1525.13 2553.01V2564.07C1524.98 2567.03 1524.12 2569.91 1522.64 2572.47C1521.15 2575.04 1519.08 2577.22 1516.59 2578.82L1373.91 2661.23C1369.15 2663.95 1365.37 2661.72 1365.37 2656.28V2645.21C1365.57 2642.27 1366.45 2639.41 1367.93 2636.85C1369.41 2634.29 1371.46 2632.11 1373.91 2630.46Z" fill="#E0E0E0"/>
<path d="M1643.74 2524.08C1642.21 2524.09 1640.7 2523.68 1639.38 2522.92C1637.81 2521.97 1636.54 2520.61 1635.72 2518.98C1634.89 2517.34 1634.55 2515.51 1634.72 2513.69V2471.86C1634.85 2468.13 1635.89 2464.49 1637.75 2461.26C1639.61 2458.03 1642.24 2455.3 1645.39 2453.32L1681.6 2432.45C1683.08 2431.39 1684.83 2430.78 1686.65 2430.66C1688.47 2430.55 1690.28 2430.96 1691.88 2431.83C1693.48 2432.7 1694.8 2434 1695.7 2435.59C1696.59 2437.17 1697.02 2438.98 1696.94 2440.8V2482.63C1696.79 2486.37 1695.73 2490.01 1693.85 2493.24C1691.97 2496.47 1689.33 2499.2 1686.16 2501.17L1649.96 2522.04C1648.12 2523.29 1645.96 2523.99 1643.74 2524.08ZM1649.76 2460.89C1647.96 2462.13 1646.46 2463.76 1645.36 2465.66C1644.27 2467.56 1643.62 2469.68 1643.45 2471.86V2513.69C1643.28 2514.26 1643.28 2514.87 1643.45 2515.44C1644.01 2515.3 1644.53 2515.07 1645.01 2514.76L1681.21 2493.89C1683.04 2492.67 1684.57 2491.05 1685.68 2489.15C1686.79 2487.25 1687.45 2485.12 1687.62 2482.93V2440.8C1687.79 2440.23 1687.79 2439.62 1687.62 2439.05C1687.05 2439.18 1686.49 2439.38 1685.97 2439.64L1649.76 2460.89Z" fill="#455A64"/>
<path d="M1727.51 2426.34L1870.19 2343.93C1874.85 2341.31 1878.73 2343.93 1878.73 2348.88V2359.95C1878.52 2362.89 1877.65 2365.76 1876.16 2368.31C1874.68 2370.87 1872.64 2373.05 1870.19 2374.7L1727.51 2457.11C1722.75 2459.82 1718.96 2457.59 1718.96 2452.16V2440.8C1719.16 2437.89 1720.04 2435.07 1721.52 2432.56C1723.01 2430.05 1725.06 2427.92 1727.51 2426.34Z" fill="#E0E0E0"/>
<path d="M1020.7 2630.36V2646.77C1020.7 2655.6 1026.91 2659.19 1034.58 2654.82L1869.32 2173.2C1873.37 2170.57 1876.75 2167.02 1879.16 2162.84C1881.57 2158.65 1882.96 2153.95 1883.2 2149.13V2132.72C1883.2 2123.89 1876.98 2120.2 1869.32 2124.67L1034.58 2606.29C1030.54 2608.94 1027.19 2612.5 1024.78 2616.68C1022.37 2620.86 1020.97 2625.55 1020.7 2630.36Z" fill="#E0E0E0"/>
<path d="M1020.7 2729.17V2745.58C1020.7 2754.41 1026.91 2758 1034.58 2753.53L1869.32 2272.01C1873.36 2269.37 1876.73 2265.82 1879.14 2261.63C1881.55 2257.45 1882.94 2252.76 1883.2 2247.94V2231.53C1883.2 2222.6 1876.98 2219.01 1869.32 2223.48L1034.58 2705.1C1030.53 2707.74 1027.17 2711.29 1024.76 2715.47C1022.35 2719.66 1020.95 2724.35 1020.7 2729.17Z" fill="#E0E0E0"/>
<path d="M929.268 2737.62C951.107 2715.97 956.542 2706.75 956.542 2698.79C956.542 2690.83 953.339 2686.47 943.536 2692.19C939.298 2694.66 935.65 2698.02 932.85 2702.04C930.049 2706.07 928.164 2710.66 927.327 2715.49L903.449 2720.73C905.541 2708.24 910.266 2696.33 917.312 2685.81C924.357 2675.28 933.561 2666.37 944.312 2659.68C968.19 2645.89 982.07 2656.18 982.07 2679.09C980.736 2701.39 971.029 2722.36 954.892 2737.81V2756.74L929.268 2771.49V2737.62Z" fill="#455A64"/>
<path d="M928.974 2800.51C928.927 2795.84 930.103 2791.23 932.384 2787.14C934.665 2783.05 937.973 2779.64 941.98 2777.22C950.522 2772.37 954.89 2776.73 954.89 2785.57C954.944 2790.25 953.783 2794.87 951.521 2798.97C949.258 2803.07 945.971 2806.51 941.98 2808.96C933.342 2813.91 928.974 2809.64 928.974 2800.51Z" fill="#455A64"/>
<path d="M1649.47 2471.47L1660.05 2479.53L1650.34 2497.97C1649.49 2499.09 1649.03 2500.45 1649.03 2501.85C1649.03 2503.26 1649.49 2504.62 1650.34 2505.74C1652.09 2507.09 1654.81 2505.74 1656.36 2502.82L1666.07 2484.38L1676.74 2492.44C1678.3 2493.6 1680.53 2492.44 1681.89 2490.01C1682.62 2489.05 1683.02 2487.87 1683.02 2486.66C1683.02 2485.45 1682.62 2484.28 1681.89 2483.31L1671.21 2475.26L1680.92 2456.82C1681.66 2455.63 1682.01 2454.25 1681.92 2452.86C1681.83 2451.46 1681.31 2450.13 1680.43 2449.05C1678.69 2447.69 1675.97 2449.05 1674.41 2451.96L1664.71 2470.4L1654.03 2462.25C1652.48 2461.09 1650.15 2462.25 1648.89 2464.77C1648.24 2465.8 1647.94 2467.01 1648.04 2468.22C1648.15 2469.43 1648.65 2470.57 1649.47 2471.47Z" fill="#DFBDB9"/>
<path d="M936.643 3300.97C935.11 3300.97 933.602 3300.57 932.275 3299.8C930.71 3298.86 929.442 3297.5 928.617 3295.86C927.793 3294.23 927.446 3292.4 927.616 3290.58V3248.75C927.745 3245.02 928.785 3241.38 930.647 3238.15C932.508 3234.92 935.134 3232.19 938.293 3230.21L974.498 3209.24C976.032 3208.26 977.794 3207.69 979.614 3207.59C981.434 3207.49 983.249 3207.86 984.883 3208.66C986.481 3209.69 987.761 3211.14 988.584 3212.86C989.406 3214.57 989.738 3216.48 989.542 3218.37V3260.2C989.389 3263.92 988.338 3267.55 986.479 3270.78C984.62 3274.01 982.008 3276.74 978.865 3278.74L942.661 3299.61C940.806 3300.57 938.733 3301.04 936.643 3300.97ZM980.516 3216.23C979.936 3216.33 979.377 3216.53 978.865 3216.82L942.661 3237.78C940.842 3239.01 939.328 3240.63 938.234 3242.53C937.14 3244.43 936.497 3246.56 936.352 3248.75V3290.58C936.204 3291.16 936.204 3291.76 936.352 3292.33C936.927 3292.17 937.481 3291.94 938.002 3291.65L974.206 3270.78C976.026 3269.56 977.54 3267.93 978.634 3266.03C979.727 3264.13 980.371 3262 980.516 3259.81V3217.98C980.621 3217.4 980.621 3216.81 980.516 3216.23Z" fill="#455A64"/>
<path d="M1020.31 3203.23L1162.99 3120.82C1167.75 3118.1 1171.53 3120.33 1171.53 3125.77V3136.84C1171.38 3139.79 1170.52 3142.68 1169.04 3145.24C1167.55 3147.8 1165.48 3149.98 1162.99 3151.59L1020.31 3234C1015.65 3236.71 1011.77 3233.99 1011.77 3229.04V3217.98C1011.93 3215.02 1012.79 3212.14 1014.28 3209.58C1015.76 3207.02 1017.83 3204.84 1020.31 3203.23Z" fill="#E0E0E0"/>
<path d="M1290.24 3096.84C1288.71 3096.86 1287.2 3096.46 1285.88 3095.68C1284.21 3094.72 1282.87 3093.28 1282.02 3091.55C1281.17 3089.82 1280.86 3087.88 1281.12 3085.97V3044.14C1281.27 3040.41 1282.33 3036.76 1284.2 3033.53C1286.08 3030.3 1288.72 3027.58 1291.89 3025.6L1328.1 3004.64C1329.61 3003.64 1331.36 3003.08 1333.17 3003.03C1334.98 3002.97 1336.77 3003.43 1338.33 3004.33C1339.9 3005.24 1341.18 3006.57 1342.03 3008.17C1342.88 3009.76 1343.26 3011.57 1343.14 3013.37V3055.21C1343.01 3058.93 1341.97 3062.57 1340.11 3065.8C1338.25 3069.04 1335.63 3071.76 1332.47 3073.74L1296.26 3094.61C1294.49 3095.88 1292.41 3096.65 1290.24 3096.84ZM1334.02 3012.11C1333.48 3012.23 1332.95 3012.43 1332.47 3012.69L1296.26 3033.66C1294.43 3034.88 1292.9 3036.5 1291.79 3038.4C1290.68 3040.3 1290.02 3042.43 1289.86 3044.63V3086.46C1289.68 3087.03 1289.68 3087.64 1289.86 3088.21C1290.42 3088.03 1290.97 3087.8 1291.51 3087.53L1327.71 3066.66C1329.53 3065.43 1331.04 3063.81 1332.14 3061.91C1333.23 3060.01 1333.87 3057.88 1334.02 3055.69V3013.47C1334.13 3013.02 1334.13 3012.55 1334.02 3012.11Z" fill="#455A64"/>
<path d="M1373.91 2999.1L1516.59 2916.7C1521.35 2913.98 1525.13 2916.7 1525.13 2921.65V2932.71C1524.98 2935.67 1524.12 2938.55 1522.64 2941.12C1521.15 2943.68 1519.08 2945.86 1516.59 2947.47L1373.91 3029.87C1369.15 3032.59 1365.37 3030.36 1365.37 3024.92V3013.47C1365.63 3010.59 1366.54 3007.8 1368.01 3005.32C1369.49 3002.83 1371.51 3000.71 1373.91 2999.1Z" fill="#E0E0E0"/>
<path d="M1643.74 2892.72C1642.21 2892.73 1640.7 2892.33 1639.38 2891.56C1637.81 2890.62 1636.54 2889.25 1635.72 2887.62C1634.89 2885.99 1634.55 2884.16 1634.72 2882.34V2840.5C1634.85 2836.78 1635.89 2833.14 1637.75 2829.9C1639.61 2826.67 1642.24 2823.95 1645.39 2821.96L1681.6 2801C1683.15 2800.02 1684.93 2799.45 1686.76 2799.34C1688.6 2799.24 1690.43 2799.61 1692.08 2800.42C1693.66 2801.46 1694.93 2802.92 1695.75 2804.63C1696.57 2806.34 1696.91 2808.23 1696.74 2810.12V2851.96C1696.58 2855.69 1695.51 2859.32 1693.64 2862.55C1691.76 2865.78 1689.13 2868.51 1685.97 2870.5L1649.76 2891.36C1647.91 2892.34 1645.84 2892.81 1643.74 2892.72ZM1649.76 2829.54C1647.96 2830.78 1646.46 2832.41 1645.36 2834.3C1644.27 2836.2 1643.62 2838.32 1643.45 2840.5V2882.34C1643.28 2882.91 1643.28 2883.52 1643.45 2884.08C1643.99 2883.89 1644.5 2883.66 1645.01 2883.41L1681.21 2862.54C1683.04 2861.32 1684.57 2859.69 1685.68 2857.79C1686.79 2855.89 1687.45 2853.76 1687.62 2851.57V2809.64C1687.81 2809.07 1687.81 2808.46 1687.62 2807.89C1687.05 2808.02 1686.49 2808.21 1685.97 2808.47L1649.76 2829.54Z" fill="#455A64"/>
<path d="M1727.51 2794.98L1870.19 2712.58C1874.85 2709.86 1878.73 2712.09 1878.73 2717.53V2728.59C1878.52 2731.54 1877.65 2734.4 1876.16 2736.96C1874.68 2739.51 1872.64 2741.7 1870.19 2743.34L1727.51 2825.75C1722.75 2828.47 1718.96 2825.75 1718.96 2820.8V2809.64C1719.14 2806.7 1720 2803.83 1721.48 2801.29C1722.97 2798.74 1725.03 2796.58 1727.51 2794.98Z" fill="#E0E0E0"/>
<path d="M1020.7 2999.01V3015.41C1020.7 3024.24 1026.91 3027.83 1034.58 3023.37L1869.32 2541.84C1873.36 2539.21 1876.73 2535.65 1879.14 2531.47C1881.55 2527.29 1882.94 2522.59 1883.2 2517.77V2501.37C1883.2 2492.44 1876.98 2488.85 1869.32 2493.31L1034.58 2974.93C1030.53 2977.57 1027.17 2981.13 1024.76 2985.31C1022.35 2989.49 1020.95 2994.18 1020.7 2999.01Z" fill="#E0E0E0"/>
<path d="M1020.7 3097.82V3114.22C1020.7 3123.05 1026.91 3126.64 1034.58 3122.18L1869.32 2640.65C1873.35 2638 1876.71 2634.45 1879.12 2630.27C1881.53 2626.09 1882.92 2621.4 1883.2 2616.58V2600.18C1883.2 2591.25 1876.98 2587.66 1869.32 2592.12L1034.58 3073.74C1030.53 3076.38 1027.17 3079.94 1024.76 3084.12C1022.35 3088.3 1020.95 3092.99 1020.7 3097.82Z" fill="#E0E0E0"/>
<path d="M929.268 3106.26C951.107 3084.61 956.542 3075.39 956.542 3067.43C956.542 3059.48 953.339 3055.11 943.536 3060.83C939.309 3063.29 935.668 3066.64 932.868 3070.64C930.069 3074.65 928.177 3079.22 927.327 3084.03L903.449 3089.37C905.541 3076.88 910.266 3064.97 917.312 3054.45C924.357 3043.92 933.561 3035.01 944.312 3028.32C968.19 3014.54 982.07 3024.82 982.07 3048.22C980.736 3070.52 971.029 3091.49 954.892 3106.94V3125.87L929.268 3140.62V3106.26Z" fill="#455A64"/>
<path d="M928.974 3168.77C928.927 3164.09 930.103 3159.48 932.384 3155.39C934.665 3151.31 937.973 3147.89 941.98 3145.47C950.522 3140.62 954.89 3144.89 954.89 3153.82C954.956 3158.49 953.8 3163.1 951.535 3167.19C949.27 3171.27 945.977 3174.69 941.98 3177.12C933.342 3182.55 928.974 3178.47 928.974 3168.77Z" fill="#455A64"/>
<path d="M1649.47 2841.67L1660.05 2849.72L1650.34 2868.17C1649.49 2869.28 1649.03 2870.65 1649.03 2872.05C1649.03 2873.45 1649.49 2874.81 1650.34 2875.93C1652.09 2877.29 1654.81 2875.93 1656.36 2873.02L1666.07 2854.58L1676.74 2862.73C1678.3 2863.9 1680.53 2862.73 1681.89 2860.21C1682.62 2859.24 1683.02 2858.07 1683.02 2856.86C1683.02 2855.65 1682.62 2854.47 1681.89 2853.51L1671.21 2845.45L1680.92 2827.01C1681.66 2825.83 1682.01 2824.44 1681.92 2823.05C1681.83 2821.66 1681.31 2820.33 1680.43 2819.25C1678.69 2817.89 1675.97 2819.25 1674.41 2822.16L1664.71 2840.6L1654.03 2832.45C1652.48 2831.38 1650.15 2832.45 1648.89 2834.97C1648.24 2836 1647.94 2837.21 1648.04 2838.42C1648.15 2839.63 1648.65 2840.77 1649.47 2841.67Z" fill="#DFBDB9"/>
<path d="M2595.05 1270.81L2523.71 1229.66L2523.03 1229.17C2487.51 1209.08 2438.88 1212.09 2385.01 1243.25C2334.54 1272.36 2288.53 1320.9 2253.88 1376.9C2213.79 1441.54 2188.65 1516.28 2188.65 1583.35C2188.65 1645.96 2210.49 1690.12 2245.92 1710.41L2318.42 1751.85C2354.14 1774.66 2404.71 1772.62 2460.72 1740.3C2569.23 1677.6 2657.17 1525.31 2657.17 1400.1C2657.08 1335.16 2633.2 1290.22 2595.05 1270.81Z" fill="#DFBDB9"/>
<path opacity="0.1" d="M2316.87 1751.66L2245.82 1710.99C2210.39 1690.41 2188.55 1646.44 2188.55 1583.93C2188.55 1516.86 2213.69 1442.13 2253.78 1377.48L2329.59 1421.26C2289.5 1485.8 2264.36 1560.54 2264.36 1627.52C2264.17 1686.92 2284.16 1729.72 2316.87 1751.66Z" fill="black"/>
<path opacity="0.4" d="M2593.6 1270.04C2558.65 1253.05 2511.97 1257.32 2460.62 1286.92C2409.27 1316.53 2364.14 1364.57 2329.39 1420.87L2253.59 1377.1C2288.24 1320.9 2334.34 1272.46 2384.72 1243.44C2438.59 1212.28 2487.21 1209.37 2522.74 1229.37L2523.42 1229.85L2593.6 1270.04Z" fill="white"/>
<path d="M2417.23 1455.23C2417.37 1462.79 2415.76 1470.28 2412.53 1477.11C2409.29 1483.95 2404.53 1489.95 2398.6 1494.64C2388.31 1500.56 2379.96 1492.6 2379.96 1476.78C2379.82 1469.22 2381.44 1461.73 2384.67 1454.89C2387.9 1448.06 2392.67 1442.06 2398.6 1437.37C2408.89 1431.35 2417.23 1439.41 2417.23 1455.23Z" fill="#455A64"/>
<path d="M2523.32 1393.98C2523.46 1401.54 2521.85 1409.03 2518.62 1415.87C2515.38 1422.7 2510.62 1428.7 2504.69 1433.39C2494.4 1439.31 2486.05 1431.35 2486.05 1415.53C2485.91 1407.97 2487.53 1400.48 2490.76 1393.65C2493.99 1386.81 2498.76 1380.81 2504.69 1376.12C2514.98 1370.2 2523.32 1378.16 2523.32 1393.98Z" fill="#455A64"/>
<path d="M2353.85 1691.87C2353.11 1691.96 2352.36 1691.96 2351.62 1691.87C2350.25 1691.59 2348.94 1691.04 2347.78 1690.26C2346.62 1689.47 2345.62 1688.46 2344.85 1687.29C2344.09 1686.11 2343.56 1684.8 2343.3 1683.42C2343.05 1682.04 2343.07 1680.62 2343.37 1679.25C2360.26 1598.98 2403.26 1528.71 2452.86 1500.07C2462.96 1493.37 2474.48 1489.12 2486.52 1487.67C2498.55 1486.22 2510.76 1487.61 2522.16 1491.73C2545.55 1501.43 2563.6 1524.82 2572.92 1558.02C2573.39 1560.66 2572.86 1563.38 2571.43 1565.65C2570 1567.92 2567.78 1569.57 2565.19 1570.29C2562.61 1571.01 2559.85 1570.73 2557.45 1569.52C2555.06 1568.31 2553.2 1566.25 2552.25 1563.75C2544.87 1537.15 2531.28 1518.61 2514.1 1511.53C2505.72 1508.77 2496.81 1507.99 2488.08 1509.24C2479.34 1510.48 2471.01 1513.72 2463.73 1518.71C2419.86 1544.04 2379.96 1610.34 2364.53 1683.71C2363.94 1686.08 2362.56 1688.18 2360.62 1689.66C2358.68 1691.14 2356.29 1691.92 2353.85 1691.87Z" fill="#455A64"/>
<path d="M2595.05 649.806L2523.71 608.652H2523.03C2487.51 588.56 2438.88 591.569 2385.01 622.726C2334.54 651.845 2288.53 700.376 2253.88 756.381C2213.79 821.024 2188.65 895.762 2188.65 962.832C2188.65 1025.44 2210.49 1069.6 2245.92 1089.89L2318.42 1131.33C2354.14 1154.14 2404.71 1152.1 2460.72 1119.78C2569.23 1057.08 2657.17 904.789 2657.17 780.064C2657.08 714.159 2633.2 669.219 2595.05 649.806Z" fill="#DFBDB9"/>
<path opacity="0.1" d="M2316.87 1130.46L2245.82 1089.79C2210.39 1069.21 2188.55 1025.24 2188.55 962.735C2188.55 895.665 2213.69 820.927 2253.78 756.283L2329.59 800.058C2289.5 864.605 2264.36 939.343 2264.36 1006.32C2264.17 1065.91 2284.16 1108.72 2316.87 1130.46Z" fill="black"/>
<path opacity="0.4" d="M2593.6 649.03C2558.65 632.044 2511.97 636.314 2460.62 665.918C2409.27 695.522 2364.14 743.568 2329.39 799.865L2253.59 756.089C2288.24 699.89 2334.34 651.456 2384.72 622.434C2438.59 591.277 2487.21 588.366 2522.74 608.36H2523.42L2593.6 649.03Z" fill="white"/>
<path d="M2416.07 1040.09C2406.85 1040.12 2397.72 1038.34 2389.18 1034.85C2363.85 1024.47 2344.44 999.133 2334.44 963.317C2333.76 960.419 2334.23 957.371 2335.75 954.81C2337.27 952.249 2339.71 950.372 2342.58 949.571C2345.44 948.769 2348.51 949.106 2351.13 950.51C2353.76 951.913 2355.74 954.276 2356.67 957.105C2364.72 986.224 2379.38 1005.64 2397.92 1013.5C2406.98 1016.52 2416.63 1017.41 2426.09 1016.08C2435.56 1014.74 2444.59 1011.24 2452.47 1005.83C2499.74 978.556 2542.83 906.924 2559.23 827.721C2559.89 824.734 2561.69 822.124 2564.25 820.453C2566.81 818.783 2569.92 818.186 2572.92 818.791C2574.41 819.103 2575.82 819.704 2577.07 820.561C2578.32 821.418 2579.39 822.513 2580.22 823.784C2581.05 825.055 2581.62 826.477 2581.9 827.968C2582.18 829.46 2582.16 830.992 2581.85 832.477C2563.6 919.057 2517.21 994.96 2463.73 1025.92C2449.34 1034.7 2432.91 1039.59 2416.07 1040.09Z" fill="#455A64"/>
<path d="M2413.93 847.91C2414.07 856.078 2412.33 864.168 2408.85 871.556C2405.37 878.945 2400.23 885.433 2393.84 890.521C2382.68 896.927 2373.75 888.288 2373.75 871.108C2373.59 862.951 2375.31 854.868 2378.8 847.492C2382.29 840.115 2387.43 833.647 2393.84 828.595C2404.91 822.189 2413.93 830.827 2413.93 847.91Z" fill="#455A64"/>
<path d="M2528.47 781.811C2528.61 789.965 2526.87 798.041 2523.39 805.414C2519.9 812.786 2514.77 819.257 2508.38 824.325C2497.31 830.731 2488.29 822.092 2488.29 804.912C2488.14 796.759 2489.88 788.683 2493.37 781.31C2496.85 773.937 2501.99 767.466 2508.38 762.399C2519.44 755.993 2528.47 764.728 2528.47 781.811Z" fill="#455A64"/>
<path d="M2741.03 2397.71L2226.6 2694.72C2221.43 2697.35 2215.71 2698.72 2209.91 2698.72C2204.1 2698.72 2198.38 2697.35 2193.21 2694.72L2165.94 2678.89C2161.05 2675.71 2156.99 2671.41 2154.09 2666.34C2151.18 2661.28 2149.52 2655.6 2149.24 2649.78V2055.75C2149.52 2049.93 2151.18 2044.25 2154.09 2039.19C2156.99 2034.12 2161.05 2029.82 2165.94 2026.64L2680.37 1729.62C2685.52 1726.99 2691.23 1725.62 2697.01 1725.62C2702.8 1725.62 2708.51 1726.99 2713.66 1729.62L2740.93 1745.54C2745.83 1748.72 2749.9 1753.02 2752.81 1758.08C2755.71 1763.15 2757.36 1768.83 2757.63 1774.66V2368.78C2757.33 2374.57 2755.67 2380.2 2752.79 2385.23C2749.9 2390.25 2745.88 2394.53 2741.03 2397.71Z" fill="#455A64"/>
<path d="M2223.79 2695.98C2218.89 2697.94 2213.63 2698.85 2208.36 2698.63C2203.09 2698.41 2197.93 2697.08 2193.21 2694.72L2165.94 2678.8C2161.05 2675.62 2157 2671.32 2154.11 2666.25C2151.22 2661.19 2149.59 2655.5 2149.34 2649.68V2055.66C2149.48 2049.83 2151.16 2044.14 2154.19 2039.16L2214.76 2074.39C2211.77 2079.35 2210.1 2085 2209.91 2090.79V2684.82C2209.91 2694.62 2215.83 2699.08 2223.79 2695.98Z" fill="#263238"/>
<path d="M2741.03 2397.71L2226.6 2694.72C2217.38 2700.06 2209.91 2695.78 2209.91 2685.01V2091.38C2210.19 2085.55 2211.85 2079.87 2214.75 2074.81C2217.65 2069.75 2221.71 2065.45 2226.6 2062.26L2741.03 1765.25C2750.25 1759.91 2757.73 1764.28 2757.73 1774.95V2369.07C2757.37 2374.82 2755.68 2380.4 2752.78 2385.37C2749.88 2390.34 2745.86 2394.57 2741.03 2397.71Z" fill="#37474F"/>
<path fill-rule="evenodd" clip-rule="evenodd" d="M2469.74 2249.68L2329.97 2447.69C2391.7 2510.1 2510.51 2463.22 2595.34 2342.96C2646.3 2270.84 2673.67 2193 2673.67 2120.3L2504.49 2217.56C2491.07 2226.08 2479.29 2236.97 2469.74 2249.68Z" fill="#DFBDB9"/>
<path opacity="0.3" fill-rule="evenodd" clip-rule="evenodd" d="M2469.74 2249.68L2329.97 2447.69C2391.7 2510.1 2510.51 2463.22 2595.34 2342.96C2646.3 2270.84 2673.67 2193 2673.67 2120.3L2504.49 2217.56C2491.07 2226.08 2479.29 2236.97 2469.74 2249.68Z" fill="black"/>
<path d="M2322.89 2442.64L2462.66 2244.64C2472.93 2231 2485.63 2219.39 2500.12 2210.37L2669.3 2112.73C2670.63 2111.96 2672.14 2111.56 2673.67 2111.56C2675.2 2111.56 2676.71 2111.96 2678.04 2112.73C2679.37 2113.5 2680.47 2114.6 2681.24 2115.93C2682 2117.26 2682.41 2118.77 2682.41 2120.3C2682.41 2195.23 2654.74 2274.05 2602.52 2348.01C2546.32 2427.6 2474.11 2478.27 2409.37 2483.9C2393.78 2485.7 2377.98 2483.96 2363.15 2478.8C2348.33 2473.64 2334.86 2465.19 2323.76 2454.1C2322.42 2452.74 2321.56 2450.98 2321.31 2449.08C2321.07 2447.19 2321.45 2445.27 2322.4 2443.61C2322.46 2443.25 2322.63 2442.91 2322.89 2442.64ZM2664.55 2135.64L2509.25 2225.52C2496.91 2233.22 2486.06 2243.08 2477.22 2254.63L2341.81 2446.33C2351.01 2453.86 2361.62 2459.46 2373.03 2462.8C2384.44 2466.14 2396.4 2467.14 2408.2 2465.75C2467.02 2460.89 2536.13 2411.78 2588.45 2337.53C2597.38 2325 2605.43 2312.29 2612.81 2299.57C2642.7 2249.75 2660.42 2193.59 2664.55 2135.64Z" fill="white"/>
<path fill-rule="evenodd" clip-rule="evenodd" d="M2476.05 2207.17L2424.9 2055.27C2325.12 2150.29 2270.47 2305.59 2302.89 2402.07C2308.1 2419.22 2317.36 2434.87 2329.87 2447.69L2469.64 2249.69C2473.61 2243.43 2476.22 2236.42 2477.33 2229.1C2478.43 2221.78 2477.99 2214.31 2476.05 2207.17Z" fill="#DFBDB9"/>
<path d="M2418.98 2048.96C2420.02 2047.94 2421.31 2047.19 2422.72 2046.8C2424.13 2046.41 2425.61 2046.39 2427.03 2046.73C2428.46 2047.1 2429.77 2047.82 2430.85 2048.82C2431.93 2049.82 2432.76 2051.07 2433.25 2052.45L2484.3 2204.36C2486.67 2212.8 2487.23 2221.65 2485.96 2230.33C2484.69 2239.01 2481.61 2247.32 2476.92 2254.73L2337.54 2452.74C2336.79 2453.75 2335.82 2454.6 2334.72 2455.22C2333.62 2455.83 2332.4 2456.21 2331.14 2456.33C2329.86 2456.46 2328.56 2456.31 2327.35 2455.87C2326.14 2455.43 2325.05 2454.73 2324.15 2453.81C2310.74 2440.16 2300.76 2423.53 2295.03 2405.28C2271.44 2335.1 2292.41 2234.74 2342.69 2147.67C2363.26 2111.29 2388.95 2078.04 2418.98 2048.96ZM2462.66 2244.64C2465.81 2239.49 2467.88 2233.75 2468.75 2227.78C2469.61 2221.81 2469.26 2215.72 2467.7 2209.89L2421.11 2071.28C2330.07 2164.66 2280.95 2309.09 2311.24 2399.36C2315.11 2411.77 2321.19 2423.37 2329.19 2433.62L2462.66 2244.64Z" fill="white"/>
<path fill-rule="evenodd" clip-rule="evenodd" d="M2497.6 2210.28L2637.37 2012.27C2588.06 1962.38 2504.78 1979.17 2425 2055.27L2476.05 2207.17C2480.22 2219.79 2489.93 2221.15 2497.6 2210.28Z" fill="#DFBDB9"/>
<path opacity="0.1" fill-rule="evenodd" clip-rule="evenodd" d="M2497.6 2210.28L2637.37 2012.27C2588.06 1962.38 2504.78 1979.17 2425 2055.27L2476.05 2207.17C2480.22 2219.79 2489.93 2221.15 2497.6 2210.28Z" fill="black"/>
<path d="M2418.98 2048.96C2502.45 1969.37 2590.68 1952.58 2643.58 2006.16C2645.03 2007.61 2645.92 2009.52 2646.09 2011.56C2646.27 2013.6 2645.73 2015.64 2644.55 2017.32L2504.69 2215.32C2502.96 2219.19 2500.02 2222.39 2496.31 2224.42C2492.6 2226.46 2488.32 2227.23 2484.14 2226.62C2479.95 2226 2476.08 2224.04 2473.11 2221.01C2470.14 2217.99 2468.25 2214.09 2467.71 2209.89L2416.65 2057.99C2416.27 2056.82 2416.14 2055.58 2416.27 2054.36C2416.41 2053.14 2416.8 2051.96 2417.43 2050.9C2417.8 2050.15 2418.33 2049.49 2418.98 2048.96ZM2625.82 2013.73C2580.49 1974.9 2506.92 1991.5 2435 2057.99L2484.3 2204.55C2484.84 2206.18 2485.62 2207.72 2486.63 2209.11C2488.21 2208.26 2489.52 2206.98 2490.42 2205.42L2625.82 2013.73Z" fill="white"/>
<path fill-rule="evenodd" clip-rule="evenodd" d="M2504.49 2217.56L2673.67 2120.5C2673.67 2071.96 2662.02 2037.51 2637.37 2012.46L2497.6 2210.47C2489.93 2221.15 2492.84 2224.55 2504.49 2217.56Z" fill="#DFBDB9"/>
<path opacity="0.2" fill-rule="evenodd" clip-rule="evenodd" d="M2504.49 2217.56L2673.67 2120.5C2673.67 2071.96 2662.02 2037.51 2637.37 2012.46L2497.6 2210.47C2489.93 2221.15 2492.84 2224.55 2504.49 2217.56Z" fill="black"/>
<path d="M2490.42 2205.23L2630.28 2007.22C2631.02 2006.19 2631.98 2005.33 2633.09 2004.71C2634.19 2004.09 2635.42 2003.72 2636.69 2003.63C2637.96 2003.51 2639.23 2003.67 2640.42 2004.11C2641.62 2004.54 2642.7 2005.24 2643.58 2006.16C2670.08 2032.95 2682.41 2069.25 2682.41 2120.3C2682.41 2121.84 2682.01 2123.34 2681.24 2124.67C2680.47 2126 2679.37 2127.11 2678.04 2127.87L2508.96 2225.52C2505.27 2227.65 2494.2 2234.06 2487.41 2226.58C2485.51 2224.09 2484.48 2221.04 2484.48 2217.9C2484.48 2214.76 2485.51 2211.71 2487.41 2209.21L2490.42 2205.23ZM2638.44 2026.35L2514.1 2202.51L2665.13 2115.16C2664.16 2076.62 2655.62 2047.99 2638.44 2026.35Z" fill="white"/>
<path d="M3820.17 1504.15C3811.2 1499.82 3801.33 1497.66 3791.36 1497.84C3781.4 1498.03 3771.62 1500.55 3762.81 1505.22L2878.18 2015.96C2869.65 2021.62 2862.57 2029.21 2857.51 2038.11C2852.46 2047.01 2849.56 2056.98 2849.06 2067.21V2319.57C2848.68 2329.66 2851.06 2339.67 2855.94 2348.51C2860.82 2357.36 2868.03 2364.7 2876.77 2369.75C2885.52 2374.81 2895.48 2377.38 2905.58 2377.19C2915.68 2377 2925.54 2374.06 2934.09 2368.68L3818.72 1857.94C3827.25 1852.28 3834.33 1844.69 3839.39 1835.79C3844.44 1826.88 3847.34 1816.92 3847.84 1806.69V1554.33C3847.48 1544.38 3844.79 1534.66 3839.99 1525.94C3835.18 1517.22 3828.4 1509.76 3820.17 1504.15Z" fill="#263238"/>
<path d="M3847.54 1548.99C3845.12 1534.04 3832.98 1528.8 3818.42 1537.34L3449.59 1750.2L2933.8 2047.99C2925.04 2053.43 2917.83 2061.01 2912.83 2070.02L2857.31 2037.99C2862.3 2028.98 2869.47 2021.37 2878.18 2015.86L3762.81 1505.22C3770.95 1500.05 3780.31 1497.11 3789.95 1496.68C3799.59 1496.25 3809.17 1498.36 3817.74 1502.79C3826.31 1507.22 3833.57 1513.81 3838.8 1521.92C3844.03 1530.02 3847.04 1539.36 3847.54 1548.99Z" fill="#455A64"/>
<path d="M2904.1 2099.24V2351.6C2904.1 2370.43 2917.4 2378.1 2933.7 2368.68L3818.33 1857.94C3826.86 1852.28 3833.94 1844.69 3839 1835.79C3844.06 1826.89 3846.95 1816.92 3847.45 1806.69V1554.33C3847.45 1535.5 3834.25 1527.83 3818.33 1537.25L3449.49 1750.2L2933.6 2047.99C2925.01 2053.62 2917.86 2061.19 2912.73 2070.09C2907.6 2078.99 2904.65 2088.98 2904.1 2099.24Z" fill="#37474F"/>
<path d="M3054.54 2062.26L3069.01 2092.93C3069.17 2093.37 3069.43 2093.77 3069.76 2094.11C3070.09 2094.44 3070.49 2094.7 3070.93 2094.88C3071.37 2095.05 3071.84 2095.13 3072.31 2095.11C3072.78 2095.1 3073.24 2094.98 3073.66 2094.77L3105.99 2082.45C3111.13 2080.41 3113.17 2087.69 3109.48 2094.68L3086.09 2138.55C3084.68 2141.09 3084.04 2143.99 3084.24 2146.9L3089.78 2186.69C3090.65 2193 3085.31 2201.25 3080.75 2200.67L3051.63 2197.08C3050.46 2197.13 3049.32 2197.47 3048.3 2198.06C3047.29 2198.65 3046.43 2199.48 3045.81 2200.47L3016.69 2237.46C3012.13 2243.28 3006.98 2241.14 3007.66 2233.86L3013.19 2187.76C3013.44 2186.64 3013.4 2185.47 3013.07 2184.37C3012.75 2183.27 3012.16 2182.27 3011.35 2181.45L2987.96 2164.56C2984.27 2161.84 2986.31 2152.23 2991.45 2148.35L3023.77 2123.41C3026.04 2121.52 3027.66 2118.98 3028.43 2116.13L3042.9 2068.76C3046.1 2061.29 3052.21 2057.5 3054.54 2062.26Z" fill="#DFBDB9"/>
<path d="M3218.09 1968.69L3232.55 1999.36C3232.71 1999.81 3232.96 2000.22 3233.29 2000.57C3233.62 2000.91 3234.02 2001.18 3234.46 2001.35C3234.9 2001.53 3235.38 2001.61 3235.85 2001.58C3236.33 2001.56 3236.79 2001.43 3237.21 2001.21L3269.54 1988.88C3274.68 1986.84 3276.72 1994.12 3273.03 2001.11L3249.93 2044.98C3248.51 2047.56 3247.87 2050.49 3248.08 2053.42L3253.62 2093.12C3254.49 2099.43 3249.15 2107.68 3244.59 2107.1L3215.47 2103.61C3214.3 2103.62 3213.15 2103.92 3212.13 2104.5C3211.11 2105.08 3210.26 2105.91 3209.65 2106.91L3180.53 2143.89C3175.97 2149.71 3170.82 2147.67 3171.5 2140.3L3177.03 2094.19C3177.28 2093.07 3177.24 2091.9 3176.91 2090.8C3176.59 2089.7 3176 2088.7 3175.19 2087.88L3151.8 2070.99C3148.11 2068.28 3150.15 2058.76 3155.29 2054.78L3187.61 2029.84C3189.88 2027.95 3191.5 2025.41 3192.27 2022.56L3206.74 1975.19C3209.16 1967.62 3215.76 1963.84 3218.09 1968.69Z" fill="#DFBDB9"/>
<path d="M3381.64 1875.12L3396.11 1905.79C3396.27 1906.23 3396.53 1906.63 3396.86 1906.97C3397.19 1907.3 3397.59 1907.57 3398.03 1907.74C3398.47 1907.91 3398.94 1907.99 3399.41 1907.98C3399.88 1907.96 3400.34 1907.84 3400.76 1907.64L3433.09 1895.21C3438.23 1893.27 3440.27 1900.45 3436.58 1907.44L3413.19 1951.32C3411.78 1953.9 3411.14 1956.83 3411.34 1959.76L3416.88 1999.46C3417.75 2005.77 3412.41 2014.11 3407.85 2013.53L3378.73 2009.94C3377.56 2010 3376.42 2010.33 3375.4 2010.93C3374.39 2011.52 3373.53 2012.34 3372.91 2013.34L3343.79 2050.22C3339.23 2056.14 3334.08 2054.01 3334.76 2046.73L3340.29 2000.62C3340.54 1999.49 3340.49 1998.31 3340.17 1997.19C3339.85 1996.07 3339.26 1995.05 3338.45 1994.22L3315.06 1977.33C3311.37 1974.71 3313.41 1965.1 3318.55 1961.12L3350.87 1936.17C3353.14 1934.28 3354.76 1931.74 3355.53 1928.89L3370 1881.53C3372.71 1874.05 3379.31 1870.17 3381.64 1875.12Z" fill="#DFBDB9"/>
<path d="M3545.19 1781.46L3559.66 1812.13C3559.82 1812.57 3560.08 1812.97 3560.41 1813.3C3560.74 1813.64 3561.14 1813.9 3561.58 1814.08C3562.02 1814.25 3562.49 1814.33 3562.96 1814.31C3563.43 1814.29 3563.89 1814.18 3564.32 1813.97L3596.64 1801.55C3601.78 1799.61 3603.82 1806.79 3600.13 1813.78L3576.74 1857.65C3575.33 1860.23 3574.69 1863.16 3574.9 1866.09L3580.43 1905.79C3581.3 1912.1 3575.96 1920.45 3571.4 1919.87L3542.28 1916.28C3541.11 1916.33 3539.97 1916.67 3538.95 1917.26C3537.94 1917.85 3537.08 1918.68 3536.46 1919.67L3507.34 1956.56C3502.78 1962.48 3497.63 1960.34 3498.31 1953.06L3503.85 1906.96C3504.09 1905.84 3504.05 1904.67 3503.72 1903.57C3503.4 1902.47 3502.81 1901.46 3502 1900.65L3478.61 1883.76C3474.92 1881.04 3476.96 1871.43 3482.1 1867.45L3514.43 1842.61C3516.65 1840.68 3518.27 1838.15 3519.08 1835.33L3533.55 1787.96C3536.26 1780.78 3542.86 1776.6 3545.19 1781.46Z" fill="#DFBDB9"/>
<path d="M3708.74 1687.79L3723.21 1718.46C3723.38 1718.9 3723.63 1719.3 3723.96 1719.64C3724.3 1719.97 3724.69 1720.24 3725.13 1720.41C3725.57 1720.58 3726.04 1720.66 3726.51 1720.65C3726.98 1720.63 3727.44 1720.51 3727.87 1720.31L3760.19 1707.98C3765.33 1705.94 3767.37 1713.22 3763.68 1720.21L3740.29 1764.08C3738.88 1766.63 3738.24 1769.53 3738.45 1772.43L3743.98 1812.23C3744.85 1818.53 3739.51 1826.78 3734.95 1826.2L3705.83 1822.61C3704.66 1822.67 3703.52 1823 3702.5 1823.59C3701.49 1824.19 3700.63 1825.01 3700.01 1826.01L3670.89 1862.99C3666.33 1868.81 3661.18 1866.68 3661.86 1859.4L3667.4 1813.29C3667.64 1812.17 3667.6 1811.01 3667.28 1809.9C3666.95 1808.8 3666.36 1807.8 3665.55 1806.98L3642.55 1790.48C3638.86 1787.77 3640.9 1778.16 3646.04 1774.27L3678.36 1749.33C3680.63 1747.44 3682.25 1744.9 3683.02 1742.05L3697.49 1694.68C3699.82 1686.72 3706.12 1682.94 3708.74 1687.79Z" fill="#DFBDB9"/>
<path d="M3030.18 1900.84L2981.65 1872.89C2980.69 1872.46 2979.87 1871.75 2979.32 1870.85L2970.39 1855.32L2999.51 1838.72L2998.64 1841.25L3030.18 1900.84Z" fill="#DFBDB9"/>
<path opacity="0.2" d="M3030.18 1900.84L2981.65 1872.89C2980.69 1872.46 2979.87 1871.75 2979.32 1870.85L2970.39 1855.32L2999.51 1838.72L2998.64 1841.25L3030.18 1900.84Z" fill="black"/>
<path d="M2994.95 1841.05L3028.53 1899.29C3029 1900.13 3029.71 1900.81 3030.56 1901.26C3031.41 1901.71 3032.37 1901.9 3033.33 1901.8C3034.29 1901.71 3035.2 1901.34 3035.95 1900.74C3036.7 1900.14 3037.26 1899.33 3037.56 1898.42L3072.99 1796.21L2994.95 1841.05Z" fill="#DFBDB9"/>
<path d="M3842.01 1029.51C3841.59 1021.4 3839.24 1013.5 3835.18 1006.47C3831.11 999.43 3825.44 993.458 3818.62 989.038C3811.36 985.4 3803.35 983.506 3795.23 983.506C3787.11 983.506 3779.1 985.4 3771.83 989.038L2872.45 1508.03C2865.64 1512.48 2859.98 1518.48 2855.91 1525.52C2851.85 1532.57 2849.5 1540.48 2849.06 1548.6V1844.64C2849.5 1852.77 2851.85 1860.67 2855.91 1867.72C2859.98 1874.77 2865.64 1880.76 2872.45 1885.22C2879.7 1888.9 2887.72 1890.82 2895.85 1890.82C2903.98 1890.82 2911.99 1888.9 2919.24 1885.22L3820.85 1364.77C3841.91 1352.73 3842.11 1340.7 3842.11 1325.94L3842.01 1029.51Z" fill="#DFBDB9"/>
<path opacity="0.2" d="M2848.68 1844.55C2849.12 1852.67 2851.46 1860.58 2855.53 1867.63C2859.59 1874.67 2865.26 1880.67 2872.07 1885.12C2878.65 1888.47 2885.87 1890.39 2893.25 1890.74C2900.63 1891.09 2908 1889.87 2914.87 1887.16C2903.9 1891.33 2895.46 1885.02 2895.46 1871.63V1575.49C2895.73 1567.36 2898.1 1559.43 2902.35 1552.49L2855.47 1525.41C2851.3 1532.41 2848.96 1540.36 2848.68 1548.51V1844.55Z" fill="black"/>
<path opacity="0.4" d="M3840.94 1022.91C3838.23 1013.21 3829.1 1009.81 3818.33 1016.02L2918.85 1535.01C2911.91 1539.28 2906.22 1545.31 2902.35 1552.49L2855.57 1525.4C2859.51 1518.29 2865.19 1512.28 2872.07 1507.93L3771.45 989.038C3778.7 985.355 3786.71 983.436 3794.84 983.436C3802.97 983.436 3810.98 985.355 3818.23 989.038C3824.13 992.838 3829.18 997.803 3833.09 1003.63C3836.99 1009.45 3839.67 1016.02 3840.94 1022.91Z" fill="white"/>
<path d="M2958.75 1580.73L3766.4 1113.47C3774.26 1109.01 3780.67 1111.05 3780.67 1118.13C3780.09 1122.5 3778.5 1126.67 3776.02 1130.31C3773.54 1133.95 3770.25 1136.96 3766.4 1139.1L2958.75 1606.06C2950.98 1610.63 2944.57 1608.59 2944.57 1601.5C2945.19 1597.19 2946.78 1593.07 2949.24 1589.47C2951.7 1585.86 2954.95 1582.88 2958.75 1580.73Z" fill="white"/>
<path d="M2958.75 1712.83L3651.48 1312.94C3659.34 1308.37 3665.65 1310.41 3665.65 1317.5C3665.08 1321.87 3663.5 1326.04 3661.05 1329.7C3658.59 1333.35 3655.31 1336.39 3651.48 1338.56L2958.75 1738.36C2950.98 1742.92 2944.57 1740.79 2944.57 1733.7C2945.22 1729.38 2946.83 1725.26 2949.28 1721.65C2951.74 1718.04 2954.97 1715.03 2958.75 1712.83Z" fill="white"/>
<path d="M2958.75 1777.09L3749.9 1319.73C3757.67 1315.17 3764.07 1317.3 3764.07 1324.39C3763.44 1328.73 3761.84 1332.86 3759.38 1336.49C3756.93 1340.12 3753.69 1343.15 3749.9 1345.36L2958.75 1802.62C2950.98 1807.18 2944.57 1805.14 2944.57 1798.05C2945.16 1793.7 2946.74 1789.55 2949.2 1785.91C2951.66 1782.27 2954.93 1779.25 2958.75 1777.09Z" fill="white"/>
<path d="M2958.75 1644.89L3749.9 1187.53C3757.67 1182.97 3764.07 1185.1 3764.07 1192.19C3763.48 1196.54 3761.9 1200.69 3759.44 1204.33C3756.98 1207.97 3753.72 1210.99 3749.9 1213.16L2958.75 1670.9C2950.98 1675.37 2944.57 1673.33 2944.57 1666.24C2945.1 1661.82 2946.66 1657.59 2949.12 1653.88C2951.58 1650.17 2954.88 1647.09 2958.75 1644.89Z" fill="white"/>
<path d="M3820.17 520.81C3811.2 516.48 3801.33 514.32 3791.36 514.505C3781.4 514.691 3771.62 517.216 3762.81 521.878L2878.18 1032.52C2869.67 1038.2 2862.6 1045.8 2857.54 1054.69C2852.49 1063.59 2849.58 1073.55 2849.06 1083.77V1336.13C2848.68 1346.23 2851.06 1356.24 2855.94 1365.08C2860.82 1373.92 2868.03 1381.27 2876.77 1386.32C2885.52 1391.37 2895.48 1393.94 2905.58 1393.75C2915.68 1393.57 2925.54 1390.62 2934.09 1385.25L3818.72 874.506C3827.25 868.843 3834.33 861.254 3839.39 852.352C3844.44 843.45 3847.34 833.483 3847.84 823.257V570.894C3847.47 560.964 3844.77 551.258 3839.97 542.559C3835.16 533.86 3828.38 526.41 3820.17 520.81Z" fill="#263238"/>
<path d="M3847.54 565.652C3845.12 550.705 3832.98 545.463 3818.42 553.908L3449.59 766.766L2933.8 1064.55C2925.06 1070.05 2917.85 1077.66 2912.83 1086.68L2857.31 1054.65C2862.27 1045.62 2869.45 1038 2878.18 1032.52L3762.81 521.877C3770.95 516.71 3780.31 513.767 3789.95 513.341C3799.59 512.915 3809.17 515.02 3817.74 519.448C3826.31 523.876 3833.57 530.471 3838.8 538.577C3844.03 546.684 3847.04 556.019 3847.54 565.652Z" fill="#455A64"/>
<path d="M2904.1 1115.9V1368.26C2904.1 1387.09 2917.4 1394.76 2933.7 1385.34L3818.33 874.603C3826.86 868.94 3833.94 861.351 3839 852.449C3844.06 843.547 3846.95 833.58 3847.45 823.354V570.991C3847.45 552.161 3834.25 544.493 3818.33 553.908L3449.49 766.766L2933.6 1064.65C2925.01 1070.28 2917.86 1077.85 2912.73 1086.75C2907.6 1095.65 2904.65 1105.64 2904.1 1115.9Z" fill="#37474F"/>
<path d="M3054.54 1079.02L3069.01 1109.69C3069.17 1110.13 3069.43 1110.53 3069.76 1110.86C3070.09 1111.2 3070.49 1111.46 3070.93 1111.63C3071.37 1111.81 3071.84 1111.89 3072.31 1111.87C3072.78 1111.85 3073.24 1111.74 3073.66 1111.53L3105.99 1099.11C3111.13 1097.17 3113.17 1104.45 3109.48 1111.34L3086.09 1155.21C3084.68 1157.79 3084.04 1160.72 3084.24 1163.65L3089.78 1203.35C3090.65 1209.66 3085.31 1218.01 3080.75 1217.43L3051.63 1213.83C3050.46 1213.89 3049.32 1214.23 3048.3 1214.82C3047.29 1215.41 3046.43 1216.24 3045.81 1217.23L3016.69 1254.12C3012.13 1260.04 3006.98 1257.9 3007.66 1250.62L3013.19 1204.52C3013.44 1203.4 3013.4 1202.23 3013.07 1201.13C3012.75 1200.03 3012.16 1199.02 3011.35 1198.21L2987.96 1181.32C2984.27 1178.6 2986.31 1168.99 2991.45 1165.01L3023.77 1140.16C3026.02 1138.25 3027.64 1135.72 3028.43 1132.88L3042.9 1085.52C3046.1 1077.95 3052.21 1074.16 3054.54 1079.02Z" fill="#DFBDB9"/>
<path d="M3218.09 985.349L3232.55 1016.02C3232.72 1016.46 3232.98 1016.86 3233.31 1017.2C3233.64 1017.53 3234.04 1017.8 3234.48 1017.97C3234.92 1018.14 3235.39 1018.22 3235.86 1018.2C3236.33 1018.19 3236.79 1018.07 3237.21 1017.87L3269.54 1005.54C3274.68 1003.5 3276.72 1010.78 3273.03 1017.77L3249.93 1061.64C3248.52 1064.19 3247.88 1067.09 3248.08 1069.99L3253.62 1109.78C3254.49 1116.09 3249.15 1124.34 3244.59 1123.76L3215.47 1120.17C3214.3 1120.22 3213.16 1120.56 3212.14 1121.15C3211.13 1121.74 3210.27 1122.57 3209.65 1123.57L3180.53 1160.55C3175.97 1166.37 3170.82 1164.33 3171.5 1156.96L3177.03 1110.85C3177.28 1109.73 3177.24 1108.56 3176.91 1107.46C3176.59 1106.36 3176 1105.36 3175.19 1104.54L3151.8 1087.65C3148.11 1084.94 3150.15 1075.33 3155.29 1071.44L3187.61 1046.5C3189.88 1044.61 3191.5 1042.07 3192.27 1039.22L3206.74 991.852C3209.16 984.282 3215.76 980.496 3218.09 985.349Z" fill="#DFBDB9"/>
<path d="M3381.64 891.686L3396.11 922.455C3396.27 922.895 3396.53 923.295 3396.86 923.631C3397.19 923.966 3397.59 924.229 3398.03 924.402C3398.47 924.576 3398.94 924.656 3399.41 924.638C3399.88 924.62 3400.34 924.505 3400.76 924.299L3433.09 911.875C3438.23 909.934 3440.27 917.116 3436.58 924.105L3413.19 967.977C3411.77 970.555 3411.13 973.488 3411.34 976.421L3416.88 1016.12C3417.75 1022.43 3412.41 1030.68 3407.85 1030.19L3378.73 1026.6C3377.56 1026.61 3376.41 1026.92 3375.39 1027.5C3374.37 1028.08 3373.52 1028.9 3372.91 1029.9L3343.79 1066.88C3339.23 1072.71 3334.08 1070.67 3334.76 1063.29L3340.29 1017.19C3340.53 1016.07 3340.48 1014.9 3340.16 1013.8C3339.84 1012.7 3339.25 1011.7 3338.45 1010.88L3315.06 993.99C3311.37 991.369 3313.41 981.76 3318.55 977.78L3350.87 952.835C3353.14 950.944 3354.76 948.403 3355.53 945.555L3370 898.189C3372.71 890.715 3379.31 886.833 3381.64 891.686Z" fill="#DFBDB9"/>
<path d="M3545.19 798.117L3559.66 828.788C3559.82 829.229 3560.08 829.629 3560.41 829.964C3560.74 830.3 3561.14 830.562 3561.58 830.736C3562.02 830.909 3562.49 830.99 3562.96 830.972C3563.43 830.954 3563.89 830.838 3564.32 830.632L3596.64 818.208C3601.78 816.267 3603.82 823.45 3600.13 830.438L3576.74 874.311C3575.33 876.892 3574.69 879.822 3574.89 882.755L3580.43 922.453C3581.3 928.763 3575.96 937.11 3571.4 936.528L3542.28 932.936C3541.11 932.991 3539.97 933.328 3538.95 933.92C3537.94 934.511 3537.08 935.34 3536.46 936.333L3507.34 973.217C3502.78 979.138 3497.63 977.003 3498.31 969.723L3503.85 923.618C3504.18 922.462 3504.21 921.24 3503.94 920.069C3503.66 918.897 3503.1 917.814 3502.29 916.921L3478.9 900.032C3475.21 897.411 3477.25 887.802 3482.39 883.823L3514.72 858.975C3516.96 857.026 3518.58 854.461 3519.38 851.598L3533.84 804.231C3536.26 797.049 3542.86 793.166 3545.19 798.117Z" fill="#DFBDB9"/>
<path d="M3708.74 704.451L3723.21 735.123C3723.38 735.563 3723.63 735.964 3723.96 736.299C3724.3 736.634 3724.69 736.897 3725.13 737.071C3725.57 737.244 3726.04 737.324 3726.51 737.307C3726.98 737.289 3727.44 737.173 3727.87 736.967L3760.19 724.543C3765.33 722.602 3767.37 729.882 3763.68 736.773L3740.29 781.034C3738.88 783.615 3738.24 786.545 3738.45 789.478L3743.98 829.177C3744.85 835.486 3739.51 843.833 3734.95 843.251L3705.83 839.659C3704.66 839.714 3703.52 840.052 3702.5 840.643C3701.49 841.235 3700.63 842.063 3700.01 843.057L3670.89 879.94C3666.33 885.861 3661.18 883.726 3661.86 876.446L3667.4 830.341C3667.64 829.219 3667.6 828.055 3667.27 826.953C3666.95 825.851 3666.36 824.847 3665.55 824.032L3642.16 807.143C3638.47 804.426 3640.51 794.817 3645.65 790.837L3677.98 765.989C3680.24 764.098 3681.87 761.557 3682.63 758.709L3697.1 711.343C3699.82 703.384 3706.12 699.598 3708.74 704.451Z" fill="#455A64"/>
<path d="M3030.18 917.503L2981.65 889.549C2980.69 889.119 2979.87 888.409 2979.32 887.51L2970.39 871.98L2999.51 855.383L2998.64 857.906L3030.18 917.503Z" fill="#DFBDB9"/>
<path opacity="0.2" d="M3030.18 917.503L2981.65 889.549C2980.69 889.119 2979.87 888.409 2979.32 887.51L2970.39 871.98L2999.51 855.383L2998.64 857.906L3030.18 917.503Z" fill="black"/>
<path d="M2994.95 857.714L3028.53 915.951C3029 916.791 3029.71 917.477 3030.56 917.923C3031.41 918.37 3032.37 918.558 3033.33 918.465C3034.29 918.373 3035.2 918.003 3035.95 917.401C3036.7 916.8 3037.26 915.992 3037.56 915.078L3072.99 812.871L2994.95 857.714Z" fill="#DFBDB9"/>
<path d="M3842.01 46.1744C3841.57 38.0503 3839.22 30.1441 3835.16 23.0957C3831.1 16.0473 3825.43 10.0545 3818.62 5.60229C3811.37 1.91951 3803.36 0 3795.23 0C3787.1 0 3779.08 1.91951 3771.84 5.60229L2872.07 524.595C2865.26 529.047 2859.59 535.04 2855.53 542.088C2851.46 549.137 2849.12 557.043 2848.68 565.167V861.208C2849.12 869.332 2851.46 877.238 2855.53 884.286C2859.59 891.335 2865.26 897.327 2872.07 901.78C2879.32 905.462 2887.33 907.382 2895.46 907.382C2903.59 907.382 2911.6 905.462 2918.85 901.78L3820.46 381.234C3841.53 369.295 3841.72 357.259 3841.72 342.409L3842.01 46.1744Z" fill="#DFBDB9"/>
<path opacity="0.2" d="M2848.68 861.208C2849.12 869.332 2851.46 877.238 2855.53 884.286C2859.59 891.335 2865.26 897.328 2872.07 901.78C2878.65 905.142 2885.88 907.055 2893.26 907.39C2900.64 907.725 2908.01 906.474 2914.87 903.721C2903.9 907.895 2895.46 901.683 2895.46 888.288V592.151C2895.74 583.988 2898.12 576.034 2902.35 569.05L2855.47 542.066C2851.3 549.074 2848.96 557.019 2848.68 565.167V861.208Z" fill="black"/>
<path opacity="0.4" d="M3840.94 39.5745C3838.23 29.8683 3829.1 26.4711 3818.33 32.6831L2918.85 551.676C2911.91 555.946 2906.22 561.972 2902.35 569.147L2855.57 542.067C2859.51 534.952 2865.19 528.944 2872.07 524.595L3771.45 5.60268C3778.71 1.96463 3786.72 0.0703125 3794.84 0.0703125C3802.96 0.0703125 3810.97 1.96463 3818.23 5.60268C3824.14 9.41333 3829.2 14.3937 3833.11 20.2366C3837.01 26.0794 3839.68 32.6608 3840.94 39.5745Z" fill="white"/>
<path d="M2958.75 597.295L3766.4 130.133C3774.26 125.668 3780.67 127.707 3780.67 134.792C3780.09 139.157 3778.5 143.326 3776.02 146.966C3773.54 150.606 3770.25 153.617 3766.4 155.758L2958.75 622.919C2950.98 627.481 2944.57 625.443 2944.57 618.357C2945.19 614.004 2946.79 609.848 2949.24 606.2C2951.7 602.552 2954.95 599.508 2958.75 597.295Z" fill="white"/>
<path d="M2958.75 729.397L3651.48 329.5C3659.34 324.938 3665.65 326.976 3665.65 334.061C3665.09 338.42 3663.51 342.586 3661.05 346.226C3658.59 349.867 3655.31 352.881 3651.48 355.027L2958.75 755.021C2950.98 759.486 2944.57 757.448 2944.57 750.362C2945.16 746.013 2946.75 741.859 2949.21 738.223C2951.67 734.586 2954.93 731.566 2958.75 729.397Z" fill="white"/>
<path d="M2958.75 793.653L3749.9 336.391C3757.67 331.83 3764.07 333.965 3764.07 340.953C3763.45 345.306 3761.86 349.462 3759.4 353.11C3756.95 356.758 3753.7 359.803 3749.9 362.016L2958.75 819.277C2950.98 823.839 2944.57 821.801 2944.57 814.715C2945.19 810.362 2946.79 806.206 2949.24 802.558C2951.7 798.91 2954.95 795.866 2958.75 793.653Z" fill="white"/>
<path d="M2958.75 661.939L3749.9 204.58C3757.67 200.018 3764.07 202.154 3764.07 209.239C3763.44 213.575 3761.84 217.712 3759.38 221.342C3756.93 224.972 3753.69 228.002 3749.9 230.205L2958.75 687.466C2950.98 692.028 2944.57 689.99 2944.57 682.904C2945.16 678.553 2946.74 674.396 2949.2 670.758C2951.66 667.121 2954.93 664.102 2958.75 661.939Z" fill="white"/>
<path d="M3294.39 2445.65L3634.59 2378.97C3636.74 2378.62 3638.94 2378.94 3640.9 2379.88C3642.86 2380.83 3644.48 2382.35 3645.54 2384.25C3646.6 2386.15 3647.05 2388.33 3646.83 2390.5C3646.61 2392.66 3645.72 2394.7 3644.3 2396.35L3413.58 2657.64L3294.39 2445.65Z" fill="#FFA8A7"/>
<path d="M3644.49 2396.35C3645.92 2394.7 3646.8 2392.66 3647.02 2390.5C3647.25 2388.33 3646.8 2386.15 3645.74 2384.25C3644.67 2382.35 3643.05 2380.83 3641.09 2379.88C3639.13 2378.94 3636.93 2378.62 3634.78 2378.97L3568.2 2392.27C3577.31 2397.92 3584.69 2405.97 3589.52 2415.55C3594.35 2425.12 3596.45 2435.84 3595.57 2446.53V2452.55L3644.49 2396.35Z" fill="#DFBDB9"/>
<path d="M2145.27 3385.12L2173.03 3369.11L2206.71 3349.69L3413.68 2657.35C3424.75 2619.87 3421.28 2579.6 3403.97 2544.56C3379.8 2490.59 3333.02 2447.5 3294.19 2445.46L2088.19 3137.71L2024.04 3174.5C2066.94 3152.95 2187.97 3362.89 2145.27 3385.12Z" fill="#37474F"/>
<path d="M2251.35 3324.65L2313.47 3288.93C2331.82 3279.23 2321.34 3234.09 2299.89 3187.5C2271.45 3125.58 2215.64 3065.59 2191.27 3078.5L2145.46 3104.81L2129.25 3114.51C2153.61 3101.6 2209.52 3161.49 2237.86 3223.51C2258.34 3268.16 2268.83 3311.55 2253.2 3323.39C2252.71 3323.97 2252.07 3324.41 2251.35 3324.65Z" fill="#EBEBEB"/>
<path d="M2266.79 3315.63C2309.4 3293.01 2187.39 3082.68 2144.68 3105.39L2082.46 3140.91C2125.08 3118.39 2247.47 3328.53 2204.47 3351.15L2266.79 3315.63Z" fill="#DFBDB9"/>
<path d="M2145.27 3385.12L2206.71 3349.98C2248.73 3328.05 2132.65 3124.22 2088.19 3137.71C2087.3 3137.88 2086.45 3138.21 2085.67 3138.68L2024.04 3174.5C2066.94 3152.95 2187.97 3362.89 2145.27 3385.12Z" fill="#EBEBEB"/>
<path opacity="0.15" d="M3646.04 2384.89L3634.59 2378.97L3387.76 2513.99L2111.39 3246.42C2108.96 3242.63 2107.02 3242.34 2105.47 3244.96C2141.77 3301.55 2169.14 3372.79 2145.26 3385.22L2173.02 3369.2L2206.7 3349.79L3413.68 2657.44L3644.39 2396.15C3645.82 2394.69 3646.74 2392.81 3647.04 2390.79C3647.34 2388.77 3646.99 2386.7 3646.04 2384.89Z" fill="black"/>
<path d="M1884.46 3534.31L2145.26 3385.12C2163.51 3375.42 2153.42 3330.96 2132.36 3284.66C2104.11 3222.64 2048.49 3162.07 2024.03 3174.5L1762.16 3324.07C1710.13 3354.06 1757.99 3466.85 1815.93 3517.32C1837.48 3536.64 1861.94 3545.08 1884.46 3534.31Z" fill="#F28F8F"/>
<path opacity="0.1" d="M1899.99 3453.45C1885.04 3394.63 1837.48 3336.98 1793.71 3324.65C1787.28 3322.38 1780.4 3321.68 1773.64 3322.61C1766.89 3323.53 1760.46 3326.07 1754.88 3329.99C1716.06 3366.39 1761.38 3469.86 1816.22 3517.61C1837.29 3536.25 1860.87 3544.6 1883.39 3534.79C1902.61 3523.34 1910.47 3493.25 1899.99 3453.45Z" fill="black"/>
</svg>
